<ttFont>
    <TTGlyph name="A" xMin="20" yMin="5" xMax="1386" yMax="1391">
      <contour>
        <pt x="859" y="591" on="1"/>
        <pt x="859" y="603" on="1"/>
        <pt x="859" y="669" on="0"/>
        <pt x="689" y="1094" on="1"/>
        <pt x="665" y="1154" on="0"/>
        <pt x="656" y="1154" on="0"/>
        <pt x="455" y="618" on="0"/>
        <pt x="455" y="595" on="1"/>
        <pt x="455" y="577" on="0"/>
        <pt x="551" y="577" on="1"/>
        <pt x="723" y="577" on="1"/>
        <pt x="859" y="577" on="0"/>
      </contour>
      <contour>
        <pt x="20" y="53" on="1"/>
        <pt x="20" y="73" on="0"/>
        <pt x="141" y="149" on="0"/>
        <pt x="174" y="223" on="1"/>
        <pt x="175" y="226" on="0"/>
        <pt x="309" y="573" on="0"/>
        <pt x="470" y="954" on="0"/>
        <pt x="520" y="1101" on="0"/>
        <pt x="582" y="1301" on="0"/>
        <pt x="595" y="1323" on="1"/>
        <pt x="635" y="1391" on="0"/>
        <pt x="703" y="1391" on="1"/>
        <pt x="726" y="1391" on="0"/>
        <pt x="751" y="1373" on="1"/>
        <pt x="826" y="1318" on="0"/>
        <pt x="925" y="1028" on="1"/>
        <pt x="964" y="914" on="0"/>
        <pt x="1216" y="236" on="0"/>
        <pt x="1264" y="136" on="0"/>
        <pt x="1304" y="113" on="1"/>
        <pt x="1386" y="66" on="0"/>
        <pt x="1386" y="44" on="1"/>
        <pt x="1386" y="5" on="0"/>
        <pt x="1232" y="5" on="1"/>
        <pt x="1114" y="5" on="1"/>
        <pt x="939" y="5" on="0"/>
        <pt x="939" y="41" on="1"/>
        <pt x="939" y="65" on="0"/>
        <pt x="1005" y="136" on="0"/>
        <pt x="1005" y="211" on="0"/>
        <pt x="926" y="410" on="0"/>
        <pt x="907" y="436" on="1"/>
        <pt x="872" y="484" on="0"/>
        <pt x="760" y="484" on="1"/>
        <pt x="702" y="486" on="1"/>
        <pt x="672" y="487" on="0"/>
        <pt x="613" y="487" on="1"/>
        <pt x="452" y="487" on="0"/>
        <pt x="390" y="434" on="0"/>
        <pt x="304" y="213" on="0"/>
        <pt x="304" y="133" on="0"/>
        <pt x="387" y="55" on="0"/>
        <pt x="387" y="48" on="1"/>
        <pt x="387" y="13" on="0"/>
        <pt x="289" y="13" on="1"/>
        <pt x="20" y="13" on="0"/>
      </contour>
    </TTGlyph>
    <TTGlyph name="AE" xMin="39" yMin="4" xMax="1792" yMax="1381">
      <contour>
        <pt x="912" y="799" on="1"/>
        <pt x="909" y="874" on="1"/>
        <pt x="909" y="924" on="1"/>
        <pt x="921" y="1117" on="1"/>
        <pt x="921" y="1125" on="0"/>
        <pt x="921" y="1133" on="1"/>
        <pt x="922" y="1149" on="1"/>
        <pt x="922" y="1156" on="1"/>
        <pt x="922" y="1215" on="0"/>
        <pt x="912" y="1215" on="1"/>
        <pt x="907" y="1215" on="1"/>
        <pt x="873" y="1215" on="0"/>
        <pt x="811" y="1091" on="1"/>
        <pt x="808" y="1085" on="0"/>
        <pt x="799" y="1065" on="0"/>
        <pt x="789" y="1048" on="0"/>
        <pt x="783" y="1036" on="0"/>
        <pt x="747" y="982" on="0"/>
        <pt x="635" y="757" on="0"/>
        <pt x="625" y="742" on="1"/>
        <pt x="555" y="637" on="0"/>
        <pt x="555" y="619" on="0"/>
        <pt x="609" y="619" on="1"/>
        <pt x="644" y="619" on="1"/>
        <pt x="653" y="620" on="0"/>
        <pt x="683" y="620" on="1"/>
        <pt x="749" y="618" on="1"/>
        <pt x="799" y="614" on="1"/>
        <pt x="807" y="614" on="1"/>
        <pt x="815" y="615" on="1"/>
        <pt x="830" y="615" on="1"/>
        <pt x="889" y="615" on="0"/>
        <pt x="900" y="637" on="1"/>
        <pt x="911" y="660" on="0"/>
        <pt x="911" y="716" on="1"/>
        <pt x="911" y="781" on="1"/>
      </contour>
      <contour>
        <pt x="924" y="311" on="1"/>
        <pt x="924" y="531" on="0"/>
        <pt x="767" y="531" on="1"/>
        <pt x="563" y="531" on="0"/>
        <pt x="489" y="462" on="1"/>
        <pt x="437" y="414" on="0"/>
        <pt x="339" y="213" on="0"/>
        <pt x="339" y="166" on="1"/>
        <pt x="339" y="154" on="0"/>
        <pt x="380" y="67" on="0"/>
        <pt x="380" y="49" on="1"/>
        <pt x="380" y="8" on="0"/>
        <pt x="39" y="8" on="0"/>
        <pt x="39" y="52" on="1"/>
        <pt x="39" y="78" on="0"/>
        <pt x="71" y="108" on="1"/>
        <pt x="107" y="135" on="1"/>
        <pt x="153" y="170" on="0"/>
        <pt x="228" y="271" on="0"/>
        <pt x="570" y="903" on="0"/>
        <pt x="598" y="950" on="1"/>
        <pt x="626" y="997" on="1"/>
        <pt x="664" y="1061" on="0"/>
        <pt x="679" y="1087" on="1"/>
        <pt x="704" y="1132" on="1"/>
        <pt x="735" y="1193" on="0"/>
        <pt x="735" y="1345" on="0"/>
        <pt x="866" y="1380" on="0"/>
        <pt x="1048" y="1380" on="1"/>
        <pt x="1257" y="1378" on="1"/>
        <pt x="1366" y="1381" on="1"/>
        <pt x="1421" y="1381" on="1"/>
        <pt x="1588" y="1381" on="0"/>
        <pt x="1728" y="1299" on="0"/>
        <pt x="1728" y="1206" on="1"/>
        <pt x="1728" y="1143" on="0"/>
        <pt x="1710" y="1143" on="1"/>
        <pt x="1702" y="1143" on="0"/>
        <pt x="1648" y="1177" on="1"/>
        <pt x="1499" y="1270" on="0"/>
        <pt x="1315" y="1270" on="1"/>
        <pt x="1209" y="1270" on="0"/>
        <pt x="1134" y="1136" on="0"/>
        <pt x="1134" y="942" on="1"/>
        <pt x="1134" y="866" on="0"/>
        <pt x="1222" y="788" on="0"/>
        <pt x="1365" y="788" on="0"/>
        <pt x="1488" y="866" on="0"/>
        <pt x="1504" y="866" on="1"/>
        <pt x="1530" y="853" on="1"/>
        <pt x="1564" y="819" on="0"/>
        <pt x="1564" y="596" on="0"/>
        <pt x="1534" y="567" on="1"/>
        <pt x="1507" y="553" on="1"/>
        <pt x="1489" y="553" on="0"/>
        <pt x="1361" y="634" on="0"/>
        <pt x="1299" y="634" on="1"/>
        <pt x="1199" y="634" on="0"/>
        <pt x="1159" y="566" on="1"/>
        <pt x="1137" y="529" on="0"/>
        <pt x="1137" y="373" on="0"/>
        <pt x="1183" y="206" on="0"/>
        <pt x="1252" y="123" on="0"/>
        <pt x="1371" y="123" on="1"/>
        <pt x="1567" y="123" on="0"/>
        <pt x="1710" y="227" on="1"/>
        <pt x="1759" y="262" on="0"/>
        <pt x="1770" y="262" on="1"/>
        <pt x="1792" y="262" on="0"/>
        <pt x="1792" y="238" on="1"/>
        <pt x="1792" y="206" on="1"/>
        <pt x="1792" y="82" on="0"/>
        <pt x="1685" y="28" on="1"/>
        <pt x="1637" y="4" on="0"/>
        <pt x="1453" y="4" on="1"/>
        <pt x="1398" y="4" on="1"/>
        <pt x="1343" y="5" on="1"/>
        <pt x="1289" y="5" on="1"/>
        <pt x="1029" y="5" on="0"/>
        <pt x="861" y="37" on="0"/>
        <pt x="861" y="92" on="1"/>
        <pt x="869" y="119" on="1"/>
        <pt x="904" y="183" on="1"/>
        <pt x="924" y="229" on="0"/>
      </contour>
    </TTGlyph>
    <TTGlyph name="Aacute" xMin="28" yMin="18" xMax="1351" yMax="1809">
      <contour>
        <pt x="843" y="581" on="1"/>
        <pt x="843" y="599" on="1"/>
        <pt x="843" y="607" on="0"/>
        <pt x="678" y="1102" on="1"/>
        <pt x="660" y="1155" on="0"/>
        <pt x="648" y="1155" on="0"/>
        <pt x="617" y="1085" on="1"/>
        <pt x="439" y="678" on="0"/>
        <pt x="439" y="582" on="1"/>
        <pt x="439" y="569" on="0"/>
        <pt x="467" y="569" on="1"/>
        <pt x="474" y="569" on="1"/>
        <pt x="482" y="570" on="1"/>
        <pt x="545" y="574" on="1"/>
        <pt x="554" y="575" on="1"/>
        <pt x="562" y="576" on="1"/>
        <pt x="700" y="579" on="1"/>
        <pt x="843" y="579" on="0"/>
      </contour>
      <contour>
        <pt x="581" y="1502" on="1"/>
        <pt x="581" y="1511" on="1"/>
        <pt x="581" y="1533" on="0"/>
        <pt x="626" y="1580" on="0"/>
        <pt x="637" y="1594" on="0"/>
        <pt x="664" y="1625" on="0"/>
        <pt x="677" y="1642" on="0"/>
        <pt x="712" y="1681" on="0"/>
        <pt x="749" y="1731" on="0"/>
        <pt x="764" y="1744" on="1"/>
        <pt x="837" y="1809" on="0"/>
        <pt x="886" y="1809" on="1"/>
        <pt x="908" y="1809" on="1"/>
        <pt x="939" y="1809" on="0"/>
        <pt x="998" y="1763" on="0"/>
        <pt x="998" y="1739" on="1"/>
        <pt x="998" y="1723" on="1"/>
        <pt x="998" y="1683" on="0"/>
        <pt x="950" y="1649" on="1"/>
        <pt x="693" y="1469" on="0"/>
        <pt x="623" y="1469" on="1"/>
        <pt x="617" y="1470" on="1"/>
        <pt x="581" y="1470" on="0"/>
      </contour>
      <contour>
        <pt x="28" y="55" on="0"/>
        <pt x="28" y="90" on="0"/>
        <pt x="148" y="169" on="0"/>
        <pt x="202" y="293" on="0"/>
        <pt x="221" y="346" on="1"/>
        <pt x="268" y="483" on="1"/>
        <pt x="286" y="531" on="0"/>
        <pt x="482" y="1033" on="0"/>
        <pt x="555" y="1265" on="0"/>
        <pt x="570" y="1298" on="1"/>
        <pt x="608" y="1379" on="0"/>
        <pt x="692" y="1379" on="1"/>
        <pt x="755" y="1379" on="0"/>
        <pt x="838" y="1202" on="1"/>
        <pt x="846" y="1186" on="0"/>
        <pt x="1198" y="229" on="0"/>
        <pt x="1233" y="156" on="0"/>
        <pt x="1276" y="130" on="1"/>
        <pt x="1351" y="86" on="0"/>
        <pt x="1351" y="58" on="1"/>
        <pt x="1351" y="20" on="0"/>
        <pt x="1166" y="20" on="1"/>
        <pt x="1107" y="18" on="1"/>
        <pt x="1048" y="18" on="1"/>
        <pt x="907" y="18" on="0"/>
        <pt x="907" y="75" on="0"/>
        <pt x="980" y="136" on="0"/>
        <pt x="980" y="205" on="0"/>
        <pt x="889" y="415" on="0"/>
        <pt x="833" y="466" on="0"/>
        <pt x="447" y="466" on="0"/>
        <pt x="411" y="433" on="1"/>
        <pt x="387" y="411" on="0"/>
        <pt x="308" y="206" on="0"/>
        <pt x="308" y="125" on="0"/>
        <pt x="398" y="64" on="0"/>
        <pt x="398" y="51" on="1"/>
        <pt x="398" y="22" on="0"/>
        <pt x="320" y="22" on="1"/>
        <pt x="108" y="22" on="0"/>
        <pt x="52" y="45" on="1"/>
      </contour>
    </TTGlyph>
    <TTGlyph name="Acircumflex" xMin="17" yMin="1" xMax="1363" yMax="1803">
      <contour>
        <pt x="583" y="585" on="1"/>
        <pt x="599" y="585" on="1"/>
        <pt x="607" y="586" on="1"/>
        <pt x="649" y="586" on="1"/>
        <pt x="847" y="586" on="0"/>
        <pt x="847" y="603" on="1"/>
        <pt x="847" y="654" on="0"/>
        <pt x="679" y="1074" on="1"/>
        <pt x="649" y="1149" on="0"/>
        <pt x="642" y="1149" on="0"/>
        <pt x="606" y="1067" on="1"/>
        <pt x="438" y="683" on="0"/>
        <pt x="438" y="603" on="1"/>
        <pt x="438" y="597" on="1"/>
        <pt x="438" y="585" on="0"/>
      </contour>
      <contour>
        <pt x="965" y="1468" on="1"/>
        <pt x="950" y="1468" on="1"/>
        <pt x="913" y="1468" on="0"/>
        <pt x="692" y="1638" on="0"/>
        <pt x="690" y="1638" on="1"/>
        <pt x="679" y="1638" on="0"/>
        <pt x="478" y="1468" on="0"/>
        <pt x="386" y="1468" on="0"/>
        <pt x="386" y="1496" on="1"/>
        <pt x="386" y="1502" on="1"/>
        <pt x="386" y="1506" on="0"/>
        <pt x="492" y="1631" on="0"/>
        <pt x="502" y="1641" on="0"/>
        <pt x="532" y="1677" on="1"/>
        <pt x="637" y="1803" on="0"/>
        <pt x="684" y="1803" on="1"/>
        <pt x="700" y="1803" on="1"/>
        <pt x="737" y="1803" on="0"/>
        <pt x="999" y="1520" on="0"/>
        <pt x="999" y="1498" on="1"/>
        <pt x="999" y="1468" on="0"/>
      </contour>
      <contour>
        <pt x="17" y="37" on="0"/>
        <pt x="17" y="73" on="0"/>
        <pt x="93" y="123" on="1"/>
        <pt x="139" y="153" on="0"/>
        <pt x="172" y="228" on="1"/>
        <pt x="176" y="238" on="0"/>
        <pt x="272" y="502" on="1"/>
        <pt x="384" y="790" on="1"/>
        <pt x="470" y="1012" on="0"/>
        <pt x="568" y="1308" on="0"/>
        <pt x="580" y="1326" on="1"/>
        <pt x="618" y="1385" on="0"/>
        <pt x="764" y="1385" on="0"/>
        <pt x="853" y="1179" on="1"/>
        <pt x="876" y="1126" on="0"/>
        <pt x="968" y="862" on="0"/>
        <pt x="1121" y="461" on="0"/>
        <pt x="1192" y="245" on="0"/>
        <pt x="1244" y="136" on="0"/>
        <pt x="1285" y="113" on="1"/>
        <pt x="1363" y="69" on="0"/>
        <pt x="1363" y="42" on="1"/>
        <pt x="1363" y="2" on="0"/>
        <pt x="1114" y="2" on="1"/>
        <pt x="1084" y="1" on="1"/>
        <pt x="906" y="1" on="0"/>
        <pt x="906" y="34" on="1"/>
        <pt x="906" y="62" on="0"/>
        <pt x="984" y="124" on="0"/>
        <pt x="984" y="196" on="0"/>
        <pt x="894" y="413" on="0"/>
        <pt x="836" y="465" on="0"/>
        <pt x="443" y="465" on="0"/>
        <pt x="407" y="430" on="1"/>
        <pt x="386" y="409" on="0"/>
        <pt x="304" y="203" on="0"/>
        <pt x="304" y="115" on="0"/>
        <pt x="398" y="51" on="0"/>
        <pt x="398" y="37" on="1"/>
        <pt x="398" y="6" on="0"/>
        <pt x="288" y="6" on="1"/>
        <pt x="94" y="6" on="0"/>
      </contour>
    </TTGlyph>
    <TTGlyph name="Adieresis" xMin="8" yMin="-4" xMax="1372" yMax="1745">
      <contour>
        <pt x="438" y="596" on="1"/>
        <pt x="438" y="590" on="1"/>
        <pt x="438" y="576" on="0"/>
        <pt x="588" y="576" on="1"/>
        <pt x="596" y="576" on="1"/>
        <pt x="604" y="577" on="1"/>
        <pt x="645" y="577" on="1"/>
        <pt x="836" y="577" on="0"/>
        <pt x="836" y="591" on="1"/>
        <pt x="836" y="597" on="1"/>
        <pt x="836" y="666" on="0"/>
        <pt x="669" y="1083" on="1"/>
        <pt x="642" y="1150" on="0"/>
        <pt x="640" y="1150" on="1"/>
        <pt x="631" y="1150" on="0"/>
        <pt x="605" y="1072" on="0"/>
        <pt x="521" y="849" on="0"/>
        <pt x="495" y="764" on="0"/>
        <pt x="438" y="622" on="0"/>
      </contour>
      <contour>
        <pt x="490" y="1522" on="1"/>
        <pt x="458" y="1522" on="0"/>
        <pt x="393" y="1574" on="0"/>
        <pt x="393" y="1608" on="1"/>
        <pt x="390" y="1630" on="1"/>
        <pt x="390" y="1637" on="1"/>
        <pt x="390" y="1682" on="0"/>
        <pt x="453" y="1745" on="0"/>
        <pt x="492" y="1745" on="1"/>
        <pt x="514" y="1745" on="1"/>
        <pt x="554" y="1745" on="0"/>
        <pt x="614" y="1685" on="0"/>
        <pt x="614" y="1641" on="1"/>
        <pt x="614" y="1630" on="1"/>
        <pt x="614" y="1585" on="0"/>
        <pt x="554" y="1525" on="0"/>
        <pt x="526" y="1525" on="1"/>
        <pt x="505" y="1522" on="1"/>
      </contour>
      <contour>
        <pt x="989" y="1612" on="1"/>
        <pt x="989" y="1612" on="0"/>
        <pt x="987" y="1594" on="1"/>
        <pt x="987" y="1569" on="0"/>
        <pt x="928" y="1510" on="0"/>
        <pt x="881" y="1510" on="1"/>
        <pt x="877" y="1510" on="1"/>
        <pt x="837" y="1510" on="0"/>
        <pt x="770" y="1564" on="0"/>
        <pt x="770" y="1613" on="1"/>
        <pt x="770" y="1628" on="1"/>
        <pt x="770" y="1671" on="0"/>
        <pt x="833" y="1734" on="0"/>
        <pt x="869" y="1734" on="1"/>
        <pt x="890" y="1734" on="1"/>
        <pt x="929" y="1734" on="0"/>
        <pt x="986" y="1677" on="0"/>
        <pt x="986" y="1652" on="1"/>
        <pt x="988" y="1646" on="0"/>
        <pt x="988" y="1642" on="1"/>
        <pt x="990" y="1627" on="1"/>
        <pt x="990" y="1616" on="1"/>
      </contour>
      <contour>
        <pt x="8" y="48" on="1"/>
        <pt x="8" y="72" on="0"/>
        <pt x="120" y="133" on="0"/>
        <pt x="168" y="233" on="0"/>
        <pt x="264" y="497" on="0"/>
        <pt x="452" y="955" on="0"/>
        <pt x="493" y="1074" on="0"/>
        <pt x="559" y="1289" on="0"/>
        <pt x="573" y="1312" on="1"/>
        <pt x="610" y="1372" on="0"/>
        <pt x="767" y="1372" on="0"/>
        <pt x="852" y="1167" on="1"/>
        <pt x="860" y="1149" on="0"/>
        <pt x="954" y="884" on="0"/>
        <pt x="1205" y="224" on="0"/>
        <pt x="1252" y="126" on="0"/>
        <pt x="1372" y="58" on="0"/>
        <pt x="1372" y="32" on="1"/>
        <pt x="1372" y="-4" on="0"/>
        <pt x="1184" y="-4" on="1"/>
        <pt x="1154" y="-4" on="1"/>
        <pt x="914" y="-4" on="0"/>
        <pt x="914" y="34" on="1"/>
        <pt x="914" y="66" on="0"/>
        <pt x="990" y="130" on="0"/>
        <pt x="990" y="198" on="0"/>
        <pt x="900" y="418" on="0"/>
        <pt x="839" y="473" on="0"/>
        <pt x="435" y="473" on="0"/>
        <pt x="372" y="413" on="0"/>
        <pt x="294" y="203" on="0"/>
        <pt x="294" y="119" on="0"/>
        <pt x="390" y="55" on="0"/>
        <pt x="390" y="40" on="1"/>
        <pt x="390" y="6" on="0"/>
        <pt x="279" y="6" on="1"/>
        <pt x="8" y="6" on="0"/>
      </contour>
    </TTGlyph>
    <TTGlyph name="Agrave" xMin="10" yMin="-2" xMax="1375" yMax="1804">
      <contour>
        <pt x="755" y="580" on="1"/>
        <pt x="848" y="580" on="0"/>
        <pt x="848" y="593" on="1"/>
        <pt x="848" y="599" on="1"/>
        <pt x="848" y="642" on="0"/>
        <pt x="671" y="1084" on="1"/>
        <pt x="644" y="1151" on="0"/>
        <pt x="641" y="1151" on="1"/>
        <pt x="633" y="1151" on="0"/>
        <pt x="605" y="1066" on="0"/>
        <pt x="540" y="903" on="0"/>
        <pt x="516" y="825" on="0"/>
        <pt x="505" y="799" on="0"/>
        <pt x="492" y="757" on="0"/>
        <pt x="445" y="634" on="0"/>
        <pt x="445" y="600" on="1"/>
        <pt x="445" y="586" on="0"/>
        <pt x="469" y="586" on="1"/>
        <pt x="485" y="584" on="1"/>
        <pt x="607" y="580" on="1"/>
      </contour>
      <contour>
        <pt x="495" y="1804" on="1"/>
        <pt x="538" y="1804" on="0"/>
        <pt x="601" y="1748" on="1"/>
        <pt x="798" y="1573" on="0"/>
        <pt x="798" y="1518" on="1"/>
        <pt x="798" y="1509" on="1"/>
        <pt x="798" y="1480" on="0"/>
        <pt x="761" y="1480" on="1"/>
        <pt x="751" y="1482" on="0"/>
        <pt x="745" y="1482" on="1"/>
        <pt x="708" y="1482" on="0"/>
        <pt x="495" y="1624" on="1"/>
        <pt x="392" y="1693" on="0"/>
        <pt x="392" y="1733" on="1"/>
        <pt x="392" y="1748" on="1"/>
        <pt x="392" y="1802" on="0"/>
        <pt x="469" y="1802" on="1"/>
        <pt x="479" y="1804" on="1"/>
      </contour>
      <contour>
        <pt x="10" y="47" on="1"/>
        <pt x="10" y="73" on="0"/>
        <pt x="125" y="138" on="0"/>
        <pt x="151" y="193" on="1"/>
        <pt x="162" y="217" on="0"/>
        <pt x="253" y="464" on="0"/>
        <pt x="448" y="933" on="0"/>
        <pt x="491" y="1062" on="0"/>
        <pt x="548" y="1258" on="0"/>
        <pt x="563" y="1290" on="1"/>
        <pt x="604" y="1374" on="0"/>
        <pt x="690" y="1374" on="1"/>
        <pt x="787" y="1374" on="0"/>
        <pt x="885" y="1087" on="1"/>
        <pt x="958" y="870" on="0"/>
        <pt x="1131" y="435" on="0"/>
        <pt x="1201" y="237" on="0"/>
        <pt x="1254" y="129" on="0"/>
        <pt x="1298" y="103" on="1"/>
        <pt x="1375" y="59" on="0"/>
        <pt x="1375" y="33" on="1"/>
        <pt x="1375" y="-2" on="0"/>
        <pt x="1273" y="-2" on="1"/>
        <pt x="1124" y="-2" on="1"/>
        <pt x="978" y="-2" on="0"/>
        <pt x="916" y="22" on="0"/>
        <pt x="916" y="69" on="0"/>
        <pt x="992" y="133" on="0"/>
        <pt x="992" y="198" on="0"/>
        <pt x="897" y="428" on="0"/>
        <pt x="843" y="474" on="0"/>
        <pt x="440" y="474" on="0"/>
        <pt x="401" y="439" on="1"/>
        <pt x="377" y="417" on="0"/>
        <pt x="297" y="225" on="0"/>
        <pt x="297" y="118" on="0"/>
        <pt x="392" y="57" on="0"/>
        <pt x="392" y="44" on="1"/>
        <pt x="392" y="8" on="0"/>
        <pt x="282" y="8" on="1"/>
        <pt x="10" y="8" on="0"/>
      </contour>
    </TTGlyph>
    <TTGlyph name="Aring" xMin="13" yMin="-7" xMax="1344" yMax="1812">
      <contour>
        <pt x="560" y="1634" on="1"/>
        <pt x="560" y="1626" on="1"/>
        <pt x="561" y="1623" on="1"/>
        <pt x="561" y="1619" on="0"/>
        <pt x="561" y="1615" on="1"/>
        <pt x="563" y="1602" on="1"/>
        <pt x="563" y="1577" on="0"/>
        <pt x="619" y="1521" on="0"/>
        <pt x="647" y="1521" on="1"/>
        <pt x="665" y="1518" on="1"/>
        <pt x="684" y="1518" on="1"/>
        <pt x="715" y="1518" on="0"/>
        <pt x="780" y="1570" on="0"/>
        <pt x="780" y="1603" on="1"/>
        <pt x="783" y="1624" on="1"/>
        <pt x="783" y="1631" on="1"/>
        <pt x="783" y="1673" on="0"/>
        <pt x="720" y="1736" on="0"/>
        <pt x="670" y="1736" on="1"/>
        <pt x="666" y="1735" on="1"/>
        <pt x="627" y="1735" on="0"/>
        <pt x="560" y="1682" on="0"/>
      </contour>
      <contour>
        <pt x="799" y="554" on="1"/>
        <pt x="826" y="554" on="0"/>
        <pt x="826" y="564" on="1"/>
        <pt x="826" y="570" on="1"/>
        <pt x="826" y="576" on="0"/>
        <pt x="808" y="628" on="1"/>
        <pt x="786" y="697" on="1"/>
        <pt x="770" y="753" on="1"/>
        <pt x="765" y="769" on="0"/>
        <pt x="722" y="916" on="0"/>
        <pt x="674" y="1018" on="0"/>
        <pt x="641" y="1134" on="0"/>
        <pt x="633" y="1134" on="0"/>
        <pt x="439" y="590" on="0"/>
        <pt x="439" y="563" on="1"/>
        <pt x="439" y="554" on="0"/>
        <pt x="459" y="554" on="1"/>
        <pt x="505" y="554" on="1"/>
        <pt x="513" y="555" on="1"/>
        <pt x="686" y="557" on="1"/>
        <pt x="703" y="557" on="1"/>
        <pt x="776" y="554" on="1"/>
      </contour>
      <contour>
        <pt x="678" y="1441" on="1"/>
        <pt x="659" y="1441" on="1"/>
        <pt x="580" y="1441" on="0"/>
        <pt x="473" y="1548" on="0"/>
        <pt x="473" y="1625" on="1"/>
        <pt x="473" y="1631" on="1"/>
        <pt x="473" y="1708" on="0"/>
        <pt x="590" y="1812" on="0"/>
        <pt x="664" y="1812" on="1"/>
        <pt x="684" y="1812" on="1"/>
        <pt x="756" y="1812" on="0"/>
        <pt x="869" y="1711" on="0"/>
        <pt x="869" y="1641" on="1"/>
        <pt x="869" y="1616" on="1"/>
        <pt x="869" y="1540" on="0"/>
        <pt x="746" y="1441" on="0"/>
      </contour>
      <contour>
        <pt x="309" y="-1" on="1"/>
        <pt x="13" y="-1" on="0"/>
        <pt x="13" y="50" on="1"/>
        <pt x="13" y="67" on="0"/>
        <pt x="132" y="157" on="0"/>
        <pt x="161" y="221" on="1"/>
        <pt x="163" y="225" on="0"/>
        <pt x="275" y="533" on="0"/>
        <pt x="468" y="1023" on="0"/>
        <pt x="539" y="1260" on="0"/>
        <pt x="551" y="1284" on="1"/>
        <pt x="591" y="1362" on="0"/>
        <pt x="678" y="1362" on="1"/>
        <pt x="751" y="1362" on="0"/>
        <pt x="841" y="1163" on="1"/>
        <pt x="860" y="1122" on="0"/>
        <pt x="1177" y="229" on="0"/>
        <pt x="1224" y="129" on="0"/>
        <pt x="1268" y="104" on="1"/>
        <pt x="1344" y="60" on="0"/>
        <pt x="1344" y="33" on="1"/>
        <pt x="1344" y="-7" on="0"/>
        <pt x="1124" y="-7" on="1"/>
        <pt x="1063" y="-7" on="1"/>
        <pt x="953" y="-4" on="1"/>
        <pt x="892" y="-4" on="0"/>
        <pt x="892" y="55" on="0"/>
        <pt x="971" y="113" on="0"/>
        <pt x="971" y="203" on="0"/>
        <pt x="875" y="416" on="0"/>
        <pt x="830" y="461" on="0"/>
        <pt x="458" y="461" on="0"/>
        <pt x="392" y="427" on="0"/>
        <pt x="358" y="352" on="1"/>
        <pt x="292" y="206" on="0"/>
        <pt x="292" y="145" on="1"/>
        <pt x="292" y="111" on="0"/>
        <pt x="384" y="39" on="0"/>
        <pt x="384" y="29" on="1"/>
        <pt x="384" y="-1" on="0"/>
      </contour>
    </TTGlyph>
    <TTGlyph name="Atilde" xMin="10" yMin="-1" xMax="1375" yMax="1739">
      <contour>
        <pt x="519" y="584" on="1"/>
        <pt x="634" y="584" on="1"/>
        <pt x="643" y="585" on="1"/>
        <pt x="659" y="585" on="1"/>
        <pt x="849" y="585" on="0"/>
        <pt x="849" y="603" on="1"/>
        <pt x="849" y="651" on="0"/>
        <pt x="677" y="1081" on="1"/>
        <pt x="651" y="1147" on="0"/>
        <pt x="640" y="1147" on="0"/>
        <pt x="439" y="645" on="0"/>
        <pt x="439" y="603" on="1"/>
        <pt x="439" y="584" on="0"/>
      </contour>
      <contour>
        <pt x="565" y="1739" on="1"/>
        <pt x="580" y="1739" on="1"/>
        <pt x="619" y="1739" on="0"/>
        <pt x="811" y="1649" on="0"/>
        <pt x="883" y="1649" on="0"/>
        <pt x="923" y="1677" on="0"/>
        <pt x="979" y="1728" on="0"/>
        <pt x="987" y="1728" on="1"/>
        <pt x="1025" y="1728" on="0"/>
        <pt x="1025" y="1700" on="1"/>
        <pt x="1025" y="1692" on="1"/>
        <pt x="1025" y="1632" on="0"/>
        <pt x="895" y="1513" on="0"/>
        <pt x="841" y="1513" on="1"/>
        <pt x="809" y="1513" on="1"/>
        <pt x="762" y="1513" on="0"/>
        <pt x="584" y="1602" on="0"/>
        <pt x="497" y="1602" on="0"/>
        <pt x="402" y="1523" on="0"/>
        <pt x="393" y="1523" on="1"/>
        <pt x="362" y="1523" on="0"/>
        <pt x="362" y="1551" on="1"/>
        <pt x="362" y="1558" on="1"/>
        <pt x="362" y="1622" on="0"/>
        <pt x="452" y="1698" on="1"/>
        <pt x="500" y="1739" on="0"/>
      </contour>
      <contour>
        <pt x="10" y="51" on="1"/>
        <pt x="10" y="69" on="0"/>
        <pt x="85" y="116" on="1"/>
        <pt x="127" y="142" on="0"/>
        <pt x="183" y="268" on="0"/>
        <pt x="221" y="373" on="1"/>
        <pt x="258" y="478" on="0"/>
        <pt x="457" y="963" on="0"/>
        <pt x="567" y="1298" on="0"/>
        <pt x="578" y="1316" on="1"/>
        <pt x="615" y="1375" on="0"/>
        <pt x="692" y="1375" on="1"/>
        <pt x="762" y="1375" on="0"/>
        <pt x="844" y="1194" on="1"/>
        <pt x="857" y="1165" on="0"/>
        <pt x="983" y="814" on="0"/>
        <pt x="1234" y="168" on="0"/>
        <pt x="1241" y="157" on="1"/>
        <pt x="1264" y="119" on="0"/>
        <pt x="1375" y="69" on="0"/>
        <pt x="1375" y="-1" on="0"/>
        <pt x="1244" y="-1" on="1"/>
        <pt x="1124" y="-1" on="1"/>
        <pt x="916" y="-1" on="0"/>
        <pt x="916" y="37" on="1"/>
        <pt x="916" y="68" on="0"/>
        <pt x="992" y="132" on="0"/>
        <pt x="992" y="201" on="0"/>
        <pt x="902" y="422" on="0"/>
        <pt x="840" y="476" on="0"/>
        <pt x="439" y="476" on="0"/>
        <pt x="376" y="416" on="0"/>
        <pt x="296" y="211" on="0"/>
        <pt x="296" y="122" on="0"/>
        <pt x="392" y="55" on="0"/>
        <pt x="392" y="43" on="1"/>
        <pt x="392" y="8" on="0"/>
        <pt x="282" y="8" on="1"/>
        <pt x="10" y="8" on="0"/>
      </contour>
    </TTGlyph>
    <TTGlyph name="B" xMin="95" yMin="-10" xMax="1186" yMax="1388">
      <contour>
        <pt x="583" y="1297" on="1"/>
        <pt x="565" y="1297" on="1"/>
        <pt x="472" y="1297" on="0"/>
        <pt x="461" y="1262" on="1"/>
        <pt x="454" y="1238" on="0"/>
        <pt x="454" y="1124" on="1"/>
        <pt x="454" y="1001" on="1"/>
        <pt x="453" y="975" on="1"/>
        <pt x="453" y="877" on="1"/>
        <pt x="453" y="795" on="0"/>
        <pt x="479" y="767" on="0"/>
        <pt x="530" y="767" on="1"/>
        <pt x="601" y="767" on="1"/>
        <pt x="754" y="767" on="0"/>
        <pt x="823" y="825" on="1"/>
        <pt x="913" y="901" on="0"/>
        <pt x="913" y="1023" on="1"/>
        <pt x="913" y="1051" on="1"/>
        <pt x="913" y="1177" on="0"/>
        <pt x="810" y="1248" on="1"/>
        <pt x="739" y="1297" on="0"/>
      </contour>
      <contour>
        <pt x="642" y="676" on="1"/>
        <pt x="552" y="676" on="1"/>
        <pt x="472" y="676" on="0"/>
        <pt x="452" y="630" on="0"/>
        <pt x="452" y="490" on="1"/>
        <pt x="452" y="248" on="1"/>
        <pt x="452" y="136" on="0"/>
        <pt x="464" y="119" on="1"/>
        <pt x="487" y="86" on="0"/>
        <pt x="592" y="86" on="1"/>
        <pt x="654" y="86" on="1"/>
        <pt x="884" y="86" on="0"/>
        <pt x="956" y="236" on="1"/>
        <pt x="984" y="296" on="0"/>
        <pt x="984" y="364" on="1"/>
        <pt x="984" y="375" on="1"/>
        <pt x="983" y="386" on="1"/>
        <pt x="983" y="527" on="0"/>
        <pt x="797" y="676" on="0"/>
      </contour>
      <contour>
        <pt x="277" y="-3" on="1"/>
        <pt x="106" y="-3" on="0"/>
        <pt x="106" y="32" on="1"/>
        <pt x="106" y="62" on="0"/>
        <pt x="216" y="103" on="0"/>
        <pt x="249" y="190" on="0"/>
        <pt x="249" y="410" on="1"/>
        <pt x="250" y="436" on="1"/>
        <pt x="251" y="462" on="0"/>
        <pt x="251" y="488" on="1"/>
        <pt x="252" y="514" on="1"/>
        <pt x="252" y="567" on="1"/>
        <pt x="251" y="645" on="1"/>
        <pt x="251" y="685" on="0"/>
        <pt x="251" y="725" on="1"/>
        <pt x="251" y="1167" on="0"/>
        <pt x="229" y="1233" on="1"/>
        <pt x="215" y="1274" on="0"/>
        <pt x="95" y="1319" on="0"/>
        <pt x="95" y="1346" on="1"/>
        <pt x="95" y="1385" on="0"/>
        <pt x="305" y="1385" on="1"/>
        <pt x="460" y="1388" on="1"/>
        <pt x="617" y="1388" on="1"/>
        <pt x="848" y="1388" on="0"/>
        <pt x="1101" y="1217" on="0"/>
        <pt x="1101" y="1051" on="1"/>
        <pt x="1101" y="951" on="0"/>
        <pt x="1002" y="812" on="0"/>
        <pt x="886" y="741" on="0"/>
        <pt x="886" y="727" on="0"/>
        <pt x="990" y="679" on="0"/>
        <pt x="995" y="676" on="1"/>
        <pt x="1064" y="637" on="0"/>
        <pt x="1109" y="580" on="1"/>
        <pt x="1186" y="483" on="0"/>
        <pt x="1186" y="371" on="1"/>
        <pt x="1186" y="345" on="1"/>
        <pt x="1186" y="270" on="0"/>
        <pt x="1152" y="202" on="1"/>
        <pt x="1087" y="76" on="0"/>
        <pt x="923" y="24" on="1"/>
        <pt x="814" y="-10" on="0"/>
        <pt x="693" y="-10" on="1"/>
        <pt x="614" y="-10" on="1"/>
        <pt x="457" y="-6" on="1"/>
        <pt x="379" y="-3" on="1"/>
      </contour>
    </TTGlyph>
    <TTGlyph name="C" xMin="106" yMin="-15" xMax="1259" yMax="1404">
      <contour>
        <pt x="106" y="714" on="1"/>
        <pt x="106" y="846" on="0"/>
        <pt x="208" y="1114" on="0"/>
        <pt x="390" y="1309" on="0"/>
        <pt x="637" y="1404" on="0"/>
        <pt x="883" y="1404" on="0"/>
        <pt x="1069" y="1360" on="0"/>
        <pt x="1179" y="1352" on="0"/>
        <pt x="1194" y="1342" on="1"/>
        <pt x="1242" y="1311" on="0"/>
        <pt x="1242" y="1153" on="1"/>
        <pt x="1242" y="1040" on="0"/>
        <pt x="1184" y="1040" on="1"/>
        <pt x="1162" y="1040" on="0"/>
        <pt x="1051" y="1205" on="0"/>
        <pt x="1004" y="1233" on="1"/>
        <pt x="898" y="1296" on="0"/>
        <pt x="777" y="1296" on="1"/>
        <pt x="558" y="1296" on="0"/>
        <pt x="434" y="1115" on="1"/>
        <pt x="333" y="966" on="0"/>
        <pt x="333" y="731" on="1"/>
        <pt x="333" y="434" on="0"/>
        <pt x="444" y="278" on="1"/>
        <pt x="570" y="100" on="0"/>
        <pt x="809" y="100" on="1"/>
        <pt x="934" y="100" on="0"/>
        <pt x="1025" y="155" on="1"/>
        <pt x="1070" y="182" on="0"/>
        <pt x="1190" y="314" on="0"/>
        <pt x="1259" y="314" on="0"/>
        <pt x="1259" y="224" on="0"/>
        <pt x="1190" y="92" on="0"/>
        <pt x="1110" y="42" on="0"/>
        <pt x="881" y="-15" on="0"/>
        <pt x="800" y="-15" on="1"/>
        <pt x="730" y="-15" on="1"/>
        <pt x="603" y="-14" on="0"/>
        <pt x="480" y="38" on="1"/>
        <pt x="235" y="143" on="0"/>
        <pt x="149" y="405" on="1"/>
        <pt x="106" y="536" on="0"/>
        <pt x="106" y="678" on="1"/>
      </contour>
    </TTGlyph>
    <TTGlyph name="Ccedilla" xMin="96" yMin="-447" xMax="1215" yMax="1306">
      <contour>
        <pt x="96" y="494" on="0"/>
        <pt x="96" y="752" on="0"/>
        <pt x="138" y="883" on="1"/>
        <pt x="219" y="1137" on="0"/>
        <pt x="436" y="1244" on="1"/>
        <pt x="562" y="1306" on="0"/>
        <pt x="687" y="1306" on="1"/>
        <pt x="720" y="1306" on="1"/>
        <pt x="822" y="1306" on="0"/>
        <pt x="1006" y="1239" on="0"/>
        <pt x="1018" y="1238" on="1"/>
        <pt x="1121" y="1227" on="0"/>
        <pt x="1134" y="1222" on="1"/>
        <pt x="1205" y="1193" on="0"/>
        <pt x="1205" y="965" on="0"/>
        <pt x="1150" y="965" on="1"/>
        <pt x="1105" y="965" on="0"/>
        <pt x="945" y="1117" on="0"/>
        <pt x="913" y="1135" on="1"/>
        <pt x="820" y="1187" on="0"/>
        <pt x="712" y="1187" on="1"/>
        <pt x="510" y="1187" on="0"/>
        <pt x="291" y="876" on="0"/>
        <pt x="291" y="368" on="0"/>
        <pt x="415" y="217" on="1"/>
        <pt x="523" y="88" on="0"/>
        <pt x="708" y="88" on="1"/>
        <pt x="938" y="88" on="0"/>
        <pt x="1090" y="218" on="1"/>
        <pt x="1152" y="272" on="0"/>
        <pt x="1215" y="272" on="0"/>
        <pt x="1215" y="251" on="1"/>
        <pt x="1215" y="226" on="1"/>
        <pt x="1215" y="185" on="0"/>
        <pt x="1146" y="75" on="0"/>
        <pt x="1098" y="49" on="1"/>
        <pt x="921" y="-48" on="0"/>
        <pt x="760" y="-50" on="1"/>
        <pt x="767" y="-62" on="0"/>
        <pt x="794" y="-87" on="1"/>
        <pt x="831" y="-121" on="0"/>
        <pt x="843" y="-137" on="1"/>
        <pt x="902" y="-220" on="0"/>
        <pt x="902" y="-278" on="1"/>
        <pt x="902" y="-293" on="1"/>
        <pt x="901" y="-299" on="1"/>
        <pt x="901" y="-347" on="0"/>
        <pt x="734" y="-447" on="0"/>
        <pt x="646" y="-447" on="1"/>
        <pt x="636" y="-446" on="1"/>
        <pt x="560" y="-446" on="0"/>
        <pt x="560" y="-420" on="1"/>
        <pt x="560" y="-414" on="1"/>
        <pt x="560" y="-345" on="0"/>
        <pt x="601" y="-345" on="1"/>
        <pt x="611" y="-347" on="0"/>
        <pt x="617" y="-347" on="1"/>
        <pt x="618" y="-347" on="0"/>
        <pt x="619" y="-347" on="1"/>
        <pt x="729" y="-347" on="0"/>
        <pt x="729" y="-248" on="1"/>
        <pt x="729" y="-194" on="0"/>
        <pt x="641" y="-114" on="0"/>
        <pt x="641" y="-98" on="1"/>
        <pt x="641" y="-87" on="0"/>
        <pt x="665" y="-46" on="1"/>
        <pt x="556" y="-36" on="0"/>
        <pt x="470" y="-3" on="1"/>
        <pt x="350" y="44" on="0"/>
        <pt x="180" y="234" on="0"/>
      </contour>
    </TTGlyph>
    <TTGlyph name="D" xMin="111" yMin="-5" xMax="1388" yMax="1395">
      <contour>
        <pt x="647" y="1302" on="1"/>
        <pt x="597" y="1302" on="1"/>
        <pt x="484" y="1302" on="0"/>
        <pt x="470" y="1256" on="1"/>
        <pt x="464" y="1236" on="0"/>
        <pt x="464" y="968" on="1"/>
        <pt x="464" y="682" on="1"/>
        <pt x="463" y="648" on="1"/>
        <pt x="463" y="563" on="1"/>
        <pt x="462" y="528" on="1"/>
        <pt x="462" y="443" on="1"/>
        <pt x="461" y="374" on="1"/>
        <pt x="461" y="273" on="1"/>
        <pt x="461" y="160" on="0"/>
        <pt x="502" y="95" on="0"/>
        <pt x="618" y="95" on="1"/>
        <pt x="668" y="95" on="1"/>
        <pt x="1000" y="96" on="0"/>
        <pt x="1116" y="420" on="1"/>
        <pt x="1154" y="528" on="0"/>
        <pt x="1154" y="642" on="1"/>
        <pt x="1154" y="716" on="1"/>
        <pt x="1154" y="830" on="0"/>
        <pt x="1121" y="948" on="1"/>
        <pt x="1057" y="1176" on="0"/>
        <pt x="854" y="1264" on="1"/>
        <pt x="766" y="1302" on="0"/>
      </contour>
      <contour>
        <pt x="722" y="1395" on="1"/>
        <pt x="854" y="1395" on="0"/>
        <pt x="981" y="1351" on="1"/>
        <pt x="1108" y="1308" on="0"/>
        <pt x="1198" y="1218" on="1"/>
        <pt x="1388" y="1028" on="0"/>
        <pt x="1388" y="377" on="0"/>
        <pt x="1177" y="177" on="1"/>
        <pt x="983" y="-5" on="0"/>
        <pt x="665" y="-5" on="1"/>
        <pt x="641" y="-5" on="1"/>
        <pt x="616" y="-4" on="1"/>
        <pt x="516" y="-2" on="1"/>
        <pt x="491" y="-1" on="0"/>
        <pt x="466" y="-1" on="1"/>
        <pt x="393" y="1" on="1"/>
        <pt x="321" y="1" on="1"/>
        <pt x="119" y="1" on="0"/>
        <pt x="119" y="61" on="0"/>
        <pt x="245" y="112" on="0"/>
        <pt x="273" y="211" on="0"/>
        <pt x="273" y="1101" on="0"/>
        <pt x="245" y="1254" on="0"/>
        <pt x="208" y="1284" on="0"/>
        <pt x="111" y="1314" on="0"/>
        <pt x="111" y="1335" on="1"/>
        <pt x="111" y="1351" on="1"/>
        <pt x="111" y="1382" on="0"/>
        <pt x="299" y="1382" on="1"/>
        <pt x="644" y="1395" on="1"/>
      </contour>
    </TTGlyph>
    <TTGlyph name="E" xMin="122" yMin="-2" xMax="1170" yMax="1395">
      <contour>
        <pt x="128" y="1353" on="1"/>
        <pt x="128" y="1381" on="0"/>
        <pt x="212" y="1390" on="1"/>
        <pt x="251" y="1394" on="0"/>
        <pt x="640" y="1394" on="1"/>
        <pt x="938" y="1395" on="1"/>
        <pt x="1032" y="1395" on="0"/>
        <pt x="1117" y="1304" on="0"/>
        <pt x="1117" y="1191" on="1"/>
        <pt x="1117" y="1142" on="0"/>
        <pt x="1095" y="1142" on="1"/>
        <pt x="1086" y="1142" on="0"/>
        <pt x="997" y="1224" on="0"/>
        <pt x="956" y="1235" on="1"/>
        <pt x="821" y="1273" on="0"/>
        <pt x="656" y="1273" on="1"/>
        <pt x="569" y="1273" on="0"/>
        <pt x="487" y="1093" on="0"/>
        <pt x="487" y="940" on="1"/>
        <pt x="487" y="853" on="0"/>
        <pt x="592" y="782" on="0"/>
        <pt x="694" y="782" on="1"/>
        <pt x="732" y="782" on="0"/>
        <pt x="846" y="869" on="0"/>
        <pt x="892" y="869" on="0"/>
        <pt x="937" y="801" on="0"/>
        <pt x="937" y="605" on="0"/>
        <pt x="905" y="573" on="1"/>
        <pt x="880" y="561" on="1"/>
        <pt x="862" y="561" on="0"/>
        <pt x="773" y="625" on="1"/>
        <pt x="726" y="659" on="0"/>
        <pt x="536" y="659" on="0"/>
        <pt x="497" y="600" on="1"/>
        <pt x="471" y="561" on="0"/>
        <pt x="471" y="236" on="0"/>
        <pt x="525" y="163" on="1"/>
        <pt x="558" y="119" on="0"/>
        <pt x="872" y="119" on="0"/>
        <pt x="1031" y="181" on="0"/>
        <pt x="1137" y="280" on="0"/>
        <pt x="1150" y="280" on="1"/>
        <pt x="1170" y="280" on="0"/>
        <pt x="1170" y="248" on="1"/>
        <pt x="1170" y="69" on="0"/>
        <pt x="1096" y="21" on="1"/>
        <pt x="1061" y="-2" on="0"/>
        <pt x="767" y="-2" on="1"/>
        <pt x="590" y="-2" on="1"/>
        <pt x="247" y="-2" on="0"/>
        <pt x="122" y="12" on="0"/>
        <pt x="122" y="67" on="0"/>
        <pt x="218" y="132" on="0"/>
        <pt x="231" y="171" on="1"/>
        <pt x="255" y="242" on="0"/>
        <pt x="255" y="638" on="1"/>
        <pt x="259" y="1030" on="1"/>
        <pt x="259" y="1198" on="0"/>
        <pt x="235" y="1273" on="0"/>
        <pt x="128" y="1317" on="0"/>
      </contour>
    </TTGlyph>
    <TTGlyph name="Eacute" xMin="105" yMin="11" xMax="1149" yMax="1817">
      <contour>
        <pt x="928" y="1766" on="1"/>
        <pt x="928" y="1757" on="1"/>
        <pt x="927" y="1752" on="1"/>
        <pt x="927" y="1707" on="0"/>
        <pt x="810" y="1625" on="1"/>
        <pt x="601" y="1479" on="0"/>
        <pt x="575" y="1479" on="1"/>
        <pt x="570" y="1479" on="1"/>
        <pt x="525" y="1479" on="0"/>
        <pt x="525" y="1516" on="1"/>
        <pt x="525" y="1520" on="1"/>
        <pt x="525" y="1585" on="0"/>
        <pt x="733" y="1770" on="1"/>
        <pt x="786" y="1817" on="0"/>
        <pt x="831" y="1817" on="1"/>
        <pt x="837" y="1817" on="1"/>
        <pt x="928" y="1817" on="0"/>
      </contour>
      <contour>
        <pt x="849" y="885" on="1"/>
        <pt x="916" y="885" on="0"/>
        <pt x="916" y="554" on="0"/>
        <pt x="872" y="554" on="1"/>
        <pt x="834" y="554" on="0"/>
        <pt x="731" y="659" on="0"/>
        <pt x="673" y="659" on="1"/>
        <pt x="530" y="659" on="0"/>
        <pt x="487" y="603" on="1"/>
        <pt x="464" y="573" on="0"/>
        <pt x="464" y="457" on="1"/>
        <pt x="464" y="248" on="0"/>
        <pt x="518" y="169" on="1"/>
        <pt x="548" y="126" on="0"/>
        <pt x="698" y="126" on="1"/>
        <pt x="964" y="126" on="0"/>
        <pt x="1065" y="237" on="1"/>
        <pt x="1118" y="295" on="0"/>
        <pt x="1130" y="295" on="1"/>
        <pt x="1149" y="295" on="0"/>
        <pt x="1149" y="145" on="0"/>
        <pt x="1099" y="50" on="0"/>
        <pt x="1038" y="11" on="0"/>
        <pt x="792" y="11" on="1"/>
        <pt x="705" y="11" on="1"/>
        <pt x="661" y="12" on="1"/>
        <pt x="573" y="12" on="1"/>
        <pt x="222" y="12" on="0"/>
        <pt x="193" y="15" on="1"/>
        <pt x="105" y="24" on="0"/>
        <pt x="105" y="69" on="1"/>
        <pt x="105" y="72" on="0"/>
        <pt x="177" y="122" on="1"/>
        <pt x="217" y="150" on="0"/>
        <pt x="240" y="266" on="0"/>
        <pt x="240" y="1172" on="0"/>
        <pt x="210" y="1260" on="0"/>
        <pt x="105" y="1312" on="0"/>
        <pt x="105" y="1341" on="1"/>
        <pt x="105" y="1383" on="0"/>
        <pt x="388" y="1383" on="1"/>
        <pt x="775" y="1386" on="1"/>
        <pt x="862" y="1387" on="1"/>
        <pt x="996" y="1387" on="0"/>
        <pt x="1095" y="1308" on="0"/>
        <pt x="1095" y="1197" on="1"/>
        <pt x="1095" y="1140" on="0"/>
        <pt x="1076" y="1140" on="1"/>
        <pt x="1064" y="1140" on="0"/>
        <pt x="1014" y="1181" on="1"/>
        <pt x="905" y="1271" on="0"/>
        <pt x="677" y="1271" on="1"/>
        <pt x="563" y="1271" on="0"/>
        <pt x="527" y="1214" on="1"/>
        <pt x="470" y="1123" on="0"/>
        <pt x="470" y="942" on="1"/>
        <pt x="470" y="883" on="0"/>
        <pt x="500" y="847" on="1"/>
        <pt x="547" y="791" on="0"/>
        <pt x="651" y="791" on="1"/>
        <pt x="706" y="791" on="0"/>
        <pt x="760" y="821" on="0"/>
        <pt x="830" y="885" on="0"/>
      </contour>
    </TTGlyph>
    <TTGlyph name="Ecircumflex" xMin="100" yMin="-9" xMax="1156" yMax="1816">
      <contour>
        <pt x="385" y="1496" on="1"/>
        <pt x="371" y="1496" on="1"/>
        <pt x="338" y="1496" on="0"/>
        <pt x="338" y="1526" on="1"/>
        <pt x="338" y="1536" on="0"/>
        <pt x="477" y="1687" on="0"/>
        <pt x="487" y="1699" on="1"/>
        <pt x="586" y="1816" on="0"/>
        <pt x="634" y="1816" on="1"/>
        <pt x="650" y="1816" on="1"/>
        <pt x="697" y="1816" on="0"/>
        <pt x="797" y="1698" on="1"/>
        <pt x="943" y="1525" on="0"/>
        <pt x="943" y="1524" on="1"/>
        <pt x="943" y="1496" on="0"/>
        <pt x="902" y="1496" on="1"/>
        <pt x="895" y="1496" on="1"/>
        <pt x="865" y="1496" on="0"/>
        <pt x="649" y="1662" on="0"/>
        <pt x="632" y="1662" on="0"/>
        <pt x="416" y="1496" on="0"/>
      </contour>
      <contour>
        <pt x="547" y="106" on="0"/>
        <pt x="856" y="106" on="0"/>
        <pt x="965" y="149" on="1"/>
        <pt x="1020" y="171" on="0"/>
        <pt x="1121" y="277" on="0"/>
        <pt x="1156" y="277" on="0"/>
        <pt x="1156" y="244" on="1"/>
        <pt x="1156" y="211" on="1"/>
        <pt x="1156" y="94" on="0"/>
        <pt x="1067" y="-9" on="0"/>
        <pt x="970" y="-9" on="1"/>
        <pt x="927" y="-8" on="1"/>
        <pt x="840" y="-9" on="1"/>
        <pt x="575" y="-9" on="1"/>
        <pt x="219" y="-9" on="0"/>
        <pt x="189" y="-6" on="1"/>
        <pt x="103" y="3" on="0"/>
        <pt x="103" y="50" on="1"/>
        <pt x="103" y="55" on="0"/>
        <pt x="177" y="104" on="1"/>
        <pt x="213" y="128" on="0"/>
        <pt x="238" y="256" on="0"/>
        <pt x="238" y="1120" on="0"/>
        <pt x="215" y="1245" on="0"/>
        <pt x="179" y="1269" on="1"/>
        <pt x="100" y="1321" on="0"/>
        <pt x="100" y="1339" on="1"/>
        <pt x="100" y="1370" on="0"/>
        <pt x="177" y="1378" on="1"/>
        <pt x="215" y="1382" on="0"/>
        <pt x="562" y="1382" on="1"/>
        <pt x="736" y="1383" on="1"/>
        <pt x="866" y="1383" on="1"/>
        <pt x="1010" y="1383" on="0"/>
        <pt x="1048" y="1346" on="1"/>
        <pt x="1101" y="1294" on="0"/>
        <pt x="1101" y="1187" on="1"/>
        <pt x="1101" y="1131" on="0"/>
        <pt x="1080" y="1131" on="1"/>
        <pt x="1066" y="1132" on="0"/>
        <pt x="1024" y="1170" on="1"/>
        <pt x="920" y="1264" on="0"/>
        <pt x="693" y="1264" on="1"/>
        <pt x="562" y="1264" on="0"/>
        <pt x="525" y="1207" on="1"/>
        <pt x="466" y="1116" on="0"/>
        <pt x="466" y="931" on="1"/>
        <pt x="466" y="870" on="0"/>
        <pt x="497" y="836" on="1"/>
        <pt x="548" y="780" on="0"/>
        <pt x="651" y="780" on="1"/>
        <pt x="710" y="780" on="0"/>
        <pt x="745" y="801" on="1"/>
        <pt x="771" y="821" on="1"/>
        <pt x="795" y="846" on="1"/>
        <pt x="827" y="874" on="0"/>
        <pt x="876" y="874" on="0"/>
        <pt x="919" y="797" on="0"/>
        <pt x="919" y="700" on="1"/>
        <pt x="919" y="540" on="0"/>
        <pt x="874" y="540" on="1"/>
        <pt x="835" y="540" on="0"/>
        <pt x="731" y="646" on="0"/>
        <pt x="672" y="646" on="1"/>
        <pt x="524" y="646" on="0"/>
        <pt x="484" y="590" on="1"/>
        <pt x="462" y="559" on="0"/>
        <pt x="462" y="441" on="1"/>
        <pt x="462" y="227" on="0"/>
        <pt x="517" y="149" on="1"/>
      </contour>
    </TTGlyph>
    <TTGlyph name="Edieresis" xMin="100" yMin="-7" xMax="1150" yMax="1750">
      <contour>
        <pt x="453" y="1527" on="1"/>
        <pt x="424" y="1527" on="1"/>
        <pt x="412" y="1530" on="0"/>
        <pt x="384" y="1530" on="0"/>
        <pt x="331" y="1583" on="0"/>
        <pt x="331" y="1609" on="1"/>
        <pt x="328" y="1627" on="1"/>
        <pt x="328" y="1649" on="1"/>
        <pt x="328" y="1688" on="0"/>
        <pt x="387" y="1747" on="0"/>
        <pt x="415" y="1747" on="1"/>
        <pt x="437" y="1750" on="1"/>
        <pt x="448" y="1750" on="1"/>
        <pt x="460" y="1747" on="0"/>
        <pt x="495" y="1747" on="0"/>
        <pt x="548" y="1694" on="0"/>
        <pt x="548" y="1668" on="1"/>
        <pt x="551" y="1649" on="1"/>
        <pt x="551" y="1623" on="1"/>
        <pt x="549" y="1617" on="0"/>
        <pt x="549" y="1613" on="1"/>
        <pt x="549" y="1586" on="0"/>
        <pt x="490" y="1527" on="0"/>
      </contour>
      <contour>
        <pt x="804" y="1530" on="0"/>
        <pt x="776" y="1530" on="0"/>
        <pt x="718" y="1588" on="0"/>
        <pt x="718" y="1637" on="1"/>
        <pt x="718" y="1641" on="1"/>
        <pt x="718" y="1688" on="0"/>
        <pt x="777" y="1747" on="0"/>
        <pt x="805" y="1747" on="1"/>
        <pt x="823" y="1750" on="1"/>
        <pt x="845" y="1750" on="1"/>
        <pt x="857" y="1747" on="0"/>
        <pt x="863" y="1747" on="1"/>
        <pt x="892" y="1747" on="0"/>
        <pt x="943" y="1683" on="0"/>
        <pt x="943" y="1640" on="1"/>
        <pt x="942" y="1636" on="1"/>
        <pt x="942" y="1588" on="0"/>
        <pt x="884" y="1530" on="0"/>
        <pt x="856" y="1530" on="1"/>
        <pt x="838" y="1527" on="1"/>
        <pt x="816" y="1527" on="1"/>
      </contour>
      <contour>
        <pt x="835" y="871" on="1"/>
        <pt x="902" y="871" on="0"/>
        <pt x="902" y="627" on="0"/>
        <pt x="873" y="535" on="0"/>
        <pt x="828" y="535" on="1"/>
        <pt x="824" y="535" on="0"/>
        <pt x="751" y="599" on="1"/>
        <pt x="707" y="638" on="0"/>
        <pt x="511" y="638" on="0"/>
        <pt x="467" y="581" on="1"/>
        <pt x="442" y="549" on="0"/>
        <pt x="442" y="431" on="1"/>
        <pt x="442" y="236" on="0"/>
        <pt x="501" y="139" on="1"/>
        <pt x="528" y="95" on="0"/>
        <pt x="630" y="95" on="1"/>
        <pt x="946" y="95" on="0"/>
        <pt x="1061" y="212" on="1"/>
        <pt x="1118" y="270" on="0"/>
        <pt x="1126" y="270" on="1"/>
        <pt x="1150" y="270" on="0"/>
        <pt x="1150" y="208" on="1"/>
        <pt x="1150" y="99" on="0"/>
        <pt x="1098" y="36" on="1"/>
        <pt x="1063" y="-7" on="0"/>
        <pt x="968" y="-7" on="1"/>
        <pt x="925" y="-6" on="1"/>
        <pt x="446" y="-2" on="1"/>
        <pt x="234" y="-5" on="1"/>
        <pt x="107" y="-5" on="0"/>
        <pt x="107" y="48" on="1"/>
        <pt x="107" y="50" on="0"/>
        <pt x="176" y="103" on="1"/>
        <pt x="214" y="132" on="0"/>
        <pt x="240" y="255" on="0"/>
        <pt x="240" y="1159" on="0"/>
        <pt x="211" y="1252" on="0"/>
        <pt x="100" y="1300" on="0"/>
        <pt x="100" y="1370" on="0"/>
        <pt x="566" y="1370" on="1"/>
        <pt x="868" y="1373" on="1"/>
        <pt x="911" y="1374" on="1"/>
        <pt x="1009" y="1374" on="0"/>
        <pt x="1096" y="1302" on="0"/>
        <pt x="1096" y="1182" on="1"/>
        <pt x="1096" y="1123" on="0"/>
        <pt x="1053" y="1123" on="0"/>
        <pt x="1007" y="1169" on="1"/>
        <pt x="906" y="1270" on="0"/>
        <pt x="658" y="1270" on="1"/>
        <pt x="539" y="1270" on="0"/>
        <pt x="504" y="1214" on="1"/>
        <pt x="447" y="1123" on="0"/>
        <pt x="447" y="932" on="1"/>
        <pt x="447" y="843" on="0"/>
        <pt x="554" y="776" on="0"/>
        <pt x="685" y="776" on="0"/>
        <pt x="750" y="810" on="0"/>
        <pt x="821" y="871" on="0"/>
      </contour>
    </TTGlyph>
    <TTGlyph name="Egrave" xMin="107" yMin="-4" xMax="1157" yMax="1822">
      <contour>
        <pt x="351" y="1744" on="1"/>
        <pt x="351" y="1763" on="1"/>
        <pt x="351" y="1781" on="0"/>
        <pt x="398" y="1822" on="0"/>
        <pt x="442" y="1822" on="1"/>
        <pt x="447" y="1822" on="1"/>
        <pt x="497" y="1822" on="0"/>
        <pt x="568" y="1759" on="1"/>
        <pt x="760" y="1588" on="0"/>
        <pt x="760" y="1533" on="1"/>
        <pt x="760" y="1528" on="1"/>
        <pt x="760" y="1498" on="0"/>
        <pt x="730" y="1498" on="1"/>
        <pt x="714" y="1498" on="1"/>
        <pt x="660" y="1498" on="0"/>
        <pt x="447" y="1647" on="1"/>
        <pt x="351" y="1714" on="0"/>
      </contour>
      <contour>
        <pt x="843" y="874" on="1"/>
        <pt x="909" y="874" on="0"/>
        <pt x="909" y="629" on="0"/>
        <pt x="880" y="538" on="0"/>
        <pt x="835" y="538" on="1"/>
        <pt x="831" y="538" on="0"/>
        <pt x="714" y="641" on="0"/>
        <pt x="666" y="641" on="1"/>
        <pt x="519" y="641" on="0"/>
        <pt x="474" y="584" on="1"/>
        <pt x="449" y="552" on="0"/>
        <pt x="449" y="434" on="1"/>
        <pt x="449" y="238" on="0"/>
        <pt x="508" y="141" on="1"/>
        <pt x="534" y="98" on="0"/>
        <pt x="681" y="98" on="1"/>
        <pt x="952" y="98" on="0"/>
        <pt x="1072" y="218" on="1"/>
        <pt x="1126" y="272" on="0"/>
        <pt x="1133" y="272" on="1"/>
        <pt x="1157" y="272" on="0"/>
        <pt x="1157" y="105" on="0"/>
        <pt x="1105" y="39" on="1"/>
        <pt x="1071" y="-4" on="0"/>
        <pt x="976" y="-4" on="1"/>
        <pt x="933" y="-3" on="1"/>
        <pt x="410" y="0" on="1"/>
        <pt x="367" y="-1" on="1"/>
        <pt x="324" y="-2" on="0"/>
        <pt x="241" y="-2" on="1"/>
        <pt x="115" y="-2" on="0"/>
        <pt x="115" y="51" on="1"/>
        <pt x="115" y="53" on="0"/>
        <pt x="183" y="106" on="1"/>
        <pt x="221" y="136" on="0"/>
        <pt x="247" y="259" on="0"/>
        <pt x="247" y="1161" on="0"/>
        <pt x="217" y="1255" on="0"/>
        <pt x="107" y="1303" on="0"/>
        <pt x="107" y="1374" on="0"/>
        <pt x="229" y="1374" on="1"/>
        <pt x="271" y="1373" on="1"/>
        <pt x="314" y="1372" on="0"/>
        <pt x="357" y="1372" on="1"/>
        <pt x="660" y="1373" on="1"/>
        <pt x="833" y="1375" on="1"/>
        <pt x="918" y="1377" on="1"/>
        <pt x="1016" y="1377" on="0"/>
        <pt x="1103" y="1305" on="0"/>
        <pt x="1103" y="1185" on="1"/>
        <pt x="1103" y="1125" on="0"/>
        <pt x="1062" y="1125" on="0"/>
        <pt x="969" y="1212" on="0"/>
        <pt x="935" y="1226" on="1"/>
        <pt x="818" y="1273" on="0"/>
        <pt x="548" y="1273" on="0"/>
        <pt x="511" y="1216" on="1"/>
        <pt x="454" y="1128" on="0"/>
        <pt x="454" y="935" on="1"/>
        <pt x="454" y="847" on="0"/>
        <pt x="559" y="779" on="0"/>
        <pt x="694" y="779" on="0"/>
        <pt x="761" y="815" on="0"/>
        <pt x="829" y="874" on="0"/>
      </contour>
    </TTGlyph>
    <TTGlyph name="Eth" xMin="108" yMin="-4" xMax="1393" yMax="1386">
      <contour>
        <pt x="643" y="1295" on="1"/>
        <pt x="585" y="1295" on="1"/>
        <pt x="505" y="1295" on="0"/>
        <pt x="475" y="1225" on="0"/>
        <pt x="475" y="836" on="0"/>
        <pt x="488" y="806" on="1"/>
        <pt x="507" y="761" on="0"/>
        <pt x="729" y="761" on="0"/>
        <pt x="776" y="740" on="0"/>
        <pt x="776" y="692" on="1"/>
        <pt x="776" y="655" on="0"/>
        <pt x="519" y="635" on="0"/>
        <pt x="471" y="566" on="0"/>
        <pt x="471" y="343" on="1"/>
        <pt x="470" y="283" on="1"/>
        <pt x="470" y="245" on="1"/>
        <pt x="470" y="144" on="0"/>
        <pt x="524" y="84" on="0"/>
        <pt x="607" y="84" on="1"/>
        <pt x="646" y="84" on="1"/>
        <pt x="865" y="84" on="0"/>
        <pt x="987" y="217" on="1"/>
        <pt x="1140" y="382" on="0"/>
        <pt x="1140" y="626" on="1"/>
        <pt x="1140" y="712" on="1"/>
        <pt x="1140" y="978" on="0"/>
        <pt x="1014" y="1130" on="1"/>
        <pt x="946" y="1212" on="0"/>
        <pt x="769" y="1295" on="0"/>
      </contour>
      <contour>
        <pt x="114" y="1" on="0"/>
        <pt x="114" y="69" on="0"/>
        <pt x="235" y="118" on="0"/>
        <pt x="267" y="207" on="0"/>
        <pt x="267" y="362" on="1"/>
        <pt x="270" y="444" on="1"/>
        <pt x="271" y="472" on="0"/>
        <pt x="271" y="619" on="0"/>
        <pt x="238" y="646" on="0"/>
        <pt x="108" y="663" on="0"/>
        <pt x="108" y="754" on="0"/>
        <pt x="165" y="762" on="1"/>
        <pt x="247" y="774" on="0"/>
        <pt x="254" y="780" on="1"/>
        <pt x="271" y="794" on="0"/>
        <pt x="271" y="895" on="1"/>
        <pt x="269" y="949" on="1"/>
        <pt x="268" y="1003" on="1"/>
        <pt x="268" y="1169" on="0"/>
        <pt x="231" y="1272" on="0"/>
        <pt x="188" y="1290" on="1"/>
        <pt x="116" y="1320" on="0"/>
        <pt x="116" y="1342" on="1"/>
        <pt x="116" y="1376" on="0"/>
        <pt x="227" y="1376" on="1"/>
        <pt x="358" y="1379" on="1"/>
        <pt x="437" y="1382" on="1"/>
        <pt x="490" y="1384" on="0"/>
        <pt x="518" y="1384" on="1"/>
        <pt x="572" y="1386" on="1"/>
        <pt x="655" y="1386" on="1"/>
        <pt x="1185" y="1386" on="0"/>
        <pt x="1342" y="998" on="1"/>
        <pt x="1393" y="872" on="0"/>
        <pt x="1393" y="713" on="1"/>
        <pt x="1393" y="366" on="0"/>
        <pt x="992" y="-4" on="0"/>
        <pt x="662" y="-4" on="1"/>
        <pt x="549" y="-4" on="1"/>
        <pt x="522" y="-3" on="1"/>
        <pt x="259" y="1" on="1"/>
      </contour>
    </TTGlyph>
    <TTGlyph name="Euro" xMin="86" yMin="-11" xMax="1183" yMax="1361">
      <contour>
        <pt x="192" y="664" on="1"/>
        <pt x="192" y="708" on="0"/>
        <pt x="93" y="772" on="0"/>
        <pt x="93" y="787" on="1"/>
        <pt x="93" y="795" on="0"/>
        <pt x="216" y="910" on="0"/>
        <pt x="350" y="1164" on="0"/>
        <pt x="485" y="1282" on="0"/>
        <pt x="672" y="1361" on="0"/>
        <pt x="771" y="1361" on="1"/>
        <pt x="814" y="1361" on="1"/>
        <pt x="982" y="1361" on="0"/>
        <pt x="1096" y="1306" on="1"/>
        <pt x="1132" y="1289" on="0"/>
        <pt x="1183" y="1205" on="0"/>
        <pt x="1183" y="1160" on="1"/>
        <pt x="1183" y="1086" on="0"/>
        <pt x="1127" y="1086" on="1"/>
        <pt x="1105" y="1086" on="0"/>
        <pt x="926" y="1210" on="0"/>
        <pt x="712" y="1210" on="0"/>
        <pt x="534" y="1072" on="0"/>
        <pt x="534" y="968" on="1"/>
        <pt x="534" y="918" on="0"/>
        <pt x="617" y="882" on="1"/>
        <pt x="644" y="871" on="0"/>
        <pt x="898" y="828" on="0"/>
        <pt x="898" y="794" on="1"/>
        <pt x="889" y="780" on="1"/>
        <pt x="847" y="743" on="0"/>
        <pt x="607" y="743" on="1"/>
        <pt x="528" y="743" on="0"/>
        <pt x="445" y="713" on="0"/>
        <pt x="445" y="662" on="1"/>
        <pt x="458" y="637" on="1"/>
        <pt x="492" y="600" on="0"/>
        <pt x="848" y="600" on="0"/>
        <pt x="848" y="550" on="1"/>
        <pt x="848" y="516" on="0"/>
        <pt x="606" y="459" on="0"/>
        <pt x="584" y="445" on="1"/>
        <pt x="538" y="417" on="0"/>
        <pt x="538" y="328" on="0"/>
        <pt x="596" y="232" on="0"/>
        <pt x="737" y="142" on="0"/>
        <pt x="859" y="142" on="1"/>
        <pt x="885" y="142" on="0"/>
        <pt x="1126" y="221" on="0"/>
        <pt x="1128" y="221" on="1"/>
        <pt x="1163" y="221" on="0"/>
        <pt x="1163" y="186" on="1"/>
        <pt x="1163" y="168" on="0"/>
        <pt x="1097" y="80" on="0"/>
        <pt x="1047" y="51" on="1"/>
        <pt x="939" y="-11" on="0"/>
        <pt x="806" y="-11" on="1"/>
        <pt x="762" y="-11" on="1"/>
        <pt x="657" y="-11" on="0"/>
        <pt x="471" y="60" on="0"/>
        <pt x="344" y="171" on="0"/>
        <pt x="202" y="437" on="0"/>
        <pt x="165" y="472" on="1"/>
        <pt x="117" y="512" on="1"/>
        <pt x="86" y="539" on="0"/>
        <pt x="86" y="547" on="1"/>
        <pt x="86" y="574" on="0"/>
        <pt x="192" y="644" on="0"/>
      </contour>
    </TTGlyph>
    <TTGlyph name="F" xMin="119" yMin="-6" xMax="1126" yMax="1399">
      <contour>
        <pt x="1126" y="1182" on="1"/>
        <pt x="1126" y="1116" on="0"/>
        <pt x="1088" y="1116" on="1"/>
        <pt x="1084" y="1116" on="0"/>
        <pt x="1064" y="1141" on="1"/>
        <pt x="1036" y="1177" on="1"/>
        <pt x="945" y="1284" on="0"/>
        <pt x="712" y="1284" on="1"/>
        <pt x="560" y="1284" on="0"/>
        <pt x="480" y="1142" on="0"/>
        <pt x="480" y="855" on="0"/>
        <pt x="552" y="770" on="0"/>
        <pt x="672" y="770" on="1"/>
        <pt x="735" y="770" on="0"/>
        <pt x="854" y="853" on="0"/>
        <pt x="874" y="853" on="1"/>
        <pt x="930" y="853" on="0"/>
        <pt x="930" y="698" on="1"/>
        <pt x="930" y="636" on="0"/>
        <pt x="892" y="553" on="0"/>
        <pt x="856" y="553" on="1"/>
        <pt x="844" y="553" on="0"/>
        <pt x="727" y="614" on="0"/>
        <pt x="676" y="614" on="1"/>
        <pt x="555" y="614" on="0"/>
        <pt x="507" y="550" on="1"/>
        <pt x="485" y="521" on="0"/>
        <pt x="485" y="261" on="0"/>
        <pt x="527" y="103" on="0"/>
        <pt x="557" y="65" on="0"/>
        <pt x="586" y="37" on="0"/>
        <pt x="586" y="32" on="1"/>
        <pt x="586" y="-6" on="0"/>
        <pt x="444" y="-6" on="1"/>
        <pt x="373" y="-6" on="1"/>
        <pt x="240" y="-6" on="0"/>
        <pt x="130" y="26" on="0"/>
        <pt x="130" y="63" on="1"/>
        <pt x="130" y="73" on="0"/>
        <pt x="231" y="141" on="0"/>
        <pt x="254" y="209" on="0"/>
        <pt x="254" y="491" on="1"/>
        <pt x="262" y="925" on="1"/>
        <pt x="262" y="1173" on="0"/>
        <pt x="239" y="1237" on="1"/>
        <pt x="227" y="1269" on="0"/>
        <pt x="119" y="1336" on="0"/>
        <pt x="119" y="1358" on="1"/>
        <pt x="119" y="1390" on="0"/>
        <pt x="353" y="1390" on="1"/>
        <pt x="570" y="1393" on="1"/>
        <pt x="643" y="1395" on="1"/>
        <pt x="680" y="1396" on="0"/>
        <pt x="716" y="1396" on="1"/>
        <pt x="971" y="1399" on="1"/>
        <pt x="1054" y="1399" on="0"/>
        <pt x="1126" y="1317" on="0"/>
      </contour>
    </TTGlyph>
    <TTGlyph name="G" xMin="109" yMin="-23" xMax="1350" yMax="1401">
      <contour>
        <pt x="800" y="1401" on="1"/>
        <pt x="831" y="1401" on="0"/>
        <pt x="1079" y="1367" on="1"/>
        <pt x="1115" y="1363" on="1"/>
        <pt x="1149" y="1360" on="1"/>
        <pt x="1197" y="1355" on="0"/>
        <pt x="1212" y="1349" on="1"/>
        <pt x="1276" y="1323" on="0"/>
        <pt x="1276" y="1168" on="1"/>
        <pt x="1276" y="1049" on="0"/>
        <pt x="1210" y="1049" on="1"/>
        <pt x="1191" y="1049" on="0"/>
        <pt x="1081" y="1209" on="0"/>
        <pt x="1037" y="1236" on="1"/>
        <pt x="934" y="1298" on="0"/>
        <pt x="769" y="1298" on="1"/>
        <pt x="674" y="1298" on="0"/>
        <pt x="588" y="1248" on="1"/>
        <pt x="330" y="1101" on="0"/>
        <pt x="330" y="683" on="1"/>
        <pt x="330" y="558" on="0"/>
        <pt x="409" y="317" on="0"/>
        <pt x="553" y="165" on="0"/>
        <pt x="713" y="102" on="0"/>
        <pt x="969" y="102" on="0"/>
        <pt x="1084" y="228" on="0"/>
        <pt x="1084" y="401" on="1"/>
        <pt x="1084" y="467" on="0"/>
        <pt x="1045" y="511" on="1"/>
        <pt x="1034" y="524" on="0"/>
        <pt x="960" y="572" on="0"/>
        <pt x="960" y="585" on="1"/>
        <pt x="960" y="625" on="0"/>
        <pt x="1350" y="625" on="0"/>
        <pt x="1350" y="576" on="1"/>
        <pt x="1350" y="565" on="0"/>
        <pt x="1297" y="488" on="0"/>
        <pt x="1285" y="421" on="0"/>
        <pt x="1279" y="254" on="0"/>
        <pt x="1269" y="126" on="0"/>
        <pt x="1208" y="69" on="0"/>
        <pt x="896" y="-23" on="0"/>
        <pt x="768" y="-23" on="1"/>
        <pt x="640" y="-22" on="0"/>
        <pt x="514" y="26" on="1"/>
        <pt x="259" y="125" on="0"/>
        <pt x="161" y="385" on="1"/>
        <pt x="109" y="524" on="0"/>
        <pt x="109" y="669" on="1"/>
        <pt x="109" y="711" on="1"/>
        <pt x="109" y="713" on="0"/>
        <pt x="109" y="716" on="1"/>
        <pt x="109" y="854" on="0"/>
        <pt x="164" y="990" on="1"/>
        <pt x="271" y="1256" on="0"/>
        <pt x="517" y="1350" on="1"/>
        <pt x="649" y="1401" on="0"/>
      </contour>
    </TTGlyph>
    <TTGlyph name="H" xMin="112" yMin="-6" xMax="1500" yMax="1387">
      <contour>
        <pt x="1494" y="40" on="1"/>
        <pt x="1494" y="-3" on="0"/>
        <pt x="1046" y="-3" on="0"/>
        <pt x="1046" y="38" on="1"/>
        <pt x="1046" y="64" on="0"/>
        <pt x="1068" y="85" on="1"/>
        <pt x="1128" y="142" on="0"/>
        <pt x="1145" y="194" on="0"/>
        <pt x="1145" y="610" on="0"/>
        <pt x="1055" y="667" on="0"/>
        <pt x="561" y="667" on="0"/>
        <pt x="510" y="631" on="1"/>
        <pt x="480" y="610" on="0"/>
        <pt x="480" y="174" on="0"/>
        <pt x="502" y="118" on="0"/>
        <pt x="577" y="40" on="0"/>
        <pt x="577" y="25" on="1"/>
        <pt x="577" y="-6" on="0"/>
        <pt x="388" y="-6" on="1"/>
        <pt x="340" y="-5" on="1"/>
        <pt x="292" y="-5" on="1"/>
        <pt x="112" y="-5" on="0"/>
        <pt x="112" y="45" on="1"/>
        <pt x="112" y="69" on="0"/>
        <pt x="233" y="131" on="0"/>
        <pt x="263" y="226" on="0"/>
        <pt x="263" y="1124" on="0"/>
        <pt x="236" y="1263" on="0"/>
        <pt x="192" y="1288" on="1"/>
        <pt x="115" y="1333" on="0"/>
        <pt x="115" y="1346" on="1"/>
        <pt x="115" y="1387" on="0"/>
        <pt x="408" y="1387" on="1"/>
        <pt x="578" y="1387" on="0"/>
        <pt x="578" y="1351" on="1"/>
        <pt x="578" y="1325" on="0"/>
        <pt x="554" y="1306" on="1"/>
        <pt x="495" y="1258" on="0"/>
        <pt x="477" y="1196" on="0"/>
        <pt x="477" y="833" on="0"/>
        <pt x="562" y="779" on="0"/>
        <pt x="1065" y="779" on="0"/>
        <pt x="1132" y="827" on="0"/>
        <pt x="1132" y="960" on="1"/>
        <pt x="1133" y="1007" on="1"/>
        <pt x="1135" y="1054" on="1"/>
        <pt x="1136" y="1085" on="0"/>
        <pt x="1136" y="1216" on="0"/>
        <pt x="1104" y="1258" on="1"/>
        <pt x="1058" y="1304" on="1"/>
        <pt x="1031" y="1332" on="0"/>
        <pt x="1031" y="1348" on="1"/>
        <pt x="1031" y="1385" on="0"/>
        <pt x="1361" y="1385" on="1"/>
        <pt x="1500" y="1385" on="0"/>
        <pt x="1500" y="1345" on="1"/>
        <pt x="1500" y="1318" on="0"/>
        <pt x="1460" y="1295" on="1"/>
        <pt x="1383" y="1250" on="0"/>
        <pt x="1363" y="1188" on="0"/>
        <pt x="1363" y="842" on="1"/>
        <pt x="1356" y="298" on="1"/>
        <pt x="1356" y="169" on="0"/>
        <pt x="1387" y="127" on="1"/>
        <pt x="1400" y="109" on="0"/>
        <pt x="1494" y="57" on="0"/>
      </contour>
    </TTGlyph>
    <TTGlyph name="I" xMin="112" yMin="-4" xMax="645" yMax="1389">
      <contour>
        <pt x="568" y="1389" on="1"/>
        <pt x="633" y="1389" on="0"/>
        <pt x="633" y="1357" on="1"/>
        <pt x="633" y="1332" on="0"/>
        <pt x="526" y="1280" on="0"/>
        <pt x="494" y="1196" on="0"/>
        <pt x="494" y="907" on="1"/>
        <pt x="494" y="862" on="1"/>
        <pt x="495" y="817" on="1"/>
        <pt x="495" y="772" on="1"/>
        <pt x="494" y="750" on="1"/>
        <pt x="493" y="727" on="0"/>
        <pt x="493" y="704" on="1"/>
        <pt x="491" y="659" on="1"/>
        <pt x="490" y="613" on="1"/>
        <pt x="490" y="522" on="1"/>
        <pt x="491" y="453" on="1"/>
        <pt x="493" y="362" on="1"/>
        <pt x="495" y="317" on="1"/>
        <pt x="496" y="294" on="0"/>
        <pt x="496" y="273" on="1"/>
        <pt x="496" y="159" on="0"/>
        <pt x="526" y="120" on="1"/>
        <pt x="542" y="99" on="0"/>
        <pt x="645" y="63" on="0"/>
        <pt x="645" y="38" on="1"/>
        <pt x="645" y="-4" on="0"/>
        <pt x="581" y="-4" on="1"/>
        <pt x="537" y="-4" on="1"/>
        <pt x="514" y="-3" on="1"/>
        <pt x="492" y="-2" on="0"/>
        <pt x="469" y="-2" on="1"/>
        <pt x="424" y="0" on="1"/>
        <pt x="402" y="1" on="0"/>
        <pt x="379" y="1" on="1"/>
        <pt x="290" y="-1" on="1"/>
        <pt x="117" y="-1" on="0"/>
        <pt x="117" y="34" on="1"/>
        <pt x="117" y="61" on="0"/>
        <pt x="235" y="115" on="0"/>
        <pt x="248" y="151" on="1"/>
        <pt x="274" y="223" on="0"/>
        <pt x="274" y="515" on="1"/>
        <pt x="274" y="560" on="1"/>
        <pt x="273" y="627" on="1"/>
        <pt x="273" y="650" on="0"/>
        <pt x="273" y="673" on="1"/>
        <pt x="274" y="695" on="1"/>
        <pt x="275" y="718" on="0"/>
        <pt x="275" y="741" on="1"/>
        <pt x="277" y="786" on="1"/>
        <pt x="278" y="809" on="0"/>
        <pt x="278" y="854" on="1"/>
        <pt x="277" y="899" on="1"/>
        <pt x="276" y="922" on="1"/>
        <pt x="275" y="990" on="1"/>
        <pt x="275" y="1171" on="0"/>
        <pt x="248" y="1240" on="1"/>
        <pt x="232" y="1280" on="0"/>
        <pt x="189" y="1295" on="1"/>
        <pt x="112" y="1322" on="0"/>
        <pt x="112" y="1347" on="1"/>
        <pt x="112" y="1387" on="0"/>
        <pt x="266" y="1387" on="1"/>
        <pt x="309" y="1386" on="1"/>
        <pt x="331" y="1385" on="1"/>
        <pt x="395" y="1385" on="1"/>
        <pt x="524" y="1389" on="1"/>
      </contour>
    </TTGlyph>
    <TTGlyph name="Iacute" xMin="100" yMin="11" xMax="656" yMax="1821">
      <contour>
        <pt x="256" y="1508" on="1"/>
        <pt x="256" y="1522" on="1"/>
        <pt x="256" y="1536" on="0"/>
        <pt x="324" y="1622" on="1"/>
        <pt x="479" y="1821" on="0"/>
        <pt x="565" y="1821" on="1"/>
        <pt x="566" y="1821" on="1"/>
        <pt x="571" y="1820" on="1"/>
        <pt x="602" y="1820" on="0"/>
        <pt x="656" y="1778" on="0"/>
        <pt x="656" y="1751" on="1"/>
        <pt x="656" y="1741" on="1"/>
        <pt x="656" y="1704" on="0"/>
        <pt x="548" y="1628" on="1"/>
        <pt x="332" y="1477" on="0"/>
        <pt x="299" y="1477" on="1"/>
        <pt x="284" y="1477" on="1"/>
        <pt x="256" y="1477" on="0"/>
      </contour>
      <contour>
        <pt x="480" y="704" on="1"/>
        <pt x="480" y="682" on="0"/>
        <pt x="480" y="660" on="1"/>
        <pt x="479" y="615" on="1"/>
        <pt x="479" y="458" on="1"/>
        <pt x="480" y="414" on="1"/>
        <pt x="480" y="392" on="0"/>
        <pt x="480" y="370" on="1"/>
        <pt x="481" y="348" on="1"/>
        <pt x="482" y="326" on="0"/>
        <pt x="482" y="186" on="0"/>
        <pt x="520" y="116" on="0"/>
        <pt x="637" y="80" on="0"/>
        <pt x="637" y="54" on="1"/>
        <pt x="637" y="11" on="0"/>
        <pt x="554" y="11" on="1"/>
        <pt x="532" y="11" on="1"/>
        <pt x="509" y="12" on="1"/>
        <pt x="443" y="13" on="1"/>
        <pt x="356" y="13" on="1"/>
        <pt x="223" y="11" on="1"/>
        <pt x="179" y="11" on="1"/>
        <pt x="102" y="11" on="0"/>
        <pt x="102" y="58" on="1"/>
        <pt x="102" y="76" on="0"/>
        <pt x="210" y="122" on="0"/>
        <pt x="223" y="143" on="1"/>
        <pt x="251" y="189" on="0"/>
        <pt x="251" y="339" on="1"/>
        <pt x="253" y="383" on="1"/>
        <pt x="254" y="426" on="1"/>
        <pt x="254" y="471" on="1"/>
        <pt x="255" y="493" on="1"/>
        <pt x="255" y="625" on="1"/>
        <pt x="256" y="735" on="1"/>
        <pt x="256" y="1142" on="0"/>
        <pt x="229" y="1272" on="0"/>
        <pt x="178" y="1293" on="1"/>
        <pt x="100" y="1325" on="0"/>
        <pt x="100" y="1346" on="1"/>
        <pt x="100" y="1377" on="0"/>
        <pt x="142" y="1384" on="1"/>
        <pt x="155" y="1386" on="0"/>
        <pt x="381" y="1386" on="1"/>
        <pt x="513" y="1388" on="1"/>
        <pt x="557" y="1388" on="1"/>
        <pt x="632" y="1388" on="0"/>
        <pt x="632" y="1339" on="1"/>
        <pt x="632" y="1324" on="0"/>
        <pt x="512" y="1270" on="0"/>
        <pt x="500" y="1222" on="1"/>
        <pt x="480" y="1144" on="0"/>
      </contour>
    </TTGlyph>
    <TTGlyph name="Icircumflex" xMin="68" yMin="-9" xMax="671" yMax="1818">
      <contour>
        <pt x="114" y="1498" on="1"/>
        <pt x="100" y="1498" on="1"/>
        <pt x="68" y="1498" on="0"/>
        <pt x="68" y="1528" on="1"/>
        <pt x="68" y="1543" on="0"/>
        <pt x="162" y="1637" on="0"/>
        <pt x="206" y="1689" on="1"/>
        <pt x="315" y="1818" on="0"/>
        <pt x="364" y="1818" on="1"/>
        <pt x="379" y="1818" on="1"/>
        <pt x="416" y="1818" on="0"/>
        <pt x="671" y="1541" on="0"/>
        <pt x="671" y="1525" on="1"/>
        <pt x="671" y="1498" on="0"/>
        <pt x="630" y="1498" on="1"/>
        <pt x="622" y="1498" on="1"/>
        <pt x="592" y="1498" on="0"/>
        <pt x="377" y="1664" on="0"/>
        <pt x="363" y="1664" on="0"/>
        <pt x="147" y="1498" on="0"/>
      </contour>
      <contour>
        <pt x="636" y="1348" on="1"/>
        <pt x="636" y="1318" on="0"/>
        <pt x="514" y="1266" on="0"/>
        <pt x="482" y="1139" on="0"/>
        <pt x="482" y="205" on="0"/>
        <pt x="513" y="104" on="0"/>
        <pt x="562" y="86" on="1"/>
        <pt x="641" y="57" on="0"/>
        <pt x="641" y="34" on="1"/>
        <pt x="641" y="-9" on="0"/>
        <pt x="557" y="-9" on="1"/>
        <pt x="512" y="-9" on="1"/>
        <pt x="490" y="-8" on="1"/>
        <pt x="445" y="-7" on="1"/>
        <pt x="357" y="-7" on="1"/>
        <pt x="246" y="-9" on="1"/>
        <pt x="179" y="-9" on="1"/>
        <pt x="102" y="-9" on="0"/>
        <pt x="102" y="58" on="0"/>
        <pt x="213" y="102" on="0"/>
        <pt x="227" y="126" on="1"/>
        <pt x="254" y="170" on="0"/>
        <pt x="254" y="347" on="1"/>
        <pt x="256" y="391" on="1"/>
        <pt x="256" y="413" on="0"/>
        <pt x="256" y="435" on="1"/>
        <pt x="257" y="480" on="1"/>
        <pt x="257" y="725" on="1"/>
        <pt x="257" y="1164" on="0"/>
        <pt x="225" y="1269" on="0"/>
        <pt x="178" y="1288" on="1"/>
        <pt x="99" y="1321" on="0"/>
        <pt x="99" y="1341" on="1"/>
        <pt x="99" y="1373" on="0"/>
        <pt x="142" y="1380" on="1"/>
        <pt x="155" y="1382" on="0"/>
        <pt x="384" y="1382" on="1"/>
        <pt x="494" y="1384" on="1"/>
        <pt x="562" y="1384" on="1"/>
        <pt x="636" y="1384" on="0"/>
      </contour>
    </TTGlyph>
    <TTGlyph name="Idieresis" xMin="60" yMin="-12" xMax="673" yMax="1750">
      <contour>
        <pt x="182" y="1527" on="1"/>
        <pt x="156" y="1527" on="1"/>
        <pt x="119" y="1527" on="0"/>
        <pt x="60" y="1586" on="0"/>
        <pt x="60" y="1630" on="1"/>
        <pt x="60" y="1645" on="1"/>
        <pt x="60" y="1687" on="0"/>
        <pt x="122" y="1749" on="0"/>
        <pt x="158" y="1749" on="1"/>
        <pt x="187" y="1749" on="1"/>
        <pt x="209" y="1745" on="1"/>
        <pt x="229" y="1745" on="0"/>
        <pt x="280" y="1694" on="0"/>
        <pt x="280" y="1668" on="1"/>
        <pt x="282" y="1660" on="0"/>
        <pt x="282" y="1657" on="1"/>
        <pt x="284" y="1638" on="1"/>
        <pt x="284" y="1635" on="1"/>
        <pt x="284" y="1589" on="0"/>
        <pt x="222" y="1527" on="0"/>
      </contour>
      <contour>
        <pt x="550" y="1527" on="1"/>
        <pt x="509" y="1527" on="0"/>
        <pt x="449" y="1587" on="0"/>
        <pt x="449" y="1630" on="1"/>
        <pt x="449" y="1645" on="1"/>
        <pt x="453" y="1670" on="1"/>
        <pt x="453" y="1692" on="0"/>
        <pt x="506" y="1745" on="0"/>
        <pt x="528" y="1745" on="1"/>
        <pt x="557" y="1750" on="1"/>
        <pt x="568" y="1750" on="1"/>
        <pt x="613" y="1750" on="0"/>
        <pt x="673" y="1690" on="0"/>
        <pt x="673" y="1647" on="1"/>
        <pt x="673" y="1632" on="1"/>
        <pt x="669" y="1607" on="1"/>
        <pt x="669" y="1585" on="0"/>
        <pt x="614" y="1530" on="0"/>
        <pt x="587" y="1530" on="1"/>
        <pt x="565" y="1527" on="1"/>
      </contour>
      <contour>
        <pt x="549" y="1381" on="1"/>
        <pt x="620" y="1381" on="0"/>
        <pt x="620" y="1313" on="0"/>
        <pt x="494" y="1261" on="0"/>
        <pt x="469" y="1122" on="0"/>
        <pt x="469" y="218" on="0"/>
        <pt x="493" y="102" on="0"/>
        <pt x="545" y="83" on="1"/>
        <pt x="628" y="53" on="0"/>
        <pt x="628" y="31" on="1"/>
        <pt x="628" y="-12" on="0"/>
        <pt x="548" y="-12" on="1"/>
        <pt x="505" y="-12" on="1"/>
        <pt x="483" y="-11" on="1"/>
        <pt x="440" y="-10" on="1"/>
        <pt x="354" y="-10" on="1"/>
        <pt x="247" y="-12" on="1"/>
        <pt x="182" y="-12" on="1"/>
        <pt x="109" y="-12" on="0"/>
        <pt x="109" y="54" on="0"/>
        <pt x="220" y="103" on="0"/>
        <pt x="232" y="122" on="1"/>
        <pt x="256" y="162" on="0"/>
        <pt x="256" y="320" on="1"/>
        <pt x="258" y="365" on="1"/>
        <pt x="258" y="387" on="0"/>
        <pt x="258" y="409" on="1"/>
        <pt x="260" y="476" on="1"/>
        <pt x="260" y="744" on="1"/>
        <pt x="260" y="1148" on="0"/>
        <pt x="236" y="1265" on="0"/>
        <pt x="185" y="1284" on="1"/>
        <pt x="104" y="1314" on="0"/>
        <pt x="104" y="1338" on="1"/>
        <pt x="104" y="1371" on="0"/>
        <pt x="143" y="1377" on="1"/>
        <pt x="155" y="1379" on="0"/>
        <pt x="377" y="1379" on="1"/>
        <pt x="484" y="1381" on="1"/>
      </contour>
    </TTGlyph>
    <TTGlyph name="Igrave" xMin="78" yMin="-10" xMax="632" yMax="1823">
      <contour>
        <pt x="78" y="1749" on="1"/>
        <pt x="78" y="1764" on="1"/>
        <pt x="78" y="1783" on="0"/>
        <pt x="129" y="1823" on="0"/>
        <pt x="164" y="1823" on="1"/>
        <pt x="180" y="1823" on="1"/>
        <pt x="225" y="1823" on="0"/>
        <pt x="296" y="1760" on="1"/>
        <pt x="490" y="1588" on="0"/>
        <pt x="490" y="1539" on="1"/>
        <pt x="490" y="1524" on="1"/>
        <pt x="490" y="1499" on="0"/>
        <pt x="460" y="1499" on="1"/>
        <pt x="445" y="1499" on="1"/>
        <pt x="399" y="1499" on="0"/>
        <pt x="180" y="1645" on="1"/>
        <pt x="78" y="1713" on="0"/>
      </contour>
      <contour>
        <pt x="625" y="1348" on="1"/>
        <pt x="625" y="1318" on="0"/>
        <pt x="502" y="1262" on="0"/>
        <pt x="474" y="1151" on="0"/>
        <pt x="474" y="201" on="0"/>
        <pt x="501" y="103" on="0"/>
        <pt x="550" y="85" on="1"/>
        <pt x="632" y="55" on="0"/>
        <pt x="632" y="33" on="1"/>
        <pt x="632" y="-10" on="0"/>
        <pt x="553" y="-10" on="1"/>
        <pt x="531" y="-10" on="1"/>
        <pt x="509" y="-9" on="1"/>
        <pt x="444" y="-8" on="1"/>
        <pt x="316" y="-8" on="1"/>
        <pt x="230" y="-10" on="1"/>
        <pt x="186" y="-10" on="1"/>
        <pt x="113" y="-10" on="0"/>
        <pt x="113" y="57" on="0"/>
        <pt x="237" y="107" on="0"/>
        <pt x="265" y="221" on="0"/>
        <pt x="265" y="1150" on="0"/>
        <pt x="241" y="1268" on="0"/>
        <pt x="190" y="1287" on="1"/>
        <pt x="108" y="1317" on="0"/>
        <pt x="108" y="1340" on="1"/>
        <pt x="108" y="1373" on="0"/>
        <pt x="148" y="1379" on="1"/>
        <pt x="167" y="1382" on="0"/>
        <pt x="403" y="1382" on="1"/>
        <pt x="489" y="1383" on="1"/>
        <pt x="575" y="1383" on="1"/>
        <pt x="625" y="1383" on="0"/>
      </contour>
    </TTGlyph>
    <TTGlyph name="J" xMin="-10" yMin="-236" xMax="688" yMax="1393">
      <contour>
        <pt x="119" y="-61" on="1"/>
        <pt x="207" y="-74" on="1"/>
        <pt x="374" y="-74" on="0"/>
        <pt x="374" y="654" on="1"/>
        <pt x="372" y="781" on="1"/>
        <pt x="368" y="932" on="1"/>
        <pt x="368" y="1162" on="0"/>
        <pt x="341" y="1226" on="1"/>
        <pt x="328" y="1256" on="0"/>
        <pt x="215" y="1324" on="0"/>
        <pt x="215" y="1348" on="1"/>
        <pt x="215" y="1393" on="0"/>
        <pt x="601" y="1393" on="1"/>
        <pt x="625" y="1393" on="1"/>
        <pt x="688" y="1393" on="0"/>
        <pt x="688" y="1352" on="1"/>
        <pt x="688" y="1337" on="0"/>
        <pt x="600" y="1275" on="0"/>
        <pt x="582" y="1218" on="0"/>
        <pt x="582" y="962" on="1"/>
        <pt x="577" y="551" on="1"/>
        <pt x="577" y="304" on="0"/>
        <pt x="560" y="186" on="1"/>
        <pt x="523" y="-71" on="0"/>
        <pt x="328" y="-184" on="1"/>
        <pt x="238" y="-236" on="0"/>
        <pt x="154" y="-236" on="1"/>
        <pt x="-10" y="-236" on="0"/>
        <pt x="-10" y="-158" on="1"/>
        <pt x="-10" y="-117" on="0"/>
        <pt x="59" y="-61" on="0"/>
      </contour>
    </TTGlyph>
    <TTGlyph name="K" xMin="122" yMin="-1" xMax="1375" yMax="1396">
      <contour>
        <pt x="482" y="409" on="1"/>
        <pt x="482" y="252" on="0"/>
        <pt x="504" y="143" on="0"/>
        <pt x="579" y="71" on="0"/>
        <pt x="579" y="43" on="1"/>
        <pt x="579" y="0" on="0"/>
        <pt x="291" y="0" on="1"/>
        <pt x="122" y="0" on="0"/>
        <pt x="122" y="37" on="1"/>
        <pt x="122" y="61" on="0"/>
        <pt x="229" y="133" on="0"/>
        <pt x="261" y="279" on="0"/>
        <pt x="261" y="1111" on="0"/>
        <pt x="234" y="1252" on="0"/>
        <pt x="194" y="1283" on="1"/>
        <pt x="122" y="1339" on="0"/>
        <pt x="122" y="1344" on="1"/>
        <pt x="122" y="1396" on="0"/>
        <pt x="266" y="1396" on="1"/>
        <pt x="448" y="1396" on="1"/>
        <pt x="574" y="1396" on="0"/>
        <pt x="574" y="1349" on="1"/>
        <pt x="574" y="1341" on="0"/>
        <pt x="513" y="1260" on="0"/>
        <pt x="490" y="1119" on="0"/>
        <pt x="490" y="858" on="1"/>
        <pt x="490" y="768" on="0"/>
        <pt x="537" y="768" on="1"/>
        <pt x="548" y="768" on="0"/>
        <pt x="597" y="805" on="1"/>
        <pt x="714" y="894" on="0"/>
        <pt x="873" y="1098" on="1"/>
        <pt x="962" y="1212" on="0"/>
        <pt x="962" y="1292" on="1"/>
        <pt x="956" y="1341" on="1"/>
        <pt x="956" y="1371" on="0"/>
        <pt x="1022" y="1391" on="0"/>
        <pt x="1294" y="1391" on="0"/>
        <pt x="1294" y="1358" on="1"/>
        <pt x="1294" y="1345" on="0"/>
        <pt x="1150" y="1236" on="1"/>
        <pt x="1078" y="1182" on="0"/>
        <pt x="785" y="850" on="0"/>
        <pt x="785" y="777" on="1"/>
        <pt x="785" y="726" on="0"/>
        <pt x="1140" y="278" on="1"/>
        <pt x="1215" y="184" on="0"/>
        <pt x="1260" y="146" on="1"/>
        <pt x="1375" y="50" on="0"/>
        <pt x="1375" y="43" on="1"/>
        <pt x="1375" y="-1" on="0"/>
        <pt x="1196" y="-1" on="1"/>
        <pt x="1152" y="-1" on="1"/>
        <pt x="1063" y="-1" on="0"/>
        <pt x="1019" y="43" on="1"/>
        <pt x="1004" y="58" on="0"/>
        <pt x="957" y="171" on="0"/>
        <pt x="887" y="279" on="1"/>
        <pt x="656" y="635" on="0"/>
        <pt x="482" y="635" on="0"/>
      </contour>
    </TTGlyph>
    <TTGlyph name="L" xMin="115" yMin="-2" xMax="1163" yMax="1395">
      <contour>
        <pt x="115" y="1326" on="0"/>
        <pt x="115" y="1395" on="0"/>
        <pt x="198" y="1395" on="1"/>
        <pt x="257" y="1395" on="1"/>
        <pt x="287" y="1394" on="1"/>
        <pt x="376" y="1393" on="1"/>
        <pt x="558" y="1393" on="0"/>
        <pt x="632" y="1376" on="0"/>
        <pt x="632" y="1346" on="1"/>
        <pt x="632" y="1326" on="0"/>
        <pt x="512" y="1267" on="0"/>
        <pt x="501" y="1214" on="1"/>
        <pt x="478" y="1106" on="0"/>
        <pt x="478" y="196" on="0"/>
        <pt x="496" y="165" on="1"/>
        <pt x="522" y="120" on="0"/>
        <pt x="873" y="120" on="0"/>
        <pt x="990" y="176" on="0"/>
        <pt x="1103" y="353" on="0"/>
        <pt x="1126" y="353" on="1"/>
        <pt x="1163" y="353" on="0"/>
        <pt x="1163" y="291" on="1"/>
        <pt x="1163" y="75" on="0"/>
        <pt x="1106" y="27" on="1"/>
        <pt x="1072" y="-2" on="0"/>
        <pt x="773" y="-2" on="1"/>
        <pt x="684" y="-2" on="1"/>
        <pt x="654" y="-1" on="1"/>
        <pt x="595" y="-1" on="1"/>
        <pt x="115" y="-1" on="0"/>
        <pt x="115" y="39" on="1"/>
        <pt x="115" y="65" on="0"/>
        <pt x="220" y="127" on="0"/>
        <pt x="256" y="251" on="0"/>
        <pt x="256" y="583" on="1"/>
        <pt x="260" y="1004" on="1"/>
        <pt x="260" y="1223" on="0"/>
        <pt x="230" y="1289" on="0"/>
      </contour>
    </TTGlyph>
    <TTGlyph name="Lslash" xMin="135" yMin="-2" xMax="1187" yMax="1372">
      <contour>
        <pt x="618" y="1326" on="1"/>
        <pt x="618" y="1302" on="0"/>
        <pt x="525" y="1218" on="0"/>
        <pt x="498" y="1121" on="0"/>
        <pt x="498" y="814" on="0"/>
        <pt x="552" y="814" on="1"/>
        <pt x="578" y="814" on="0"/>
        <pt x="749" y="885" on="0"/>
        <pt x="807" y="885" on="0"/>
        <pt x="807" y="867" on="1"/>
        <pt x="807" y="808" on="0"/>
        <pt x="588" y="667" on="0"/>
        <pt x="492" y="526" on="0"/>
        <pt x="492" y="201" on="0"/>
        <pt x="591" y="104" on="0"/>
        <pt x="888" y="104" on="0"/>
        <pt x="1015" y="188" on="0"/>
        <pt x="1127" y="345" on="0"/>
        <pt x="1187" y="345" on="0"/>
        <pt x="1187" y="269" on="1"/>
        <pt x="1187" y="113" on="0"/>
        <pt x="1087" y="5" on="0"/>
        <pt x="926" y="5" on="1"/>
        <pt x="856" y="3" on="1"/>
        <pt x="326" y="0" on="1"/>
        <pt x="255" y="-2" on="1"/>
        <pt x="135" y="-2" on="0"/>
        <pt x="135" y="31" on="1"/>
        <pt x="135" y="44" on="0"/>
        <pt x="234" y="128" on="0"/>
        <pt x="270" y="227" on="0"/>
        <pt x="270" y="444" on="0"/>
        <pt x="247" y="476" on="1"/>
        <pt x="240" y="485" on="0"/>
        <pt x="135" y="517" on="0"/>
        <pt x="135" y="546" on="1"/>
        <pt x="135" y="567" on="0"/>
        <pt x="243" y="689" on="0"/>
        <pt x="271" y="796" on="0"/>
        <pt x="271" y="1154" on="0"/>
        <pt x="242" y="1236" on="0"/>
        <pt x="139" y="1307" on="0"/>
        <pt x="139" y="1325" on="1"/>
        <pt x="139" y="1372" on="0"/>
        <pt x="257" y="1372" on="1"/>
        <pt x="435" y="1372" on="1"/>
        <pt x="618" y="1372" on="0"/>
      </contour>
    </TTGlyph>
    <TTGlyph name="M" xMin="118" yMin="15" xMax="1784" yMax="1377">
      <contour>
        <pt x="1494" y="1377" on="0"/>
        <pt x="1736" y="1377" on="0"/>
        <pt x="1736" y="1326" on="1"/>
        <pt x="1714" y="1299" on="1"/>
        <pt x="1669" y="1248" on="0"/>
        <pt x="1659" y="1230" on="1"/>
        <pt x="1630" y="1175" on="0"/>
        <pt x="1630" y="1071" on="1"/>
        <pt x="1630" y="386" on="0"/>
        <pt x="1663" y="216" on="1"/>
        <pt x="1674" y="160" on="0"/>
        <pt x="1708" y="129" on="1"/>
        <pt x="1784" y="61" on="0"/>
        <pt x="1784" y="55" on="1"/>
        <pt x="1763" y="41" on="1"/>
        <pt x="1709" y="17" on="0"/>
        <pt x="1425" y="17" on="0"/>
        <pt x="1396" y="52" on="1"/>
        <pt x="1388" y="73" on="1"/>
        <pt x="1396" y="100" on="1"/>
        <pt x="1409" y="143" on="0"/>
        <pt x="1449" y="283" on="0"/>
        <pt x="1449" y="389" on="1"/>
        <pt x="1449" y="977" on="0"/>
        <pt x="1415" y="1065" on="1"/>
        <pt x="1404" y="1075" on="1"/>
        <pt x="1391" y="1075" on="0"/>
        <pt x="1222" y="693" on="1"/>
        <pt x="1075" y="352" on="1"/>
        <pt x="1041" y="270" on="0"/>
        <pt x="1027" y="240" on="1"/>
        <pt x="1001" y="185" on="1"/>
        <pt x="948" y="81" on="0"/>
        <pt x="903" y="81" on="1"/>
        <pt x="866" y="81" on="0"/>
        <pt x="810" y="198" on="1"/>
        <pt x="794" y="232" on="0"/>
        <pt x="453" y="1067" on="0"/>
        <pt x="422" y="1067" on="1"/>
        <pt x="410" y="1053" on="1"/>
        <pt x="378" y="978" on="0"/>
        <pt x="378" y="417" on="1"/>
        <pt x="378" y="323" on="0"/>
        <pt x="437" y="63" on="0"/>
        <pt x="437" y="61" on="1"/>
        <pt x="422" y="43" on="1"/>
        <pt x="387" y="15" on="0"/>
        <pt x="193" y="15" on="0"/>
        <pt x="118" y="38" on="0"/>
        <pt x="118" y="69" on="1"/>
        <pt x="118" y="77" on="0"/>
        <pt x="235" y="168" on="0"/>
        <pt x="247" y="247" on="1"/>
        <pt x="253" y="304" on="1"/>
        <pt x="256" y="342" on="0"/>
        <pt x="261" y="423" on="1"/>
        <pt x="268" y="544" on="1"/>
        <pt x="288" y="852" on="0"/>
        <pt x="288" y="1152" on="0"/>
        <pt x="262" y="1207" on="1"/>
        <pt x="251" y="1230" on="0"/>
        <pt x="160" y="1323" on="0"/>
        <pt x="160" y="1335" on="1"/>
        <pt x="160" y="1374" on="0"/>
        <pt x="320" y="1374" on="1"/>
        <pt x="419" y="1374" on="0"/>
        <pt x="472" y="1334" on="1"/>
        <pt x="497" y="1315" on="0"/>
        <pt x="599" y="1161" on="0"/>
        <pt x="867" y="534" on="0"/>
        <pt x="886" y="490" on="1"/>
        <pt x="910" y="437" on="1"/>
        <pt x="936" y="403" on="1"/>
        <pt x="959" y="403" on="0"/>
        <pt x="1343" y="1214" on="0"/>
        <pt x="1411" y="1326" on="0"/>
      </contour>
    </TTGlyph>
    <TTGlyph name="N" xMin="115" yMin="8" xMax="1496" yMax="1386">
      <contour>
        <pt x="492" y="56" on="1"/>
        <pt x="492" y="8" on="0"/>
        <pt x="393" y="8" on="1"/>
        <pt x="258" y="8" on="1"/>
        <pt x="115" y="8" on="0"/>
        <pt x="115" y="40" on="1"/>
        <pt x="115" y="64" on="0"/>
        <pt x="236" y="136" on="0"/>
        <pt x="251" y="195" on="1"/>
        <pt x="277" y="299" on="0"/>
        <pt x="277" y="1081" on="0"/>
        <pt x="246" y="1233" on="0"/>
        <pt x="201" y="1272" on="1"/>
        <pt x="128" y="1336" on="0"/>
        <pt x="128" y="1338" on="1"/>
        <pt x="128" y="1382" on="0"/>
        <pt x="201" y="1382" on="1"/>
        <pt x="319" y="1382" on="0"/>
        <pt x="437" y="1339" on="0"/>
        <pt x="536" y="1242" on="0"/>
        <pt x="1187" y="366" on="0"/>
        <pt x="1200" y="366" on="1"/>
        <pt x="1232" y="366" on="0"/>
        <pt x="1232" y="743" on="1"/>
        <pt x="1234" y="839" on="1"/>
        <pt x="1233" y="936" on="1"/>
        <pt x="1233" y="1158" on="0"/>
        <pt x="1204" y="1256" on="0"/>
        <pt x="1108" y="1322" on="0"/>
        <pt x="1108" y="1357" on="1"/>
        <pt x="1108" y="1386" on="0"/>
        <pt x="1255" y="1386" on="1"/>
        <pt x="1303" y="1386" on="1"/>
        <pt x="1496" y="1386" on="0"/>
        <pt x="1496" y="1319" on="0"/>
        <pt x="1381" y="1232" on="0"/>
        <pt x="1368" y="1145" on="1"/>
        <pt x="1349" y="1016" on="0"/>
        <pt x="1349" y="728" on="1"/>
        <pt x="1349" y="367" on="1"/>
        <pt x="1349" y="319" on="0"/>
        <pt x="1350" y="271" on="1"/>
        <pt x="1353" y="175" on="1"/>
        <pt x="1353" y="76" on="0"/>
        <pt x="1325" y="20" on="0"/>
        <pt x="1283" y="20" on="1"/>
        <pt x="1220" y="20" on="0"/>
        <pt x="1112" y="154" on="1"/>
        <pt x="1065" y="212" on="0"/>
        <pt x="440" y="1101" on="0"/>
        <pt x="403" y="1101" on="1"/>
        <pt x="383" y="1101" on="0"/>
        <pt x="383" y="810" on="1"/>
        <pt x="385" y="563" on="1"/>
        <pt x="385" y="293" on="0"/>
        <pt x="413" y="190" on="1"/>
        <pt x="422" y="158" on="0"/>
        <pt x="444" y="125" on="1"/>
        <pt x="463" y="100" on="1"/>
        <pt x="492" y="63" on="0"/>
      </contour>
    </TTGlyph>
    <TTGlyph name="Nacute" xMin="82" yMin="32" xMax="1463" yMax="1810">
      <contour>
        <pt x="1006" y="1810" on="1"/>
        <pt x="1017" y="1810" on="1"/>
        <pt x="1089" y="1810" on="0"/>
        <pt x="1089" y="1753" on="1"/>
        <pt x="1089" y="1729" on="1"/>
        <pt x="1089" y="1690" on="0"/>
        <pt x="1034" y="1647" on="1"/>
        <pt x="1014" y="1631" on="0"/>
        <pt x="900" y="1590" on="1"/>
        <pt x="886" y="1585" on="0"/>
        <pt x="769" y="1494" on="1"/>
        <pt x="727" y="1461" on="0"/>
        <pt x="691" y="1461" on="1"/>
        <pt x="686" y="1460" on="1"/>
        <pt x="674" y="1460" on="0"/>
        <pt x="674" y="1476" on="1"/>
        <pt x="674" y="1485" on="1"/>
        <pt x="675" y="1489" on="1"/>
        <pt x="677" y="1511" on="1"/>
        <pt x="677" y="1568" on="0"/>
        <pt x="752" y="1634" on="1"/>
        <pt x="953" y="1810" on="0"/>
      </contour>
      <contour>
        <pt x="1317" y="357" on="1"/>
        <pt x="1317" y="146" on="0"/>
        <pt x="1311" y="108" on="1"/>
        <pt x="1301" y="45" on="0"/>
        <pt x="1243" y="45" on="1"/>
        <pt x="1197" y="45" on="0"/>
        <pt x="974" y="312" on="0"/>
        <pt x="406" y="1085" on="0"/>
        <pt x="368" y="1085" on="1"/>
        <pt x="349" y="1085" on="0"/>
        <pt x="349" y="439" on="0"/>
        <pt x="389" y="227" on="0"/>
        <pt x="478" y="89" on="0"/>
        <pt x="478" y="82" on="1"/>
        <pt x="466" y="65" on="1"/>
        <pt x="420" y="32" on="0"/>
        <pt x="187" y="32" on="1"/>
        <pt x="140" y="32" on="1"/>
        <pt x="82" y="32" on="0"/>
        <pt x="82" y="85" on="0"/>
        <pt x="212" y="149" on="0"/>
        <pt x="226" y="198" on="1"/>
        <pt x="255" y="301" on="0"/>
        <pt x="255" y="915" on="1"/>
        <pt x="255" y="1120" on="0"/>
        <pt x="226" y="1190" on="1"/>
        <pt x="212" y="1223" on="0"/>
        <pt x="95" y="1317" on="0"/>
        <pt x="95" y="1324" on="1"/>
        <pt x="95" y="1368" on="0"/>
        <pt x="302" y="1368" on="0"/>
        <pt x="423" y="1333" on="0"/>
        <pt x="544" y="1212" on="0"/>
        <pt x="813" y="855" on="0"/>
        <pt x="902" y="745" on="0"/>
        <pt x="1182" y="385" on="0"/>
        <pt x="1189" y="385" on="1"/>
        <pt x="1220" y="385" on="0"/>
        <pt x="1220" y="1081" on="0"/>
        <pt x="1187" y="1236" on="0"/>
        <pt x="1145" y="1272" on="1"/>
        <pt x="1077" y="1331" on="0"/>
        <pt x="1077" y="1335" on="1"/>
        <pt x="1077" y="1384" on="0"/>
        <pt x="1231" y="1384" on="1"/>
        <pt x="1326" y="1384" on="1"/>
        <pt x="1463" y="1384" on="0"/>
        <pt x="1463" y="1334" on="1"/>
        <pt x="1463" y="1324" on="0"/>
        <pt x="1355" y="1244" on="0"/>
        <pt x="1319" y="1141" on="0"/>
        <pt x="1319" y="928" on="1"/>
        <pt x="1317" y="691" on="1"/>
      </contour>
    </TTGlyph>
    <TTGlyph name="Ntilde" xMin="94" yMin="-2" xMax="1468" yMax="1755">
      <contour>
        <pt x="646" y="1755" on="1"/>
        <pt x="669" y="1755" on="1"/>
        <pt x="718" y="1755" on="0"/>
        <pt x="894" y="1667" on="0"/>
        <pt x="983" y="1667" on="0"/>
        <pt x="1085" y="1746" on="0"/>
        <pt x="1091" y="1746" on="1"/>
        <pt x="1123" y="1746" on="0"/>
        <pt x="1123" y="1719" on="1"/>
        <pt x="1123" y="1711" on="1"/>
        <pt x="1123" y="1651" on="0"/>
        <pt x="994" y="1532" on="0"/>
        <pt x="937" y="1532" on="1"/>
        <pt x="904" y="1532" on="1"/>
        <pt x="854" y="1532" on="0"/>
        <pt x="676" y="1621" on="0"/>
        <pt x="588" y="1621" on="0"/>
        <pt x="491" y="1540" on="0"/>
        <pt x="482" y="1540" on="1"/>
        <pt x="449" y="1540" on="0"/>
        <pt x="449" y="1568" on="1"/>
        <pt x="449" y="1583" on="1"/>
        <pt x="449" y="1640" on="0"/>
        <pt x="533" y="1711" on="1"/>
        <pt x="585" y="1755" on="0"/>
      </contour>
      <contour>
        <pt x="487" y="41" on="1"/>
        <pt x="487" y="-2" on="0"/>
        <pt x="318" y="-2" on="1"/>
        <pt x="224" y="-2" on="1"/>
        <pt x="94" y="-2" on="0"/>
        <pt x="94" y="39" on="1"/>
        <pt x="94" y="52" on="0"/>
        <pt x="173" y="101" on="1"/>
        <pt x="222" y="131" on="0"/>
        <pt x="248" y="289" on="0"/>
        <pt x="248" y="1102" on="0"/>
        <pt x="218" y="1223" on="0"/>
        <pt x="99" y="1313" on="0"/>
        <pt x="99" y="1335" on="1"/>
        <pt x="99" y="1371" on="0"/>
        <pt x="316" y="1371" on="0"/>
        <pt x="430" y="1338" on="0"/>
        <pt x="525" y="1236" on="0"/>
        <pt x="739" y="942" on="0"/>
        <pt x="1191" y="361" on="0"/>
        <pt x="1194" y="361" on="1"/>
        <pt x="1217" y="361" on="0"/>
        <pt x="1217" y="1109" on="0"/>
        <pt x="1187" y="1240" on="0"/>
        <pt x="1069" y="1318" on="0"/>
        <pt x="1069" y="1332" on="1"/>
        <pt x="1069" y="1373" on="0"/>
        <pt x="1202" y="1373" on="1"/>
        <pt x="1250" y="1372" on="1"/>
        <pt x="1298" y="1372" on="1"/>
        <pt x="1468" y="1372" on="0"/>
        <pt x="1468" y="1328" on="1"/>
        <pt x="1468" y="1313" on="0"/>
        <pt x="1397" y="1257" on="1"/>
        <pt x="1352" y="1222" on="0"/>
        <pt x="1325" y="1088" on="0"/>
        <pt x="1325" y="679" on="1"/>
        <pt x="1324" y="630" on="1"/>
        <pt x="1323" y="581" on="0"/>
        <pt x="1323" y="532" on="1"/>
        <pt x="1322" y="482" on="1"/>
        <pt x="1322" y="384" on="0"/>
        <pt x="1322" y="286" on="1"/>
        <pt x="1323" y="190" on="1"/>
        <pt x="1325" y="142" on="1"/>
        <pt x="1325" y="14" on="0"/>
        <pt x="1274" y="14" on="1"/>
        <pt x="1191" y="14" on="0"/>
        <pt x="1098" y="130" on="1"/>
        <pt x="1034" y="210" on="0"/>
        <pt x="414" y="1086" on="0"/>
        <pt x="357" y="1086" on="0"/>
        <pt x="357" y="822" on="1"/>
        <pt x="360" y="577" on="1"/>
        <pt x="360" y="354" on="0"/>
        <pt x="398" y="173" on="0"/>
        <pt x="425" y="133" on="1"/>
        <pt x="446" y="107" on="1"/>
        <pt x="468" y="85" on="1"/>
        <pt x="487" y="63" on="0"/>
      </contour>
    </TTGlyph>
    <TTGlyph name="O" xMin="99" yMin="-28" xMax="1411" yMax="1412">
      <contour>
        <pt x="729" y="66" on="1"/>
        <pt x="763" y="66" on="1"/>
        <pt x="951" y="66" on="0"/>
        <pt x="1061" y="235" on="1"/>
        <pt x="1169" y="405" on="0"/>
        <pt x="1169" y="666" on="1"/>
        <pt x="1169" y="685" on="1"/>
        <pt x="1169" y="974" on="0"/>
        <pt x="937" y="1320" on="0"/>
        <pt x="742" y="1320" on="1"/>
        <pt x="548" y="1320" on="0"/>
        <pt x="432" y="1153" on="1"/>
        <pt x="385" y="1085" on="0"/>
        <pt x="322" y="856" on="0"/>
        <pt x="322" y="720" on="1"/>
        <pt x="322" y="702" on="1"/>
        <pt x="322" y="433" on="0"/>
        <pt x="426" y="263" on="1"/>
        <pt x="479" y="175" on="0"/>
        <pt x="643" y="66" on="0"/>
      </contour>
      <contour>
        <pt x="1411" y="690" on="1"/>
        <pt x="1411" y="544" on="0"/>
        <pt x="1360" y="404" on="1"/>
        <pt x="1257" y="123" on="0"/>
        <pt x="1002" y="20" on="1"/>
        <pt x="882" y="-28" on="0"/>
        <pt x="764" y="-28" on="1"/>
        <pt x="718" y="-28" on="1"/>
        <pt x="455" y="-28" on="0"/>
        <pt x="274" y="165" on="1"/>
        <pt x="199" y="245" on="0"/>
        <pt x="99" y="518" on="0"/>
        <pt x="99" y="651" on="1"/>
        <pt x="99" y="699" on="1"/>
        <pt x="99" y="848" on="0"/>
        <pt x="150" y="986" on="1"/>
        <pt x="249" y="1254" on="0"/>
        <pt x="486" y="1356" on="1"/>
        <pt x="614" y="1412" on="0"/>
        <pt x="765" y="1412" on="1"/>
        <pt x="788" y="1412" on="1"/>
        <pt x="920" y="1412" on="0"/>
        <pt x="1041" y="1360" on="1"/>
        <pt x="1283" y="1257" on="0"/>
        <pt x="1375" y="958" on="1"/>
        <pt x="1411" y="842" on="0"/>
        <pt x="1411" y="714" on="1"/>
      </contour>
    </TTGlyph>
    <TTGlyph name="OE" xMin="90" yMin="-9" xMax="1866" yMax="1391">
      <contour>
        <pt x="321" y="771" on="1"/>
        <pt x="321" y="659" on="1"/>
        <pt x="323" y="623" on="0"/>
        <pt x="323" y="605" on="1"/>
        <pt x="323" y="508" on="0"/>
        <pt x="398" y="296" on="0"/>
        <pt x="464" y="222" on="1"/>
        <pt x="593" y="76" on="0"/>
        <pt x="763" y="76" on="1"/>
        <pt x="775" y="76" on="0"/>
        <pt x="787" y="77" on="1"/>
        <pt x="939" y="77" on="0"/>
        <pt x="969" y="162" on="1"/>
        <pt x="983" y="202" on="0"/>
        <pt x="983" y="705" on="1"/>
        <pt x="985" y="757" on="1"/>
        <pt x="985" y="792" on="1"/>
        <pt x="986" y="845" on="1"/>
        <pt x="986" y="1082" on="1"/>
        <pt x="986" y="1207" on="0"/>
        <pt x="958" y="1242" on="1"/>
        <pt x="906" y="1307" on="0"/>
        <pt x="770" y="1307" on="1"/>
        <pt x="737" y="1307" on="1"/>
        <pt x="560" y="1307" on="0"/>
        <pt x="427" y="1131" on="1"/>
        <pt x="383" y="1073" on="0"/>
        <pt x="321" y="875" on="0"/>
      </contour>
      <contour>
        <pt x="1822" y="1198" on="1"/>
        <pt x="1822" y="1147" on="0"/>
        <pt x="1801" y="1147" on="1"/>
        <pt x="1788" y="1147" on="0"/>
        <pt x="1702" y="1210" on="0"/>
        <pt x="1510" y="1267" on="0"/>
        <pt x="1305" y="1267" on="0"/>
        <pt x="1271" y="1213" on="1"/>
        <pt x="1221" y="1133" on="0"/>
        <pt x="1221" y="955" on="1"/>
        <pt x="1221" y="877" on="0"/>
        <pt x="1248" y="844" on="1"/>
        <pt x="1292" y="791" on="0"/>
        <pt x="1411" y="791" on="1"/>
        <pt x="1462" y="791" on="0"/>
        <pt x="1575" y="868" on="0"/>
        <pt x="1590" y="868" on="1"/>
        <pt x="1618" y="859" on="1"/>
        <pt x="1655" y="830" on="0"/>
        <pt x="1655" y="602" on="0"/>
        <pt x="1625" y="573" on="1"/>
        <pt x="1600" y="561" on="1"/>
        <pt x="1579" y="561" on="0"/>
        <pt x="1462" y="644" on="0"/>
        <pt x="1380" y="644" on="1"/>
        <pt x="1210" y="644" on="0"/>
        <pt x="1210" y="456" on="1"/>
        <pt x="1210" y="266" on="0"/>
        <pt x="1241" y="206" on="1"/>
        <pt x="1271" y="147" on="0"/>
        <pt x="1340" y="114" on="0"/>
        <pt x="1536" y="114" on="0"/>
        <pt x="1708" y="174" on="0"/>
        <pt x="1828" y="259" on="0"/>
        <pt x="1844" y="259" on="1"/>
        <pt x="1866" y="258" on="0"/>
        <pt x="1866" y="196" on="1"/>
        <pt x="1866" y="74" on="0"/>
        <pt x="1744" y="26" on="1"/>
        <pt x="1678" y="0" on="0"/>
        <pt x="1229" y="0" on="0"/>
        <pt x="1069" y="16" on="0"/>
        <pt x="1051" y="16" on="1"/>
        <pt x="738" y="-9" on="1"/>
        <pt x="287" y="-9" on="0"/>
        <pt x="141" y="379" on="1"/>
        <pt x="90" y="514" on="0"/>
        <pt x="90" y="654" on="1"/>
        <pt x="90" y="703" on="1"/>
        <pt x="90" y="841" on="0"/>
        <pt x="139" y="975" on="1"/>
        <pt x="188" y="1110" on="0"/>
        <pt x="282" y="1206" on="1"/>
        <pt x="461" y="1391" on="0"/>
        <pt x="767" y="1391" on="1"/>
        <pt x="770" y="1391" on="1"/>
        <pt x="817" y="1389" on="1"/>
        <pt x="862" y="1386" on="1"/>
        <pt x="952" y="1376" on="1"/>
        <pt x="974" y="1374" on="0"/>
        <pt x="1122" y="1374" on="1"/>
        <pt x="1431" y="1381" on="1"/>
        <pt x="1670" y="1381" on="0"/>
        <pt x="1726" y="1361" on="1"/>
        <pt x="1822" y="1327" on="0"/>
      </contour>
    </TTGlyph>
    <TTGlyph name="Oacute" xMin="96" yMin="-32" xMax="1398" yMax="1809">
      <contour>
        <pt x="315" y="753" on="1"/>
        <pt x="315" y="680" on="1"/>
        <pt x="316" y="564" on="0"/>
        <pt x="348" y="448" on="1"/>
        <pt x="413" y="217" on="0"/>
        <pt x="573" y="140" on="1"/>
        <pt x="650" y="103" on="0"/>
        <pt x="734" y="103" on="1"/>
        <pt x="752" y="103" on="1"/>
        <pt x="940" y="103" on="0"/>
        <pt x="1060" y="269" on="1"/>
        <pt x="1104" y="330" on="0"/>
        <pt x="1171" y="550" on="0"/>
        <pt x="1171" y="672" on="1"/>
        <pt x="1171" y="746" on="1"/>
        <pt x="1171" y="862" on="0"/>
        <pt x="1138" y="980" on="1"/>
        <pt x="1080" y="1186" on="0"/>
        <pt x="942" y="1268" on="1"/>
        <pt x="856" y="1319" on="0"/>
        <pt x="770" y="1319" on="1"/>
        <pt x="717" y="1319" on="1"/>
        <pt x="640" y="1318" on="0"/>
        <pt x="561" y="1276" on="1"/>
        <pt x="414" y="1197" on="0"/>
        <pt x="351" y="993" on="1"/>
        <pt x="315" y="878" on="0"/>
      </contour>
      <contour>
        <pt x="618" y="1496" on="1"/>
        <pt x="618" y="1507" on="1"/>
        <pt x="618" y="1520" on="0"/>
        <pt x="722" y="1669" on="0"/>
        <pt x="880" y="1809" on="0"/>
        <pt x="930" y="1809" on="1"/>
        <pt x="941" y="1809" on="1"/>
        <pt x="947" y="1808" on="1"/>
        <pt x="980" y="1808" on="0"/>
        <pt x="1034" y="1766" on="0"/>
        <pt x="1034" y="1741" on="1"/>
        <pt x="1034" y="1730" on="1"/>
        <pt x="1033" y="1725" on="1"/>
        <pt x="1033" y="1675" on="0"/>
        <pt x="723" y="1458" on="0"/>
        <pt x="662" y="1458" on="1"/>
        <pt x="657" y="1458" on="1"/>
        <pt x="618" y="1458" on="0"/>
      </contour>
      <contour>
        <pt x="1398" y="697" on="1"/>
        <pt x="1398" y="674" on="1"/>
        <pt x="1398" y="528" on="0"/>
        <pt x="1348" y="391" on="1"/>
        <pt x="1250" y="124" on="0"/>
        <pt x="1008" y="20" on="1"/>
        <pt x="886" y="-32" on="0"/>
        <pt x="751" y="-32" on="1"/>
        <pt x="704" y="-32" on="1"/>
        <pt x="582" y="-32" on="0"/>
        <pt x="469" y="18" on="1"/>
        <pt x="233" y="123" on="0"/>
        <pt x="142" y="388" on="1"/>
        <pt x="96" y="523" on="0"/>
        <pt x="96" y="651" on="1"/>
        <pt x="96" y="698" on="1"/>
        <pt x="96" y="842" on="0"/>
        <pt x="145" y="976" on="1"/>
        <pt x="243" y="1243" on="0"/>
        <pt x="484" y="1348" on="1"/>
        <pt x="601" y="1399" on="0"/>
        <pt x="739" y="1399" on="1"/>
        <pt x="762" y="1399" on="1"/>
        <pt x="1051" y="1399" on="0"/>
        <pt x="1226" y="1205" on="1"/>
        <pt x="1299" y="1125" on="0"/>
        <pt x="1398" y="853" on="0"/>
      </contour>
    </TTGlyph>
    <TTGlyph name="Ocircumflex" xMin="93" yMin="-33" xMax="1401" yMax="1805">
      <contour>
        <pt x="1179" y="666" on="1"/>
        <pt x="1179" y="739" on="1"/>
        <pt x="1179" y="851" on="0"/>
        <pt x="1141" y="969" on="1"/>
        <pt x="1068" y="1194" on="0"/>
        <pt x="923" y="1272" on="1"/>
        <pt x="833" y="1320" on="0"/>
        <pt x="746" y="1320" on="1"/>
        <pt x="728" y="1320" on="1"/>
        <pt x="638" y="1320" on="0"/>
        <pt x="560" y="1280" on="1"/>
        <pt x="399" y="1197" on="0"/>
        <pt x="338" y="977" on="1"/>
        <pt x="306" y="863" on="0"/>
        <pt x="306" y="756" on="1"/>
        <pt x="306" y="738" on="1"/>
        <pt x="306" y="448" on="0"/>
        <pt x="431" y="277" on="1"/>
        <pt x="487" y="200" on="0"/>
        <pt x="648" y="114" on="0"/>
        <pt x="739" y="114" on="1"/>
        <pt x="757" y="114" on="1"/>
        <pt x="941" y="114" on="0"/>
        <pt x="1057" y="260" on="1"/>
        <pt x="1115" y="332" on="0"/>
        <pt x="1179" y="561" on="0"/>
      </contour>
      <contour>
        <pt x="1002" y="1468" on="1"/>
        <pt x="988" y="1468" on="1"/>
        <pt x="962" y="1468" on="0"/>
        <pt x="745" y="1618" on="0"/>
        <pt x="735" y="1618" on="0"/>
        <pt x="692" y="1588" on="1"/>
        <pt x="521" y="1469" on="0"/>
        <pt x="434" y="1469" on="0"/>
        <pt x="434" y="1502" on="1"/>
        <pt x="434" y="1510" on="0"/>
        <pt x="683" y="1805" on="0"/>
        <pt x="735" y="1805" on="1"/>
        <pt x="752" y="1805" on="1"/>
        <pt x="795" y="1805" on="0"/>
        <pt x="1041" y="1514" on="0"/>
        <pt x="1041" y="1500" on="1"/>
        <pt x="1041" y="1494" on="1"/>
        <pt x="1041" y="1468" on="0"/>
      </contour>
      <contour>
        <pt x="1401" y="681" on="1"/>
        <pt x="1401" y="681" on="0"/>
        <pt x="1401" y="675" on="1"/>
        <pt x="1401" y="529" on="0"/>
        <pt x="1352" y="396" on="1"/>
        <pt x="1256" y="132" on="0"/>
        <pt x="1014" y="22" on="1"/>
        <pt x="896" y="-33" on="0"/>
        <pt x="746" y="-33" on="1"/>
        <pt x="451" y="-33" on="0"/>
        <pt x="269" y="160" on="1"/>
        <pt x="183" y="252" on="0"/>
        <pt x="93" y="535" on="0"/>
        <pt x="93" y="668" on="1"/>
        <pt x="93" y="691" on="1"/>
        <pt x="93" y="694" on="0"/>
        <pt x="93" y="697" on="1"/>
        <pt x="93" y="847" on="0"/>
        <pt x="142" y="980" on="1"/>
        <pt x="240" y="1247" on="0"/>
        <pt x="474" y="1349" on="1"/>
        <pt x="600" y="1404" on="0"/>
        <pt x="728" y="1404" on="1"/>
        <pt x="774" y="1404" on="1"/>
        <pt x="914" y="1404" on="0"/>
        <pt x="1030" y="1350" on="1"/>
        <pt x="1258" y="1245" on="0"/>
        <pt x="1351" y="991" on="1"/>
        <pt x="1401" y="854" on="0"/>
        <pt x="1401" y="704" on="1"/>
      </contour>
    </TTGlyph>
    <TTGlyph name="Odieresis" xMin="90" yMin="-35" xMax="1397" yMax="1750">
      <contour>
        <pt x="313" y="774" on="1"/>
        <pt x="313" y="701" on="1"/>
        <pt x="313" y="574" on="0"/>
        <pt x="344" y="464" on="1"/>
        <pt x="407" y="241" on="0"/>
        <pt x="543" y="155" on="1"/>
        <pt x="629" y="101" on="0"/>
        <pt x="713" y="101" on="1"/>
        <pt x="747" y="101" on="1"/>
        <pt x="936" y="101" on="0"/>
        <pt x="1154" y="417" on="0"/>
        <pt x="1154" y="683" on="1"/>
        <pt x="1153" y="702" on="1"/>
        <pt x="1153" y="702" on="0"/>
        <pt x="1153" y="707" on="1"/>
        <pt x="1153" y="964" on="0"/>
        <pt x="1048" y="1140" on="1"/>
        <pt x="1004" y="1216" on="0"/>
        <pt x="837" y="1319" on="0"/>
        <pt x="736" y="1319" on="1"/>
        <pt x="719" y="1319" on="1"/>
        <pt x="534" y="1319" on="0"/>
        <pt x="427" y="1170" on="1"/>
        <pt x="375" y="1098" on="0"/>
        <pt x="313" y="879" on="0"/>
      </contour>
      <contour>
        <pt x="448" y="1628" on="1"/>
        <pt x="448" y="1650" on="1"/>
        <pt x="452" y="1671" on="1"/>
        <pt x="452" y="1692" on="0"/>
        <pt x="510" y="1750" on="0"/>
        <pt x="550" y="1750" on="1"/>
        <pt x="572" y="1750" on="1"/>
        <pt x="612" y="1750" on="0"/>
        <pt x="667" y="1695" on="0"/>
        <pt x="667" y="1671" on="1"/>
        <pt x="671" y="1657" on="0"/>
        <pt x="671" y="1653" on="1"/>
        <pt x="671" y="1627" on="1"/>
        <pt x="671" y="1589" on="0"/>
        <pt x="613" y="1531" on="0"/>
        <pt x="587" y="1531" on="1"/>
        <pt x="581" y="1529" on="0"/>
        <pt x="577" y="1529" on="1"/>
        <pt x="558" y="1527" on="1"/>
        <pt x="555" y="1527" on="1"/>
        <pt x="526" y="1531" on="1"/>
        <pt x="499" y="1531" on="0"/>
        <pt x="448" y="1592" on="0"/>
      </contour>
      <contour>
        <pt x="1042" y="1586" on="1"/>
        <pt x="1042" y="1550" on="0"/>
        <pt x="978" y="1486" on="0"/>
        <pt x="942" y="1486" on="1"/>
        <pt x="918" y="1486" on="1"/>
        <pt x="906" y="1489" on="0"/>
        <pt x="871" y="1489" on="0"/>
        <pt x="805" y="1555" on="0"/>
        <pt x="805" y="1603" on="1"/>
        <pt x="805" y="1620" on="1"/>
        <pt x="805" y="1676" on="0"/>
        <pt x="879" y="1737" on="0"/>
        <pt x="904" y="1737" on="1"/>
        <pt x="925" y="1740" on="1"/>
        <pt x="941" y="1740" on="1"/>
        <pt x="980" y="1740" on="0"/>
        <pt x="1042" y="1678" on="0"/>
        <pt x="1042" y="1640" on="1"/>
        <pt x="1044" y="1632" on="1"/>
        <pt x="1044" y="1598" on="1"/>
        <pt x="1042" y="1590" on="0"/>
      </contour>
      <contour>
        <pt x="1397" y="679" on="1"/>
        <pt x="1397" y="549" on="0"/>
        <pt x="1308" y="268" on="0"/>
        <pt x="1130" y="72" on="0"/>
        <pt x="885" y="-35" on="0"/>
        <pt x="753" y="-35" on="1"/>
        <pt x="730" y="-35" on="1"/>
        <pt x="440" y="-35" on="0"/>
        <pt x="265" y="158" on="1"/>
        <pt x="190" y="241" on="0"/>
        <pt x="90" y="514" on="0"/>
        <pt x="90" y="668" on="1"/>
        <pt x="91" y="692" on="1"/>
        <pt x="91" y="715" on="1"/>
        <pt x="91" y="844" on="0"/>
        <pt x="140" y="978" on="1"/>
        <pt x="237" y="1243" on="0"/>
        <pt x="475" y="1347" on="1"/>
        <pt x="597" y="1400" on="0"/>
        <pt x="730" y="1400" on="1"/>
        <pt x="777" y="1400" on="1"/>
        <pt x="918" y="1400" on="0"/>
        <pt x="1145" y="1295" on="0"/>
        <pt x="1296" y="1128" on="0"/>
        <pt x="1397" y="852" on="0"/>
        <pt x="1397" y="702" on="1"/>
      </contour>
    </TTGlyph>
    <TTGlyph name="Ograve" xMin="94" yMin="-34" xMax="1400" yMax="1807">
      <contour>
        <pt x="316" y="761" on="1"/>
        <pt x="316" y="725" on="1"/>
        <pt x="316" y="592" on="0"/>
        <pt x="350" y="473" on="1"/>
        <pt x="417" y="235" on="0"/>
        <pt x="569" y="152" on="1"/>
        <pt x="654" y="105" on="0"/>
        <pt x="745" y="105" on="1"/>
        <pt x="781" y="105" on="1"/>
        <pt x="946" y="105" on="0"/>
        <pt x="1057" y="251" on="1"/>
        <pt x="1108" y="318" on="0"/>
        <pt x="1169" y="535" on="0"/>
        <pt x="1169" y="646" on="1"/>
        <pt x="1169" y="701" on="1"/>
        <pt x="1169" y="836" on="0"/>
        <pt x="1135" y="956" on="1"/>
        <pt x="1073" y="1176" on="0"/>
        <pt x="930" y="1263" on="1"/>
        <pt x="839" y="1318" on="0"/>
        <pt x="739" y="1318" on="1"/>
        <pt x="704" y="1318" on="1"/>
        <pt x="621" y="1318" on="0"/>
        <pt x="546" y="1276" on="1"/>
        <pt x="396" y="1193" on="0"/>
        <pt x="348" y="1001" on="1"/>
        <pt x="316" y="873" on="0"/>
      </contour>
      <contour>
        <pt x="824" y="1459" on="1"/>
        <pt x="814" y="1459" on="1"/>
        <pt x="751" y="1459" on="0"/>
        <pt x="552" y="1598" on="1"/>
        <pt x="439" y="1677" on="0"/>
        <pt x="439" y="1727" on="1"/>
        <pt x="439" y="1733" on="1"/>
        <pt x="439" y="1761" on="0"/>
        <pt x="498" y="1807" on="0"/>
        <pt x="532" y="1807" on="1"/>
        <pt x="550" y="1807" on="1"/>
        <pt x="592" y="1807" on="0"/>
        <pt x="710" y="1714" on="0"/>
        <pt x="826" y="1566" on="1"/>
        <pt x="860" y="1522" on="0"/>
        <pt x="860" y="1507" on="1"/>
        <pt x="860" y="1492" on="1"/>
        <pt x="860" y="1459" on="0"/>
      </contour>
      <contour>
        <pt x="1400" y="680" on="1"/>
        <pt x="1400" y="530" on="0"/>
        <pt x="1350" y="394" on="1"/>
        <pt x="1248" y="115" on="0"/>
        <pt x="994" y="12" on="1"/>
        <pt x="879" y="-34" on="0"/>
        <pt x="756" y="-34" on="1"/>
        <pt x="710" y="-34" on="1"/>
        <pt x="584" y="-34" on="0"/>
        <pt x="470" y="16" on="1"/>
        <pt x="241" y="116" on="0"/>
        <pt x="149" y="362" on="1"/>
        <pt x="94" y="512" on="0"/>
        <pt x="94" y="645" on="1"/>
        <pt x="94" y="692" on="1"/>
        <pt x="94" y="832" on="0"/>
        <pt x="141" y="970" on="1"/>
        <pt x="230" y="1229" on="0"/>
        <pt x="459" y="1339" on="1"/>
        <pt x="590" y="1401" on="0"/>
        <pt x="733" y="1401" on="1"/>
        <pt x="780" y="1401" on="1"/>
        <pt x="906" y="1401" on="0"/>
        <pt x="1028" y="1351" on="1"/>
        <pt x="1270" y="1251" on="0"/>
        <pt x="1357" y="969" on="1"/>
        <pt x="1400" y="830" on="0"/>
        <pt x="1400" y="703" on="1"/>
      </contour>
    </TTGlyph>
    <TTGlyph name="Oslash" xMin="118" yMin="-68" xMax="1376" yMax="1426">
      <contour>
        <pt x="324" y="645" on="1"/>
        <pt x="324" y="513" on="0"/>
        <pt x="405" y="258" on="0"/>
        <pt x="444" y="258" on="1"/>
        <pt x="474" y="258" on="0"/>
        <pt x="986" y="1077" on="0"/>
        <pt x="986" y="1175" on="1"/>
        <pt x="986" y="1187" on="1"/>
        <pt x="986" y="1234" on="0"/>
        <pt x="851" y="1310" on="0"/>
        <pt x="757" y="1310" on="1"/>
        <pt x="743" y="1310" on="1"/>
        <pt x="560" y="1310" on="0"/>
        <pt x="449" y="1157" on="1"/>
        <pt x="392" y="1077" on="0"/>
        <pt x="326" y="854" on="0"/>
        <pt x="326" y="749" on="1"/>
        <pt x="324" y="719" on="1"/>
      </contour>
      <contour>
        <pt x="1129" y="809" on="1"/>
        <pt x="1129" y="864" on="1"/>
        <pt x="1129" y="1014" on="0"/>
        <pt x="1092" y="1097" on="1"/>
        <pt x="1084" y="1116" on="0"/>
        <pt x="1078" y="1116" on="1"/>
        <pt x="1071" y="1116" on="1"/>
        <pt x="1064" y="1116" on="0"/>
        <pt x="804" y="616" on="0"/>
        <pt x="745" y="522" on="1"/>
        <pt x="541" y="196" on="0"/>
        <pt x="541" y="122" on="0"/>
        <pt x="629" y="68" on="0"/>
        <pt x="788" y="68" on="0"/>
        <pt x="868" y="120" on="1"/>
        <pt x="1019" y="219" on="0"/>
        <pt x="1094" y="510" on="1"/>
        <pt x="1129" y="645" on="0"/>
      </contour>
      <contour>
        <pt x="1168" y="1426" on="0"/>
        <pt x="1225" y="1426" on="0"/>
        <pt x="1240" y="1391" on="1"/>
        <pt x="1245" y="1380" on="0"/>
        <pt x="1245" y="1243" on="0"/>
        <pt x="1376" y="915" on="0"/>
        <pt x="1376" y="746" on="1"/>
        <pt x="1376" y="719" on="1"/>
        <pt x="1376" y="569" on="0"/>
        <pt x="1274" y="280" on="0"/>
        <pt x="1179" y="183" on="1"/>
        <pt x="982" y="-18" on="0"/>
        <pt x="675" y="-18" on="1"/>
        <pt x="488" y="-5" on="1"/>
        <pt x="449" y="-5" on="0"/>
        <pt x="320" y="-68" on="0"/>
        <pt x="302" y="-68" on="1"/>
        <pt x="253" y="-68" on="0"/>
        <pt x="253" y="-14" on="1"/>
        <pt x="260" y="57" on="1"/>
        <pt x="260" y="91" on="0"/>
        <pt x="118" y="475" on="0"/>
        <pt x="118" y="805" on="0"/>
        <pt x="170" y="949" on="1"/>
        <pt x="271" y="1230" on="0"/>
        <pt x="534" y="1339" on="1"/>
        <pt x="657" y="1390" on="0"/>
        <pt x="833" y="1390" on="1"/>
        <pt x="1018" y="1374" on="1"/>
        <pt x="1053" y="1374" on="0"/>
      </contour>
    </TTGlyph>
    <TTGlyph name="Otilde" xMin="94" yMin="-32" xMax="1400" yMax="1742">
      <contour>
        <pt x="308" y="758" on="1"/>
        <pt x="308" y="704" on="1"/>
        <pt x="308" y="578" on="0"/>
        <pt x="344" y="462" on="1"/>
        <pt x="415" y="237" on="0"/>
        <pt x="563" y="157" on="1"/>
        <pt x="649" y="111" on="0"/>
        <pt x="740" y="111" on="1"/>
        <pt x="758" y="111" on="1"/>
        <pt x="947" y="111" on="0"/>
        <pt x="1066" y="273" on="1"/>
        <pt x="1117" y="343" on="0"/>
        <pt x="1178" y="565" on="0"/>
        <pt x="1178" y="687" on="1"/>
        <pt x="1178" y="705" on="1"/>
        <pt x="1178" y="835" on="0"/>
        <pt x="1144" y="955" on="1"/>
        <pt x="1079" y="1186" on="0"/>
        <pt x="923" y="1270" on="1"/>
        <pt x="839" y="1315" on="0"/>
        <pt x="746" y="1315" on="1"/>
        <pt x="728" y="1315" on="1"/>
        <pt x="540" y="1315" on="0"/>
        <pt x="428" y="1168" on="1"/>
        <pt x="371" y="1095" on="0"/>
        <pt x="308" y="869" on="0"/>
      </contour>
      <contour>
        <pt x="608" y="1742" on="1"/>
        <pt x="632" y="1742" on="1"/>
        <pt x="682" y="1742" on="0"/>
        <pt x="860" y="1653" on="0"/>
        <pt x="945" y="1653" on="0"/>
        <pt x="1037" y="1722" on="0"/>
        <pt x="1040" y="1722" on="1"/>
        <pt x="1078" y="1722" on="0"/>
        <pt x="1078" y="1691" on="1"/>
        <pt x="1078" y="1683" on="1"/>
        <pt x="1078" y="1609" on="0"/>
        <pt x="937" y="1489" on="0"/>
        <pt x="870" y="1489" on="1"/>
        <pt x="862" y="1490" on="1"/>
        <pt x="809" y="1490" on="0"/>
        <pt x="620" y="1579" on="0"/>
        <pt x="539" y="1579" on="0"/>
        <pt x="439" y="1510" on="0"/>
        <pt x="432" y="1510" on="1"/>
        <pt x="400" y="1510" on="0"/>
        <pt x="400" y="1548" on="1"/>
        <pt x="400" y="1612" on="0"/>
        <pt x="485" y="1690" on="1"/>
        <pt x="541" y="1742" on="0"/>
      </contour>
      <contour>
        <pt x="1400" y="682" on="1"/>
        <pt x="1400" y="542" on="0"/>
        <pt x="1352" y="401" on="1"/>
        <pt x="1260" y="131" on="0"/>
        <pt x="1014" y="23" on="1"/>
        <pt x="888" y="-32" on="0"/>
        <pt x="756" y="-32" on="1"/>
        <pt x="733" y="-32" on="1"/>
        <pt x="455" y="-32" on="0"/>
        <pt x="283" y="146" on="1"/>
        <pt x="196" y="236" on="0"/>
        <pt x="94" y="515" on="0"/>
        <pt x="94" y="648" on="1"/>
        <pt x="94" y="695" on="1"/>
        <pt x="94" y="845" on="0"/>
        <pt x="144" y="980" on="1"/>
        <pt x="242" y="1246" on="0"/>
        <pt x="478" y="1350" on="1"/>
        <pt x="600" y="1403" on="0"/>
        <pt x="733" y="1403" on="1"/>
        <pt x="780" y="1403" on="1"/>
        <pt x="911" y="1403" on="0"/>
        <pt x="1142" y="1305" on="0"/>
        <pt x="1299" y="1131" on="0"/>
        <pt x="1400" y="855" on="0"/>
        <pt x="1400" y="706" on="1"/>
      </contour>
    </TTGlyph>
    <TTGlyph name="P" xMin="115" yMin="8" xMax="1173" yMax="1402">
      <contour>
        <pt x="470" y="1152" on="1"/>
        <pt x="470" y="772" on="1"/>
        <pt x="470" y="688" on="0"/>
        <pt x="513" y="652" on="0"/>
        <pt x="582" y="652" on="1"/>
        <pt x="632" y="652" on="1"/>
        <pt x="774" y="652" on="0"/>
        <pt x="953" y="818" on="0"/>
        <pt x="953" y="969" on="1"/>
        <pt x="953" y="980" on="1"/>
        <pt x="952" y="991" on="1"/>
        <pt x="952" y="1137" on="0"/>
        <pt x="784" y="1305" on="0"/>
        <pt x="646" y="1305" on="1"/>
        <pt x="626" y="1307" on="1"/>
        <pt x="578" y="1307" on="1"/>
        <pt x="505" y="1307" on="0"/>
        <pt x="470" y="1261" on="0"/>
      </contour>
      <contour>
        <pt x="470" y="517" on="0"/>
        <pt x="470" y="208" on="0"/>
        <pt x="503" y="127" on="0"/>
        <pt x="624" y="72" on="0"/>
        <pt x="624" y="44" on="1"/>
        <pt x="624" y="8" on="0"/>
        <pt x="493" y="8" on="1"/>
        <pt x="467" y="9" on="1"/>
        <pt x="268" y="8" on="1"/>
        <pt x="244" y="8" on="1"/>
        <pt x="115" y="8" on="0"/>
        <pt x="115" y="84" on="0"/>
        <pt x="233" y="135" on="0"/>
        <pt x="255" y="222" on="0"/>
        <pt x="255" y="1139" on="0"/>
        <pt x="231" y="1270" on="0"/>
        <pt x="190" y="1288" on="1"/>
        <pt x="123" y="1318" on="0"/>
        <pt x="123" y="1337" on="1"/>
        <pt x="123" y="1369" on="0"/>
        <pt x="151" y="1378" on="1"/>
        <pt x="195" y="1392" on="0"/>
        <pt x="353" y="1392" on="1"/>
        <pt x="458" y="1396" on="1"/>
        <pt x="564" y="1400" on="0"/>
        <pt x="565" y="1400" on="1"/>
        <pt x="619" y="1402" on="1"/>
        <pt x="701" y="1402" on="1"/>
        <pt x="822" y="1402" on="0"/>
        <pt x="914" y="1371" on="1"/>
        <pt x="1089" y="1312" on="0"/>
        <pt x="1142" y="1177" on="1"/>
        <pt x="1173" y="1098" on="0"/>
        <pt x="1173" y="1000" on="1"/>
        <pt x="1173" y="786" on="0"/>
        <pt x="994" y="676" on="1"/>
        <pt x="868" y="598" on="0"/>
        <pt x="618" y="579" on="1"/>
        <pt x="527" y="572" on="0"/>
        <pt x="510" y="556" on="1"/>
      </contour>
    </TTGlyph>
    <TTGlyph name="Q" xMin="79" yMin="-306" xMax="1546" yMax="1419">
      <contour>
        <pt x="292" y="741" on="1"/>
        <pt x="292" y="685" on="1"/>
        <pt x="292" y="437" on="0"/>
        <pt x="410" y="268" on="1"/>
        <pt x="474" y="176" on="0"/>
        <pt x="644" y="83" on="0"/>
        <pt x="720" y="83" on="1"/>
        <pt x="752" y="83" on="1"/>
        <pt x="850" y="84" on="0"/>
        <pt x="936" y="134" on="1"/>
        <pt x="1192" y="284" on="0"/>
        <pt x="1192" y="678" on="1"/>
        <pt x="1192" y="697" on="1"/>
        <pt x="1192" y="966" on="0"/>
        <pt x="1068" y="1149" on="1"/>
        <pt x="1019" y="1222" on="0"/>
        <pt x="848" y="1322" on="0"/>
        <pt x="750" y="1322" on="1"/>
        <pt x="731" y="1322" on="1"/>
        <pt x="538" y="1322" on="0"/>
        <pt x="420" y="1170" on="1"/>
        <pt x="357" y="1090" on="0"/>
        <pt x="292" y="850" on="0"/>
      </contour>
      <contour>
        <pt x="1150" y="-20" on="0"/>
        <pt x="1150" y="-48" on="0"/>
        <pt x="1245" y="-121" on="0"/>
        <pt x="1546" y="-222" on="0"/>
        <pt x="1546" y="-233" on="1"/>
        <pt x="1546" y="-265" on="0"/>
        <pt x="1452" y="-306" on="0"/>
        <pt x="1250" y="-306" on="0"/>
        <pt x="1020" y="-206" on="1"/>
        <pt x="469" y="33" on="0"/>
        <pt x="233" y="223" on="0"/>
        <pt x="79" y="537" on="0"/>
        <pt x="79" y="713" on="1"/>
        <pt x="79" y="745" on="1"/>
        <pt x="79" y="880" on="0"/>
        <pt x="126" y="1009" on="1"/>
        <pt x="223" y="1276" on="0"/>
        <pt x="474" y="1375" on="1"/>
        <pt x="585" y="1419" on="0"/>
        <pt x="704" y="1419" on="1"/>
        <pt x="735" y="1419" on="1"/>
        <pt x="884" y="1419" on="0"/>
        <pt x="1004" y="1359" on="1"/>
        <pt x="1248" y="1237" on="0"/>
        <pt x="1332" y="986" on="1"/>
        <pt x="1366" y="884" on="0"/>
        <pt x="1366" y="706" on="1"/>
        <pt x="1366" y="370" on="0"/>
        <pt x="1219" y="104" on="1"/>
      </contour>
    </TTGlyph>
    <TTGlyph name="R" xMin="113" yMin="-4" xMax="1318" yMax="1394">
      <contour>
        <pt x="454" y="1155" on="1"/>
        <pt x="454" y="810" on="1"/>
        <pt x="454" y="741" on="0"/>
        <pt x="479" y="707" on="0"/>
        <pt x="538" y="707" on="1"/>
        <pt x="593" y="707" on="1"/>
        <pt x="603" y="708" on="1"/>
        <pt x="631" y="709" on="1"/>
        <pt x="641" y="710" on="0"/>
        <pt x="650" y="710" on="1"/>
        <pt x="758" y="710" on="0"/>
        <pt x="924" y="863" on="0"/>
        <pt x="924" y="984" on="1"/>
        <pt x="924" y="1026" on="1"/>
        <pt x="924" y="1150" on="0"/>
        <pt x="759" y="1301" on="0"/>
        <pt x="601" y="1301" on="1"/>
        <pt x="573" y="1301" on="1"/>
        <pt x="564" y="1300" on="1"/>
        <pt x="546" y="1300" on="1"/>
        <pt x="526" y="1298" on="0"/>
        <pt x="519" y="1298" on="1"/>
        <pt x="477" y="1298" on="0"/>
        <pt x="454" y="1247" on="0"/>
      </contour>
      <contour>
        <pt x="114" y="1350" on="1"/>
        <pt x="114" y="1384" on="0"/>
        <pt x="247" y="1384" on="1"/>
        <pt x="281" y="1385" on="1"/>
        <pt x="315" y="1386" on="0"/>
        <pt x="372" y="1386" on="0"/>
        <pt x="418" y="1388" on="1"/>
        <pt x="487" y="1391" on="1"/>
        <pt x="591" y="1394" on="0"/>
        <pt x="626" y="1394" on="1"/>
        <pt x="989" y="1394" on="0"/>
        <pt x="1093" y="1180" on="1"/>
        <pt x="1125" y="1114" on="0"/>
        <pt x="1125" y="1015" on="1"/>
        <pt x="1125" y="853" on="0"/>
        <pt x="971" y="731" on="1"/>
        <pt x="879" y="659" on="0"/>
        <pt x="879" y="639" on="1"/>
        <pt x="879" y="607" on="0"/>
        <pt x="917" y="543" on="1"/>
        <pt x="1091" y="249" on="0"/>
        <pt x="1188" y="128" on="0"/>
        <pt x="1318" y="78" on="0"/>
        <pt x="1318" y="48" on="1"/>
        <pt x="1318" y="32" on="0"/>
        <pt x="1255" y="-4" on="0"/>
        <pt x="1066" y="-4" on="0"/>
        <pt x="1015" y="49" on="1"/>
        <pt x="997" y="68" on="0"/>
        <pt x="740" y="522" on="0"/>
        <pt x="709" y="551" on="1"/>
        <pt x="654" y="603" on="0"/>
        <pt x="540" y="603" on="1"/>
        <pt x="499" y="603" on="0"/>
        <pt x="463" y="511" on="0"/>
        <pt x="463" y="201" on="0"/>
        <pt x="494" y="124" on="0"/>
        <pt x="591" y="49" on="0"/>
        <pt x="591" y="37" on="1"/>
        <pt x="591" y="3" on="0"/>
        <pt x="501" y="3" on="1"/>
        <pt x="300" y="9" on="1"/>
        <pt x="113" y="9" on="0"/>
        <pt x="113" y="60" on="1"/>
        <pt x="113" y="82" on="0"/>
        <pt x="230" y="136" on="0"/>
        <pt x="261" y="233" on="0"/>
        <pt x="261" y="412" on="1"/>
        <pt x="261" y="625" on="1"/>
        <pt x="260" y="660" on="1"/>
        <pt x="259" y="694" on="0"/>
        <pt x="259" y="729" on="1"/>
        <pt x="257" y="797" on="1"/>
        <pt x="256" y="831" on="0"/>
        <pt x="256" y="865" on="1"/>
        <pt x="250" y="1066" on="1"/>
        <pt x="250" y="1200" on="0"/>
        <pt x="230" y="1247" on="1"/>
        <pt x="218" y="1275" on="0"/>
        <pt x="114" y="1321" on="0"/>
      </contour>
    </TTGlyph>
    <TTGlyph name="S" xMin="128" yMin="-7" xMax="1047" yMax="1407">
      <contour>
        <pt x="989" y="1155" on="1"/>
        <pt x="989" y="1058" on="0"/>
        <pt x="905" y="1058" on="0"/>
        <pt x="810" y="1230" on="0"/>
        <pt x="673" y="1312" on="0"/>
        <pt x="457" y="1312" on="0"/>
        <pt x="323" y="1199" on="0"/>
        <pt x="323" y="998" on="0"/>
        <pt x="415" y="922" on="1"/>
        <pt x="472" y="874" on="0"/>
        <pt x="861" y="706" on="0"/>
        <pt x="1047" y="513" on="0"/>
        <pt x="1047" y="195" on="0"/>
        <pt x="785" y="-7" on="0"/>
        <pt x="584" y="-7" on="1"/>
        <pt x="547" y="-7" on="1"/>
        <pt x="473" y="-7" on="0"/>
        <pt x="308" y="31" on="0"/>
        <pt x="209" y="48" on="0"/>
        <pt x="186" y="58" on="1"/>
        <pt x="128" y="85" on="0"/>
        <pt x="128" y="216" on="1"/>
        <pt x="128" y="250" on="1"/>
        <pt x="128" y="384" on="0"/>
        <pt x="189" y="384" on="1"/>
        <pt x="216" y="384" on="0"/>
        <pt x="307" y="202" on="0"/>
        <pt x="348" y="169" on="1"/>
        <pt x="451" y="87" on="0"/>
        <pt x="722" y="87" on="0"/>
        <pt x="859" y="212" on="0"/>
        <pt x="859" y="361" on="0"/>
        <pt x="817" y="453" on="0"/>
        <pt x="707" y="540" on="0"/>
        <pt x="323" y="715" on="0"/>
        <pt x="249" y="786" on="1"/>
        <pt x="140" y="891" on="0"/>
        <pt x="140" y="1215" on="0"/>
        <pt x="392" y="1407" on="0"/>
        <pt x="573" y="1407" on="1"/>
        <pt x="648" y="1407" on="0"/>
        <pt x="846" y="1368" on="0"/>
        <pt x="941" y="1368" on="0"/>
        <pt x="989" y="1306" on="0"/>
      </contour>
    </TTGlyph>
    <TTGlyph name="Scaron" xMin="116" yMin="-20" xMax="999" yMax="1804">
      <contour>
        <pt x="315" y="1804" on="1"/>
        <pt x="329" y="1804" on="1"/>
        <pt x="353" y="1804" on="0"/>
        <pt x="555" y="1633" on="0"/>
        <pt x="578" y="1633" on="0"/>
        <pt x="764" y="1804" on="0"/>
        <pt x="799" y="1804" on="1"/>
        <pt x="806" y="1804" on="1"/>
        <pt x="838" y="1804" on="0"/>
        <pt x="838" y="1779" on="1"/>
        <pt x="838" y="1772" on="0"/>
        <pt x="603" y="1490" on="0"/>
        <pt x="569" y="1490" on="1"/>
        <pt x="548" y="1490" on="1"/>
        <pt x="512" y="1490" on="0"/>
        <pt x="282" y="1766" on="0"/>
        <pt x="282" y="1773" on="1"/>
        <pt x="282" y="1779" on="1"/>
        <pt x="282" y="1804" on="0"/>
      </contour>
      <contour>
        <pt x="650" y="1292" on="0"/>
        <pt x="422" y="1292" on="0"/>
        <pt x="293" y="1174" on="0"/>
        <pt x="293" y="980" on="0"/>
        <pt x="386" y="905" on="1"/>
        <pt x="451" y="852" on="0"/>
        <pt x="807" y="699" on="0"/>
        <pt x="999" y="499" on="0"/>
        <pt x="999" y="188" on="0"/>
        <pt x="751" y="-20" on="0"/>
        <pt x="345" y="-20" on="0"/>
        <pt x="167" y="43" on="1"/>
        <pt x="116" y="61" on="0"/>
        <pt x="116" y="166" on="1"/>
        <pt x="116" y="200" on="1"/>
        <pt x="116" y="372" on="0"/>
        <pt x="154" y="372" on="1"/>
        <pt x="200" y="372" on="0"/>
        <pt x="278" y="183" on="0"/>
        <pt x="325" y="148" on="1"/>
        <pt x="428" y="73" on="0"/>
        <pt x="690" y="73" on="0"/>
        <pt x="828" y="208" on="0"/>
        <pt x="828" y="297" on="1"/>
        <pt x="828" y="420" on="0"/>
        <pt x="727" y="500" on="1"/>
        <pt x="696" y="525" on="0"/>
        <pt x="286" y="727" on="0"/>
        <pt x="133" y="903" on="0"/>
        <pt x="133" y="1175" on="0"/>
        <pt x="235" y="1271" on="1"/>
        <pt x="283" y="1316" on="0"/>
        <pt x="440" y="1378" on="0"/>
        <pt x="520" y="1378" on="1"/>
        <pt x="556" y="1378" on="1"/>
        <pt x="624" y="1378" on="0"/>
        <pt x="790" y="1336" on="0"/>
        <pt x="820" y="1336" on="1"/>
        <pt x="846" y="1339" on="1"/>
        <pt x="873" y="1340" on="1"/>
        <pt x="922" y="1340" on="0"/>
        <pt x="933" y="1295" on="1"/>
        <pt x="941" y="1264" on="0"/>
        <pt x="941" y="1028" on="0"/>
        <pt x="860" y="1028" on="0"/>
        <pt x="782" y="1192" on="0"/>
        <pt x="732" y="1230" on="1"/>
      </contour>
    </TTGlyph>
    <TTGlyph name="T" xMin="51" yMin="-2" xMax="1259" yMax="1394">
      <contour>
        <pt x="380" y="46" on="1"/>
        <pt x="380" y="69" on="0"/>
        <pt x="514" y="138" on="0"/>
        <pt x="544" y="295" on="0"/>
        <pt x="544" y="1170" on="0"/>
        <pt x="511" y="1270" on="0"/>
        <pt x="301" y="1270" on="0"/>
        <pt x="207" y="1218" on="0"/>
        <pt x="175" y="1168" on="1"/>
        <pt x="109" y="1066" on="0"/>
        <pt x="98" y="1066" on="1"/>
        <pt x="51" y="1066" on="0"/>
        <pt x="51" y="1124" on="1"/>
        <pt x="51" y="1154" on="1"/>
        <pt x="51" y="1359" on="0"/>
        <pt x="98" y="1383" on="1"/>
        <pt x="116" y="1392" on="0"/>
        <pt x="620" y="1392" on="1"/>
        <pt x="1031" y="1391" on="1"/>
        <pt x="1064" y="1391" on="0"/>
        <pt x="1098" y="1392" on="1"/>
        <pt x="1164" y="1394" on="1"/>
        <pt x="1215" y="1394" on="0"/>
        <pt x="1232" y="1369" on="1"/>
        <pt x="1259" y="1328" on="0"/>
        <pt x="1259" y="1163" on="1"/>
        <pt x="1259" y="1078" on="0"/>
        <pt x="1232" y="1078" on="1"/>
        <pt x="1195" y="1078" on="0"/>
        <pt x="1111" y="1221" on="0"/>
        <pt x="1015" y="1274" on="0"/>
        <pt x="799" y="1274" on="0"/>
        <pt x="760" y="1176" on="0"/>
        <pt x="760" y="251" on="0"/>
        <pt x="782" y="137" on="0"/>
        <pt x="818" y="107" on="1"/>
        <pt x="829" y="98" on="0"/>
        <pt x="912" y="58" on="0"/>
        <pt x="912" y="41" on="1"/>
        <pt x="912" y="-2" on="0"/>
        <pt x="843" y="-2" on="1"/>
        <pt x="777" y="-2" on="1"/>
        <pt x="581" y="2" on="1"/>
        <pt x="380" y="2" on="0"/>
      </contour>
    </TTGlyph>
    <TTGlyph name="Thorn" xMin="132" yMin="18" xMax="1177" yMax="1382">
      <contour>
        <pt x="925" y="708" on="1"/>
        <pt x="925" y="754" on="1"/>
        <pt x="925" y="897" on="0"/>
        <pt x="762" y="1060" on="0"/>
        <pt x="638" y="1060" on="1"/>
        <pt x="620" y="1060" on="1"/>
        <pt x="501" y="1060" on="0"/>
        <pt x="489" y="1012" on="1"/>
        <pt x="487" y="1004" on="0"/>
        <pt x="487" y="860" on="1"/>
        <pt x="487" y="705" on="1"/>
        <pt x="484" y="653" on="1"/>
        <pt x="484" y="643" on="0"/>
        <pt x="484" y="633" on="1"/>
        <pt x="479" y="523" on="1"/>
        <pt x="479" y="484" on="1"/>
        <pt x="479" y="433" on="0"/>
        <pt x="503" y="420" on="1"/>
        <pt x="546" y="397" on="0"/>
        <pt x="607" y="397" on="1"/>
        <pt x="625" y="397" on="1"/>
        <pt x="633" y="398" on="1"/>
        <pt x="761" y="398" on="0"/>
        <pt x="925" y="574" on="0"/>
      </contour>
      <contour>
        <pt x="1177" y="729" on="1"/>
        <pt x="1177" y="727" on="0"/>
        <pt x="1177" y="725" on="1"/>
        <pt x="1177" y="646" on="0"/>
        <pt x="1140" y="568" on="1"/>
        <pt x="1042" y="358" on="0"/>
        <pt x="695" y="334" on="1"/>
        <pt x="558" y="324" on="0"/>
        <pt x="542" y="316" on="1"/>
        <pt x="504" y="297" on="0"/>
        <pt x="504" y="178" on="0"/>
        <pt x="535" y="132" on="0"/>
        <pt x="627" y="82" on="0"/>
        <pt x="627" y="60" on="1"/>
        <pt x="627" y="18" on="0"/>
        <pt x="507" y="18" on="1"/>
        <pt x="378" y="18" on="1"/>
        <pt x="352" y="19" on="1"/>
        <pt x="301" y="19" on="1"/>
        <pt x="250" y="18" on="1"/>
        <pt x="135" y="18" on="0"/>
        <pt x="135" y="88" on="0"/>
        <pt x="244" y="144" on="0"/>
        <pt x="256" y="190" on="1"/>
        <pt x="278" y="273" on="0"/>
        <pt x="278" y="1144" on="0"/>
        <pt x="256" y="1223" on="1"/>
        <pt x="245" y="1263" on="0"/>
        <pt x="205" y="1281" on="1"/>
        <pt x="132" y="1314" on="0"/>
        <pt x="132" y="1334" on="1"/>
        <pt x="132" y="1366" on="0"/>
        <pt x="200" y="1381" on="0"/>
        <pt x="415" y="1381" on="1"/>
        <pt x="466" y="1382" on="1"/>
        <pt x="516" y="1382" on="1"/>
        <pt x="618" y="1382" on="0"/>
        <pt x="618" y="1340" on="1"/>
        <pt x="618" y="1318" on="0"/>
        <pt x="534" y="1268" on="0"/>
        <pt x="524" y="1246" on="1"/>
        <pt x="514" y="1223" on="0"/>
        <pt x="514" y="1204" on="1"/>
        <pt x="514" y="1180" on="0"/>
        <pt x="531" y="1163" on="1"/>
        <pt x="542" y="1152" on="0"/>
        <pt x="936" y="1110" on="0"/>
        <pt x="1016" y="1057" on="1"/>
        <pt x="1177" y="950" on="0"/>
        <pt x="1177" y="760" on="1"/>
        <pt x="1177" y="758" on="1"/>
      </contour>
    </TTGlyph>
    <TTGlyph name="U" xMin="90" yMin="-11" xMax="1449" yMax="1392">
      <contour>
        <pt x="1187" y="861" on="1"/>
        <pt x="1187" y="1119" on="0"/>
        <pt x="1149" y="1260" on="0"/>
        <pt x="1070" y="1345" on="0"/>
        <pt x="1070" y="1364" on="1"/>
        <pt x="1070" y="1390" on="0"/>
        <pt x="1395" y="1390" on="0"/>
        <pt x="1449" y="1360" on="0"/>
        <pt x="1449" y="1328" on="1"/>
        <pt x="1449" y="1312" on="0"/>
        <pt x="1331" y="1238" on="0"/>
        <pt x="1303" y="1144" on="0"/>
        <pt x="1303" y="443" on="0"/>
        <pt x="1281" y="283" on="0"/>
        <pt x="1180" y="110" on="0"/>
        <pt x="963" y="-11" on="0"/>
        <pt x="814" y="-11" on="1"/>
        <pt x="771" y="-11" on="1"/>
        <pt x="458" y="-11" on="0"/>
        <pt x="321" y="177" on="1"/>
        <pt x="264" y="254" on="0"/>
        <pt x="234" y="421" on="0"/>
        <pt x="234" y="1160" on="0"/>
        <pt x="212" y="1226" on="1"/>
        <pt x="201" y="1260" on="0"/>
        <pt x="145" y="1288" on="1"/>
        <pt x="90" y="1316" on="0"/>
        <pt x="90" y="1347" on="1"/>
        <pt x="90" y="1392" on="0"/>
        <pt x="271" y="1392" on="1"/>
        <pt x="386" y="1392" on="1"/>
        <pt x="552" y="1392" on="0"/>
        <pt x="552" y="1351" on="1"/>
        <pt x="552" y="1342" on="0"/>
        <pt x="462" y="1260" on="0"/>
        <pt x="452" y="1202" on="1"/>
        <pt x="443" y="1151" on="0"/>
        <pt x="443" y="877" on="1"/>
        <pt x="443" y="850" on="0"/>
        <pt x="443" y="820" on="1"/>
        <pt x="443" y="795" on="0"/>
        <pt x="443" y="771" on="1"/>
        <pt x="443" y="488" on="0"/>
        <pt x="454" y="409" on="1"/>
        <pt x="496" y="98" on="0"/>
        <pt x="835" y="98" on="1"/>
        <pt x="1050" y="98" on="0"/>
        <pt x="1142" y="305" on="1"/>
        <pt x="1187" y="406" on="0"/>
        <pt x="1187" y="842" on="1"/>
        <pt x="1187" y="851" on="0"/>
      </contour>
    </TTGlyph>
    <TTGlyph name="Uacute" xMin="65" yMin="-7" xMax="1434" yMax="1816">
      <contour>
        <pt x="664" y="1522" on="1"/>
        <pt x="664" y="1535" on="1"/>
        <pt x="664" y="1556" on="0"/>
        <pt x="957" y="1816" on="0"/>
        <pt x="986" y="1816" on="1"/>
        <pt x="997" y="1816" on="1"/>
        <pt x="1020" y="1813" on="1"/>
        <pt x="1076" y="1813" on="0"/>
        <pt x="1076" y="1754" on="1"/>
        <pt x="1076" y="1738" on="1"/>
        <pt x="1076" y="1694" on="0"/>
        <pt x="978" y="1625" on="1"/>
        <pt x="791" y="1494" on="0"/>
        <pt x="705" y="1494" on="1"/>
        <pt x="699" y="1494" on="1"/>
        <pt x="664" y="1494" on="0"/>
      </contour>
      <contour>
        <pt x="1163" y="416" on="0"/>
        <pt x="1163" y="1092" on="0"/>
        <pt x="1129" y="1229" on="0"/>
        <pt x="1098" y="1274" on="0"/>
        <pt x="1038" y="1334" on="0"/>
        <pt x="1038" y="1341" on="1"/>
        <pt x="1038" y="1384" on="0"/>
        <pt x="1150" y="1384" on="1"/>
        <pt x="1228" y="1384" on="1"/>
        <pt x="1376" y="1384" on="0"/>
        <pt x="1434" y="1356" on="0"/>
        <pt x="1434" y="1305" on="0"/>
        <pt x="1317" y="1238" on="0"/>
        <pt x="1289" y="1147" on="0"/>
        <pt x="1289" y="826" on="1"/>
        <pt x="1289" y="504" on="0"/>
        <pt x="1277" y="398" on="1"/>
        <pt x="1250" y="161" on="0"/>
        <pt x="1061" y="58" on="1"/>
        <pt x="942" y="-7" on="0"/>
        <pt x="796" y="-7" on="1"/>
        <pt x="753" y="-7" on="1"/>
        <pt x="410" y="-7" on="0"/>
        <pt x="280" y="206" on="1"/>
        <pt x="230" y="288" on="0"/>
        <pt x="206" y="501" on="0"/>
        <pt x="206" y="1165" on="0"/>
        <pt x="176" y="1248" on="0"/>
        <pt x="65" y="1309" on="0"/>
        <pt x="65" y="1335" on="1"/>
        <pt x="65" y="1370" on="0"/>
        <pt x="178" y="1383" on="0"/>
        <pt x="362" y="1383" on="1"/>
        <pt x="440" y="1384" on="1"/>
        <pt x="547" y="1384" on="0"/>
        <pt x="547" y="1348" on="1"/>
        <pt x="547" y="1332" on="0"/>
        <pt x="460" y="1271" on="0"/>
        <pt x="436" y="1189" on="0"/>
        <pt x="436" y="895" on="1"/>
        <pt x="436" y="777" on="1"/>
        <pt x="435" y="738" on="0"/>
        <pt x="435" y="619" on="1"/>
        <pt x="435" y="346" on="0"/>
        <pt x="512" y="240" on="1"/>
        <pt x="605" y="114" on="0"/>
        <pt x="1034" y="114" on="0"/>
        <pt x="1120" y="316" on="1"/>
      </contour>
    </TTGlyph>
    <TTGlyph name="Ucircumflex" xMin="58" yMin="-27" xMax="1440" yMax="1817">
      <contour>
        <pt x="772" y="1817" on="1"/>
        <pt x="788" y="1817" on="1"/>
        <pt x="825" y="1817" on="0"/>
        <pt x="1080" y="1539" on="0"/>
        <pt x="1080" y="1525" on="1"/>
        <pt x="1080" y="1497" on="0"/>
        <pt x="1038" y="1497" on="1"/>
        <pt x="1031" y="1498" on="1"/>
        <pt x="1024" y="1498" on="1"/>
        <pt x="999" y="1498" on="0"/>
        <pt x="785" y="1663" on="0"/>
        <pt x="772" y="1663" on="0"/>
        <pt x="720" y="1623" on="1"/>
        <pt x="556" y="1497" on="0"/>
        <pt x="523" y="1497" on="1"/>
        <pt x="516" y="1497" on="1"/>
        <pt x="477" y="1497" on="0"/>
        <pt x="477" y="1521" on="1"/>
        <pt x="477" y="1528" on="1"/>
        <pt x="477" y="1538" on="0"/>
        <pt x="733" y="1817" on="0"/>
      </contour>
      <contour>
        <pt x="1165" y="367" on="0"/>
        <pt x="1165" y="1078" on="0"/>
        <pt x="1127" y="1235" on="0"/>
        <pt x="1038" y="1341" on="0"/>
        <pt x="1038" y="1353" on="1"/>
        <pt x="1038" y="1381" on="0"/>
        <pt x="1375" y="1381" on="0"/>
        <pt x="1440" y="1353" on="0"/>
        <pt x="1440" y="1298" on="0"/>
        <pt x="1320" y="1232" on="0"/>
        <pt x="1294" y="1149" on="0"/>
        <pt x="1294" y="979" on="1"/>
        <pt x="1294" y="748" on="1"/>
        <pt x="1293" y="707" on="1"/>
        <pt x="1292" y="666" on="0"/>
        <pt x="1292" y="550" on="1"/>
        <pt x="1292" y="291" on="0"/>
        <pt x="1205" y="164" on="1"/>
        <pt x="1144" y="73" on="0"/>
        <pt x="927" y="-27" on="0"/>
        <pt x="803" y="-27" on="1"/>
        <pt x="759" y="-27" on="1"/>
        <pt x="409" y="-27" on="0"/>
        <pt x="277" y="183" on="1"/>
        <pt x="230" y="258" on="0"/>
        <pt x="203" y="452" on="0"/>
        <pt x="203" y="1160" on="0"/>
        <pt x="173" y="1246" on="0"/>
        <pt x="58" y="1307" on="0"/>
        <pt x="58" y="1330" on="1"/>
        <pt x="58" y="1368" on="0"/>
        <pt x="122" y="1376" on="1"/>
        <pt x="160" y="1381" on="0"/>
        <pt x="352" y="1381" on="1"/>
        <pt x="470" y="1382" on="1"/>
        <pt x="544" y="1382" on="0"/>
        <pt x="544" y="1348" on="1"/>
        <pt x="544" y="1330" on="0"/>
        <pt x="455" y="1268" on="0"/>
        <pt x="432" y="1188" on="0"/>
        <pt x="432" y="1076" on="1"/>
        <pt x="432" y="925" on="1"/>
        <pt x="433" y="885" on="1"/>
        <pt x="434" y="845" on="0"/>
        <pt x="434" y="805" on="1"/>
        <pt x="432" y="725" on="1"/>
        <pt x="431" y="605" on="1"/>
        <pt x="431" y="329" on="0"/>
        <pt x="507" y="220" on="1"/>
        <pt x="559" y="146" on="0"/>
        <pt x="638" y="119" on="1"/>
        <pt x="716" y="92" on="0"/>
        <pt x="820" y="92" on="1"/>
        <pt x="1014" y="92" on="0"/>
        <pt x="1103" y="253" on="1"/>
      </contour>
    </TTGlyph>
    <TTGlyph name="Udieresis" xMin="54" yMin="-27" xMax="1427" yMax="1751">
      <contour>
        <pt x="548" y="1530" on="0"/>
        <pt x="520" y="1530" on="0"/>
        <pt x="466" y="1584" on="0"/>
        <pt x="466" y="1613" on="1"/>
        <pt x="463" y="1635" on="1"/>
        <pt x="463" y="1642" on="1"/>
        <pt x="463" y="1682" on="0"/>
        <pt x="520" y="1750" on="0"/>
        <pt x="565" y="1750" on="1"/>
        <pt x="587" y="1750" on="1"/>
        <pt x="633" y="1750" on="0"/>
        <pt x="687" y="1683" on="0"/>
        <pt x="687" y="1642" on="1"/>
        <pt x="687" y="1635" on="1"/>
        <pt x="687" y="1589" on="0"/>
        <pt x="628" y="1530" on="0"/>
        <pt x="599" y="1530" on="1"/>
        <pt x="578" y="1527" on="1"/>
        <pt x="566" y="1527" on="1"/>
        <pt x="563" y="1528" on="1"/>
        <pt x="556" y="1528" on="1"/>
      </contour>
      <contour>
        <pt x="1077" y="1652" on="1"/>
        <pt x="1077" y="1629" on="1"/>
        <pt x="1077" y="1589" on="0"/>
        <pt x="1015" y="1527" on="0"/>
        <pt x="970" y="1527" on="1"/>
        <pt x="959" y="1527" on="1"/>
        <pt x="955" y="1528" on="1"/>
        <pt x="948" y="1528" on="1"/>
        <pt x="940" y="1530" on="0"/>
        <pt x="937" y="1530" on="1"/>
        <pt x="912" y="1530" on="0"/>
        <pt x="854" y="1588" on="0"/>
        <pt x="854" y="1627" on="1"/>
        <pt x="854" y="1649" on="1"/>
        <pt x="854" y="1689" on="0"/>
        <pt x="913" y="1748" on="0"/>
        <pt x="943" y="1748" on="1"/>
        <pt x="951" y="1750" on="0"/>
        <pt x="954" y="1750" on="1"/>
        <pt x="969" y="1751" on="1"/>
        <pt x="973" y="1750" on="1"/>
        <pt x="976" y="1750" on="1"/>
        <pt x="1018" y="1750" on="0"/>
        <pt x="1077" y="1691" on="0"/>
      </contour>
      <contour>
        <pt x="784" y="82" on="1"/>
        <pt x="1117" y="82" on="0"/>
        <pt x="1151" y="437" on="1"/>
        <pt x="1161" y="540" on="0"/>
        <pt x="1161" y="1095" on="0"/>
        <pt x="1126" y="1221" on="0"/>
        <pt x="1033" y="1333" on="0"/>
        <pt x="1033" y="1334" on="1"/>
        <pt x="1033" y="1376" on="0"/>
        <pt x="1198" y="1376" on="1"/>
        <pt x="1237" y="1376" on="1"/>
        <pt x="1427" y="1376" on="0"/>
        <pt x="1427" y="1295" on="0"/>
        <pt x="1304" y="1235" on="0"/>
        <pt x="1279" y="1119" on="0"/>
        <pt x="1279" y="810" on="1"/>
        <pt x="1279" y="782" on="0"/>
        <pt x="1279" y="755" on="1"/>
        <pt x="1279" y="490" on="0"/>
        <pt x="1270" y="388" on="1"/>
        <pt x="1249" y="142" on="0"/>
        <pt x="1046" y="34" on="1"/>
        <pt x="931" y="-27" on="0"/>
        <pt x="601" y="-27" on="0"/>
        <pt x="361" y="63" on="0"/>
        <pt x="287" y="170" on="1"/>
        <pt x="234" y="247" on="0"/>
        <pt x="203" y="432" on="0"/>
        <pt x="203" y="1120" on="0"/>
        <pt x="179" y="1237" on="0"/>
        <pt x="133" y="1263" on="1"/>
        <pt x="54" y="1307" on="0"/>
        <pt x="54" y="1376" on="0"/>
        <pt x="203" y="1376" on="1"/>
        <pt x="318" y="1376" on="1"/>
        <pt x="526" y="1376" on="0"/>
        <pt x="526" y="1331" on="1"/>
        <pt x="526" y="1320" on="0"/>
        <pt x="444" y="1261" on="0"/>
        <pt x="413" y="1195" on="0"/>
        <pt x="413" y="978" on="1"/>
        <pt x="415" y="856" on="1"/>
        <pt x="416" y="817" on="1"/>
        <pt x="416" y="656" on="1"/>
        <pt x="416" y="333" on="0"/>
        <pt x="483" y="226" on="1"/>
        <pt x="523" y="162" on="0"/>
        <pt x="678" y="82" on="0"/>
      </contour>
    </TTGlyph>
    <TTGlyph name="Ugrave" xMin="63" yMin="-24" xMax="1437" yMax="1821">
      <contour>
        <pt x="474" y="1747" on="1"/>
        <pt x="474" y="1762" on="1"/>
        <pt x="474" y="1781" on="0"/>
        <pt x="527" y="1821" on="0"/>
        <pt x="560" y="1821" on="1"/>
        <pt x="576" y="1821" on="1"/>
        <pt x="622" y="1821" on="0"/>
        <pt x="696" y="1755" on="1"/>
        <pt x="886" y="1586" on="0"/>
        <pt x="886" y="1533" on="1"/>
        <pt x="885" y="1528" on="1"/>
        <pt x="885" y="1523" on="1"/>
        <pt x="885" y="1497" on="0"/>
        <pt x="851" y="1497" on="1"/>
        <pt x="840" y="1497" on="1"/>
        <pt x="795" y="1497" on="0"/>
        <pt x="576" y="1643" on="1"/>
        <pt x="474" y="1711" on="0"/>
      </contour>
      <contour>
        <pt x="1170" y="845" on="1"/>
        <pt x="1170" y="1082" on="0"/>
        <pt x="1137" y="1217" on="0"/>
        <pt x="1101" y="1269" on="0"/>
        <pt x="1044" y="1323" on="0"/>
        <pt x="1044" y="1330" on="1"/>
        <pt x="1044" y="1379" on="0"/>
        <pt x="1193" y="1379" on="1"/>
        <pt x="1271" y="1379" on="1"/>
        <pt x="1381" y="1379" on="0"/>
        <pt x="1437" y="1353" on="0"/>
        <pt x="1437" y="1323" on="1"/>
        <pt x="1437" y="1304" on="0"/>
        <pt x="1314" y="1233" on="0"/>
        <pt x="1288" y="1147" on="0"/>
        <pt x="1288" y="469" on="0"/>
        <pt x="1264" y="276" on="0"/>
        <pt x="1220" y="198" on="1"/>
        <pt x="1096" y="-24" on="0"/>
        <pt x="439" y="-24" on="0"/>
        <pt x="302" y="164" on="1"/>
        <pt x="248" y="239" on="0"/>
        <pt x="212" y="423" on="0"/>
        <pt x="212" y="1155" on="0"/>
        <pt x="190" y="1216" on="1"/>
        <pt x="178" y="1249" on="0"/>
        <pt x="63" y="1310" on="0"/>
        <pt x="63" y="1334" on="1"/>
        <pt x="63" y="1379" on="0"/>
        <pt x="203" y="1379" on="1"/>
        <pt x="318" y="1379" on="1"/>
        <pt x="356" y="1378" on="1"/>
        <pt x="541" y="1378" on="0"/>
        <pt x="541" y="1340" on="1"/>
        <pt x="541" y="1322" on="0"/>
        <pt x="450" y="1259" on="0"/>
        <pt x="423" y="1168" on="0"/>
        <pt x="423" y="957" on="1"/>
        <pt x="425" y="836" on="1"/>
        <pt x="426" y="796" on="1"/>
        <pt x="426" y="715" on="1"/>
        <pt x="425" y="635" on="1"/>
        <pt x="425" y="466" on="0"/>
        <pt x="441" y="372" on="1"/>
        <pt x="490" y="86" on="0"/>
        <pt x="811" y="86" on="1"/>
        <pt x="1035" y="86" on="0"/>
        <pt x="1122" y="281" on="1"/>
        <pt x="1170" y="389" on="0"/>
      </contour>
    </TTGlyph>
    <TTGlyph name="V" xMin="33" yMin="-4" xMax="1401" yMax="1394">
      <contour>
        <pt x="778" y="-4" on="0"/>
        <pt x="676" y="-4" on="0"/>
        <pt x="626" y="52" on="0"/>
        <pt x="555" y="212" on="0"/>
        <pt x="220" y="1133" on="0"/>
        <pt x="157" y="1255" on="0"/>
        <pt x="123" y="1277" on="1"/>
        <pt x="33" y="1336" on="0"/>
        <pt x="33" y="1339" on="1"/>
        <pt x="33" y="1360" on="1"/>
        <pt x="33" y="1389" on="0"/>
        <pt x="479" y="1389" on="0"/>
        <pt x="479" y="1353" on="1"/>
        <pt x="479" y="1329" on="0"/>
        <pt x="423" y="1259" on="0"/>
        <pt x="423" y="1184" on="0"/>
        <pt x="522" y="909" on="0"/>
        <pt x="592" y="700" on="1"/>
        <pt x="734" y="274" on="0"/>
        <pt x="774" y="274" on="1"/>
        <pt x="780" y="274" on="0"/>
        <pt x="914" y="572" on="0"/>
        <pt x="1056" y="1005" on="1"/>
        <pt x="1104" y="1151" on="0"/>
        <pt x="1104" y="1254" on="0"/>
        <pt x="1073" y="1290" on="1"/>
        <pt x="1039" y="1321" on="1"/>
        <pt x="1020" y="1339" on="0"/>
        <pt x="1020" y="1351" on="1"/>
        <pt x="1020" y="1394" on="0"/>
        <pt x="1233" y="1394" on="1"/>
        <pt x="1267" y="1394" on="1"/>
        <pt x="1401" y="1394" on="0"/>
        <pt x="1401" y="1346" on="1"/>
        <pt x="1401" y="1322" on="0"/>
        <pt x="1323" y="1272" on="1"/>
        <pt x="1276" y="1242" on="0"/>
        <pt x="1208" y="1108" on="0"/>
        <pt x="936" y="360" on="0"/>
      </contour>
    </TTGlyph>
    <TTGlyph name="W" xMin="100" yMin="67" xMax="1956" yMax="1386">
      <contour>
        <pt x="210" y="1380" on="1"/>
        <pt x="359" y="1380" on="0"/>
        <pt x="443" y="1304" on="0"/>
        <pt x="443" y="1050" on="0"/>
        <pt x="604" y="558" on="1"/>
        <pt x="648" y="423" on="0"/>
        <pt x="695" y="423" on="1"/>
        <pt x="725" y="423" on="0"/>
        <pt x="788" y="526" on="0"/>
        <pt x="884" y="859" on="0"/>
        <pt x="884" y="1045" on="1"/>
        <pt x="884" y="1088" on="0"/>
        <pt x="867" y="1142" on="1"/>
        <pt x="851" y="1182" on="1"/>
        <pt x="838" y="1221" on="1"/>
        <pt x="838" y="1282" on="0"/>
        <pt x="961" y="1356" on="0"/>
        <pt x="1092" y="1356" on="0"/>
        <pt x="1141" y="1328" on="1"/>
        <pt x="1222" y="1281" on="0"/>
        <pt x="1222" y="1234" on="1"/>
        <pt x="1219" y="1195" on="1"/>
        <pt x="1208" y="1158" on="1"/>
        <pt x="1202" y="1120" on="1"/>
        <pt x="1202" y="1077" on="0"/>
        <pt x="1370" y="529" on="0"/>
        <pt x="1414" y="426" on="0"/>
        <pt x="1459" y="426" on="1"/>
        <pt x="1496" y="426" on="0"/>
        <pt x="1534" y="543" on="1"/>
        <pt x="1695" y="1035" on="0"/>
        <pt x="1695" y="1137" on="1"/>
        <pt x="1695" y="1173" on="0"/>
        <pt x="1688" y="1223" on="1"/>
        <pt x="1678" y="1293" on="1"/>
        <pt x="1678" y="1386" on="0"/>
        <pt x="1823" y="1386" on="1"/>
        <pt x="1893" y="1386" on="0"/>
        <pt x="1956" y="1343" on="0"/>
        <pt x="1956" y="1288" on="0"/>
        <pt x="1921" y="1227" on="1"/>
        <pt x="1893" y="1185" on="1"/>
        <pt x="1850" y="1120" on="0"/>
        <pt x="1838" y="1095" on="1"/>
        <pt x="1817" y="1043" on="1"/>
        <pt x="1791" y="975" on="0"/>
        <pt x="1589" y="328" on="0"/>
        <pt x="1503" y="134" on="0"/>
        <pt x="1424" y="69" on="0"/>
        <pt x="1395" y="69" on="1"/>
        <pt x="1327" y="69" on="0"/>
        <pt x="1268" y="213" on="1"/>
        <pt x="1244" y="272" on="0"/>
        <pt x="1074" y="815" on="0"/>
        <pt x="1050" y="874" on="1"/>
        <pt x="1032" y="911" on="1"/>
        <pt x="1012" y="911" on="0"/>
        <pt x="796" y="269" on="0"/>
        <pt x="757" y="188" on="1"/>
        <pt x="699" y="67" on="0"/>
        <pt x="625" y="67" on="1"/>
        <pt x="593" y="77" on="1"/>
        <pt x="546" y="103" on="0"/>
        <pt x="484" y="234" on="0"/>
        <pt x="280" y="912" on="0"/>
        <pt x="211" y="1097" on="0"/>
        <pt x="100" y="1283" on="0"/>
        <pt x="100" y="1327" on="0"/>
        <pt x="157" y="1380" on="0"/>
      </contour>
    </TTGlyph>
    <TTGlyph name="X" xMin="76" yMin="3" xMax="1356" yMax="1394">
      <contour>
        <pt x="93" y="1340" on="1"/>
        <pt x="93" y="1384" on="0"/>
        <pt x="341" y="1384" on="1"/>
        <pt x="468" y="1387" on="1"/>
        <pt x="563" y="1387" on="0"/>
        <pt x="563" y="1345" on="1"/>
        <pt x="563" y="1333" on="0"/>
        <pt x="509" y="1275" on="0"/>
        <pt x="509" y="1262" on="1"/>
        <pt x="509" y="1213" on="0"/>
        <pt x="665" y="984" on="1"/>
        <pt x="734" y="883" on="0"/>
        <pt x="759" y="883" on="1"/>
        <pt x="774" y="883" on="0"/>
        <pt x="860" y="998" on="1"/>
        <pt x="1010" y="1199" on="0"/>
        <pt x="1010" y="1270" on="1"/>
        <pt x="1010" y="1283" on="0"/>
        <pt x="944" y="1343" on="0"/>
        <pt x="944" y="1352" on="1"/>
        <pt x="944" y="1394" on="0"/>
        <pt x="1091" y="1394" on="1"/>
        <pt x="1133" y="1394" on="1"/>
        <pt x="1328" y="1394" on="0"/>
        <pt x="1328" y="1352" on="1"/>
        <pt x="1328" y="1325" on="0"/>
        <pt x="1177" y="1255" on="0"/>
        <pt x="1122" y="1187" on="1"/>
        <pt x="839" y="838" on="0"/>
        <pt x="839" y="662" on="0"/>
        <pt x="1174" y="204" on="1"/>
        <pt x="1215" y="148" on="0"/>
        <pt x="1258" y="122" on="1"/>
        <pt x="1356" y="62" on="0"/>
        <pt x="1356" y="47" on="1"/>
        <pt x="1356" y="3" on="0"/>
        <pt x="1065" y="3" on="1"/>
        <pt x="983" y="3" on="1"/>
        <pt x="898" y="3" on="0"/>
        <pt x="898" y="43" on="1"/>
        <pt x="909" y="62" on="1"/>
        <pt x="922" y="82" on="1"/>
        <pt x="938" y="109" on="0"/>
        <pt x="938" y="158" on="0"/>
        <pt x="758" y="449" on="1"/>
        <pt x="696" y="550" on="0"/>
        <pt x="663" y="550" on="1"/>
        <pt x="648" y="550" on="0"/>
        <pt x="563" y="431" on="1"/>
        <pt x="395" y="194" on="0"/>
        <pt x="395" y="123" on="1"/>
        <pt x="395" y="106" on="0"/>
        <pt x="462" y="52" on="0"/>
        <pt x="462" y="45" on="1"/>
        <pt x="462" y="3" on="0"/>
        <pt x="318" y="3" on="1"/>
        <pt x="276" y="3" on="1"/>
        <pt x="76" y="3" on="0"/>
        <pt x="76" y="37" on="1"/>
        <pt x="76" y="62" on="0"/>
        <pt x="179" y="118" on="1"/>
        <pt x="233" y="147" on="0"/>
        <pt x="301" y="233" on="1"/>
        <pt x="598" y="607" on="0"/>
        <pt x="598" y="704" on="1"/>
        <pt x="598" y="719" on="0"/>
        <pt x="562" y="777" on="1"/>
        <pt x="375" y="1077" on="0"/>
        <pt x="260" y="1214" on="1"/>
        <pt x="222" y="1259" on="0"/>
        <pt x="93" y="1317" on="0"/>
      </contour>
    </TTGlyph>
    <TTGlyph name="Y" xMin="63" yMin="-8" xMax="1294" yMax="1395">
      <contour>
        <pt x="435" y="27" on="1"/>
        <pt x="435" y="62" on="0"/>
        <pt x="540" y="128" on="0"/>
        <pt x="574" y="220" on="0"/>
        <pt x="574" y="553" on="0"/>
        <pt x="487" y="716" on="1"/>
        <pt x="291" y="1082" on="0"/>
        <pt x="182" y="1234" on="0"/>
        <pt x="63" y="1297" on="0"/>
        <pt x="63" y="1362" on="0"/>
        <pt x="204" y="1385" on="0"/>
        <pt x="378" y="1385" on="1"/>
        <pt x="492" y="1385" on="0"/>
        <pt x="492" y="1341" on="1"/>
        <pt x="492" y="1332" on="0"/>
        <pt x="438" y="1270" on="0"/>
        <pt x="438" y="1258" on="1"/>
        <pt x="438" y="1178" on="0"/>
        <pt x="625" y="854" on="1"/>
        <pt x="691" y="739" on="0"/>
        <pt x="709" y="739" on="1"/>
        <pt x="751" y="739" on="0"/>
        <pt x="923" y="1083" on="1"/>
        <pt x="973" y="1183" on="0"/>
        <pt x="973" y="1247" on="1"/>
        <pt x="973" y="1269" on="0"/>
        <pt x="933" y="1332" on="0"/>
        <pt x="933" y="1349" on="1"/>
        <pt x="933" y="1395" on="0"/>
        <pt x="1142" y="1395" on="1"/>
        <pt x="1174" y="1395" on="1"/>
        <pt x="1294" y="1395" on="0"/>
        <pt x="1294" y="1325" on="0"/>
        <pt x="1156" y="1239" on="0"/>
        <pt x="1119" y="1184" on="1"/>
        <pt x="949" y="931" on="0"/>
        <pt x="827" y="645" on="1"/>
        <pt x="781" y="537" on="0"/>
        <pt x="781" y="222" on="1"/>
        <pt x="781" y="156" on="0"/>
        <pt x="824" y="103" on="0"/>
        <pt x="923" y="57" on="0"/>
        <pt x="923" y="32" on="1"/>
        <pt x="923" y="-8" on="0"/>
        <pt x="813" y="-8" on="1"/>
        <pt x="625" y="-3" on="1"/>
        <pt x="435" y="-3" on="0"/>
      </contour>
    </TTGlyph>
    <TTGlyph name="Yacute" xMin="14" yMin="7" xMax="1285" yMax="1821">
      <contour>
        <pt x="573" y="1503" on="1"/>
        <pt x="573" y="1517" on="1"/>
        <pt x="573" y="1524" on="0"/>
        <pt x="734" y="1730" on="0"/>
        <pt x="851" y="1821" on="0"/>
        <pt x="923" y="1821" on="0"/>
        <pt x="978" y="1773" on="0"/>
        <pt x="978" y="1754" on="1"/>
        <pt x="978" y="1744" on="1"/>
        <pt x="977" y="1739" on="1"/>
        <pt x="977" y="1709" on="0"/>
        <pt x="870" y="1641" on="1"/>
        <pt x="614" y="1478" on="0"/>
        <pt x="608" y="1478" on="1"/>
        <pt x="573" y="1478" on="0"/>
      </contour>
      <contour>
        <pt x="312" y="1384" on="1"/>
        <pt x="474" y="1384" on="0"/>
        <pt x="474" y="1338" on="1"/>
        <pt x="474" y="1327" on="0"/>
        <pt x="418" y="1269" on="0"/>
        <pt x="418" y="1258" on="1"/>
        <pt x="418" y="1191" on="0"/>
        <pt x="606" y="861" on="1"/>
        <pt x="672" y="745" on="0"/>
        <pt x="693" y="745" on="1"/>
        <pt x="725" y="745" on="0"/>
        <pt x="958" y="1155" on="0"/>
        <pt x="958" y="1223" on="1"/>
        <pt x="958" y="1256" on="0"/>
        <pt x="901" y="1333" on="0"/>
        <pt x="901" y="1342" on="1"/>
        <pt x="901" y="1387" on="0"/>
        <pt x="1128" y="1387" on="1"/>
        <pt x="1194" y="1387" on="1"/>
        <pt x="1285" y="1387" on="0"/>
        <pt x="1285" y="1322" on="0"/>
        <pt x="1150" y="1245" on="0"/>
        <pt x="1106" y="1182" on="1"/>
        <pt x="959" y="974" on="0"/>
        <pt x="821" y="682" on="1"/>
        <pt x="774" y="583" on="0"/>
        <pt x="774" y="185" on="0"/>
        <pt x="809" y="118" on="0"/>
        <pt x="918" y="68" on="0"/>
        <pt x="918" y="43" on="1"/>
        <pt x="918" y="7" on="0"/>
        <pt x="827" y="7" on="1"/>
        <pt x="794" y="7" on="1"/>
        <pt x="695" y="10" on="1"/>
        <pt x="565" y="9" on="1"/>
        <pt x="392" y="9" on="0"/>
        <pt x="392" y="47" on="1"/>
        <pt x="392" y="67" on="0"/>
        <pt x="498" y="130" on="0"/>
        <pt x="535" y="214" on="0"/>
        <pt x="535" y="575" on="0"/>
        <pt x="438" y="745" on="1"/>
        <pt x="222" y="1126" on="0"/>
        <pt x="138" y="1242" on="0"/>
        <pt x="14" y="1310" on="0"/>
        <pt x="14" y="1368" on="0"/>
        <pt x="81" y="1384" on="0"/>
      </contour>
    </TTGlyph>
    <TTGlyph name="Ydieresis" xMin="55" yMin="-16" xMax="1240" yMax="1737">
      <contour>
        <pt x="481" y="1521" on="1"/>
        <pt x="467" y="1521" on="1"/>
        <pt x="436" y="1526" on="1"/>
        <pt x="414" y="1526" on="0"/>
        <pt x="373" y="1578" on="0"/>
        <pt x="373" y="1598" on="1"/>
        <pt x="370" y="1615" on="1"/>
        <pt x="370" y="1640" on="1"/>
        <pt x="370" y="1678" on="0"/>
        <pt x="429" y="1737" on="0"/>
        <pt x="468" y="1737" on="1"/>
        <pt x="489" y="1737" on="1"/>
        <pt x="517" y="1732" on="1"/>
        <pt x="528" y="1732" on="0"/>
        <pt x="579" y="1691" on="0"/>
        <pt x="579" y="1665" on="1"/>
        <pt x="581" y="1657" on="0"/>
        <pt x="581" y="1654" on="1"/>
        <pt x="583" y="1640" on="1"/>
        <pt x="583" y="1622" on="1"/>
        <pt x="579" y="1597" on="1"/>
        <pt x="579" y="1576" on="0"/>
        <pt x="524" y="1521" on="0"/>
      </contour>
      <contour>
        <pt x="861" y="1521" on="1"/>
        <pt x="847" y="1521" on="1"/>
        <pt x="799" y="1521" on="0"/>
        <pt x="749" y="1583" on="0"/>
        <pt x="749" y="1623" on="1"/>
        <pt x="749" y="1634" on="1"/>
        <pt x="754" y="1665" on="1"/>
        <pt x="754" y="1683" on="0"/>
        <pt x="808" y="1737" on="0"/>
        <pt x="844" y="1737" on="1"/>
        <pt x="873" y="1737" on="1"/>
        <pt x="910" y="1737" on="0"/>
        <pt x="959" y="1688" on="0"/>
        <pt x="959" y="1665" on="1"/>
        <pt x="961" y="1659" on="0"/>
        <pt x="961" y="1655" on="1"/>
        <pt x="963" y="1640" on="1"/>
        <pt x="963" y="1622" on="1"/>
        <pt x="959" y="1598" on="1"/>
        <pt x="959" y="1572" on="0"/>
        <pt x="895" y="1521" on="0"/>
      </contour>
      <contour>
        <pt x="55" y="1277" on="0"/>
        <pt x="55" y="1358" on="0"/>
        <pt x="360" y="1358" on="1"/>
        <pt x="465" y="1358" on="0"/>
        <pt x="465" y="1318" on="1"/>
        <pt x="465" y="1306" on="0"/>
        <pt x="404" y="1245" on="0"/>
        <pt x="404" y="1216" on="1"/>
        <pt x="404" y="1141" on="0"/>
        <pt x="587" y="834" on="1"/>
        <pt x="651" y="727" on="0"/>
        <pt x="693" y="727" on="0"/>
        <pt x="736" y="812" on="1"/>
        <pt x="924" y="1182" on="0"/>
        <pt x="924" y="1239" on="1"/>
        <pt x="924" y="1266" on="0"/>
        <pt x="875" y="1330" on="0"/>
        <pt x="875" y="1332" on="1"/>
        <pt x="875" y="1367" on="0"/>
        <pt x="966" y="1367" on="1"/>
        <pt x="996" y="1369" on="1"/>
        <pt x="1027" y="1370" on="1"/>
        <pt x="1090" y="1372" on="0"/>
        <pt x="1091" y="1372" on="1"/>
        <pt x="1240" y="1372" on="0"/>
        <pt x="1240" y="1320" on="1"/>
        <pt x="1240" y="1301" on="0"/>
        <pt x="1098" y="1218" on="0"/>
        <pt x="1049" y="1142" on="1"/>
        <pt x="943" y="977" on="0"/>
        <pt x="781" y="642" on="1"/>
        <pt x="724" y="524" on="0"/>
        <pt x="724" y="255" on="1"/>
        <pt x="724" y="148" on="0"/>
        <pt x="763" y="103" on="0"/>
        <pt x="885" y="51" on="0"/>
        <pt x="885" y="32" on="1"/>
        <pt x="885" y="-16" on="0"/>
        <pt x="815" y="-16" on="1"/>
        <pt x="754" y="-16" on="1"/>
        <pt x="662" y="-13" on="1"/>
        <pt x="569" y="-10" on="0"/>
        <pt x="537" y="-10" on="1"/>
        <pt x="400" y="-10" on="0"/>
        <pt x="400" y="34" on="1"/>
        <pt x="400" y="59" on="0"/>
        <pt x="509" y="118" on="0"/>
        <pt x="549" y="203" on="0"/>
        <pt x="549" y="545" on="0"/>
        <pt x="468" y="699" on="1"/>
        <pt x="293" y="1032" on="0"/>
        <pt x="191" y="1188" on="0"/>
      </contour>
    </TTGlyph>
    <TTGlyph name="Z" xMin="109" yMin="-7" xMax="1187" yMax="1395">
      <contour>
        <pt x="109" y="58" on="1"/>
        <pt x="109" y="136" on="0"/>
        <pt x="852" y="1202" on="0"/>
        <pt x="852" y="1285" on="0"/>
        <pt x="694" y="1285" on="1"/>
        <pt x="408" y="1285" on="0"/>
        <pt x="323" y="1241" on="1"/>
        <pt x="285" y="1221" on="0"/>
        <pt x="197" y="1065" on="0"/>
        <pt x="163" y="1065" on="1"/>
        <pt x="120" y="1065" on="0"/>
        <pt x="120" y="1126" on="1"/>
        <pt x="120" y="1326" on="0"/>
        <pt x="163" y="1369" on="1"/>
        <pt x="189" y="1395" on="0"/>
        <pt x="491" y="1395" on="1"/>
        <pt x="611" y="1395" on="1"/>
        <pt x="691" y="1394" on="1"/>
        <pt x="731" y="1393" on="0"/>
        <pt x="771" y="1393" on="1"/>
        <pt x="850" y="1391" on="1"/>
        <pt x="890" y="1390" on="0"/>
        <pt x="969" y="1390" on="1"/>
        <pt x="1146" y="1390" on="0"/>
        <pt x="1146" y="1297" on="0"/>
        <pt x="409" y="158" on="0"/>
        <pt x="409" y="123" on="1"/>
        <pt x="409" y="100" on="0"/>
        <pt x="881" y="100" on="0"/>
        <pt x="971" y="135" on="1"/>
        <pt x="1027" y="157" on="0"/>
        <pt x="1064" y="223" on="1"/>
        <pt x="1127" y="335" on="0"/>
        <pt x="1151" y="335" on="1"/>
        <pt x="1187" y="335" on="0"/>
        <pt x="1187" y="279" on="1"/>
        <pt x="1187" y="102" on="0"/>
        <pt x="1139" y="36" on="1"/>
        <pt x="1108" y="-7" on="0"/>
        <pt x="943" y="-7" on="1"/>
        <pt x="710" y="-7" on="1"/>
        <pt x="283" y="1" on="1"/>
        <pt x="166" y="1" on="0"/>
        <pt x="109" y="30" on="0"/>
      </contour>
    </TTGlyph>
    <TTGlyph name="Zcaron" xMin="108" yMin="20" xMax="1130" yMax="1802">
      <contour>
        <pt x="390" y="1802" on="1"/>
        <pt x="403" y="1802" on="1"/>
        <pt x="432" y="1802" on="0"/>
        <pt x="527" y="1727" on="1"/>
        <pt x="541" y="1716" on="0"/>
        <pt x="627" y="1630" on="0"/>
        <pt x="647" y="1630" on="0"/>
        <pt x="836" y="1785" on="0"/>
        <pt x="921" y="1785" on="0"/>
        <pt x="921" y="1755" on="1"/>
        <pt x="921" y="1733" on="0"/>
        <pt x="669" y="1481" on="0"/>
        <pt x="599" y="1481" on="0"/>
        <pt x="509" y="1598" on="1"/>
        <pt x="489" y="1624" on="0"/>
        <pt x="351" y="1762" on="0"/>
        <pt x="351" y="1778" on="1"/>
        <pt x="351" y="1802" on="0"/>
      </contour>
      <contour>
        <pt x="270" y="27" on="0"/>
        <pt x="108" y="27" on="0"/>
        <pt x="108" y="87" on="1"/>
        <pt x="108" y="158" on="0"/>
        <pt x="835" y="1192" on="0"/>
        <pt x="835" y="1250" on="1"/>
        <pt x="835" y="1282" on="0"/>
        <pt x="668" y="1282" on="1"/>
        <pt x="379" y="1282" on="0"/>
        <pt x="306" y="1243" on="1"/>
        <pt x="260" y="1218" on="0"/>
        <pt x="183" y="1057" on="0"/>
        <pt x="152" y="1057" on="1"/>
        <pt x="112" y="1057" on="0"/>
        <pt x="112" y="1281" on="0"/>
        <pt x="151" y="1379" on="0"/>
        <pt x="234" y="1379" on="1"/>
        <pt x="270" y="1377" on="1"/>
        <pt x="307" y="1376" on="1"/>
        <pt x="382" y="1375" on="1"/>
        <pt x="575" y="1373" on="1"/>
        <pt x="807" y="1369" on="1"/>
        <pt x="844" y="1371" on="1"/>
        <pt x="881" y="1373" on="0"/>
        <pt x="921" y="1374" on="1"/>
        <pt x="1035" y="1378" on="1"/>
        <pt x="1107" y="1378" on="0"/>
        <pt x="1107" y="1307" on="1"/>
        <pt x="1107" y="1273" on="0"/>
        <pt x="931" y="1023" on="1"/>
        <pt x="874" y="941" on="0"/>
        <pt x="369" y="148" on="0"/>
        <pt x="369" y="139" on="1"/>
        <pt x="369" y="114" on="0"/>
        <pt x="884" y="114" on="0"/>
        <pt x="941" y="151" on="1"/>
        <pt x="979" y="176" on="0"/>
        <pt x="1061" y="342" on="0"/>
        <pt x="1091" y="342" on="1"/>
        <pt x="1130" y="342" on="0"/>
        <pt x="1130" y="286" on="1"/>
        <pt x="1130" y="252" on="1"/>
        <pt x="1130" y="110" on="0"/>
        <pt x="1088" y="54" on="1"/>
        <pt x="1062" y="20" on="0"/>
        <pt x="972" y="20" on="1"/>
        <pt x="899" y="20" on="1"/>
        <pt x="863" y="21" on="1"/>
        <pt x="677" y="24" on="1"/>
        <pt x="418" y="32" on="1"/>
        <pt x="381" y="31" on="1"/>
        <pt x="307" y="28" on="1"/>
      </contour>
    </TTGlyph>
    <TTGlyph name="a" xMin="84" yMin="-20" xMax="973" yMax="974">
      <contour>
        <pt x="563" y="462" on="1"/>
        <pt x="433" y="462" on="0"/>
        <pt x="271" y="336" on="0"/>
        <pt x="271" y="262" on="1"/>
        <pt x="271" y="228" on="1"/>
        <pt x="273" y="216" on="0"/>
        <pt x="273" y="208" on="1"/>
        <pt x="273" y="160" on="0"/>
        <pt x="358" y="94" on="0"/>
        <pt x="400" y="94" on="1"/>
        <pt x="432" y="94" on="1"/>
        <pt x="498" y="94" on="0"/>
        <pt x="581" y="152" on="1"/>
        <pt x="641" y="194" on="0"/>
        <pt x="641" y="258" on="1"/>
        <pt x="643" y="270" on="0"/>
        <pt x="643" y="276" on="1"/>
        <pt x="645" y="302" on="1"/>
        <pt x="645" y="333" on="1"/>
        <pt x="646" y="352" on="1"/>
        <pt x="646" y="421" on="1"/>
        <pt x="646" y="465" on="0"/>
        <pt x="620" y="465" on="1"/>
        <pt x="595" y="465" on="1"/>
        <pt x="577" y="462" on="0"/>
      </contour>
      <contour>
        <pt x="478" y="974" on="1"/>
        <pt x="503" y="974" on="1"/>
        <pt x="712" y="974" on="0"/>
        <pt x="789" y="847" on="1"/>
        <pt x="836" y="769" on="0"/>
        <pt x="836" y="201" on="0"/>
        <pt x="844" y="174" on="1"/>
        <pt x="857" y="129" on="0"/>
        <pt x="901" y="114" on="1"/>
        <pt x="973" y="89" on="0"/>
        <pt x="973" y="80" on="1"/>
        <pt x="973" y="65" on="1"/>
        <pt x="973" y="45" on="0"/>
        <pt x="881" y="-9" on="0"/>
        <pt x="791" y="-9" on="1"/>
        <pt x="739" y="-9" on="0"/>
        <pt x="655" y="82" on="0"/>
        <pt x="642" y="82" on="1"/>
        <pt x="641" y="82" on="0"/>
        <pt x="421" y="-20" on="0"/>
        <pt x="358" y="-20" on="1"/>
        <pt x="311" y="-20" on="1"/>
        <pt x="215" y="-20" on="0"/>
        <pt x="84" y="115" on="0"/>
        <pt x="84" y="194" on="1"/>
        <pt x="84" y="219" on="1"/>
        <pt x="84" y="345" on="0"/>
        <pt x="179" y="421" on="1"/>
        <pt x="244" y="473" on="0"/>
        <pt x="366" y="507" on="1"/>
        <pt x="380" y="511" on="0"/>
        <pt x="572" y="552" on="0"/>
        <pt x="593" y="562" on="1"/>
        <pt x="648" y="589" on="0"/>
        <pt x="648" y="770" on="0"/>
        <pt x="550" y="875" on="0"/>
        <pt x="380" y="875" on="0"/>
        <pt x="254" y="689" on="0"/>
        <pt x="186" y="689" on="1"/>
        <pt x="171" y="689" on="0"/>
        <pt x="125" y="733" on="0"/>
        <pt x="125" y="780" on="1"/>
        <pt x="125" y="853" on="0"/>
        <pt x="203" y="899" on="1"/>
        <pt x="330" y="974" on="0"/>
      </contour>
    </TTGlyph>
    <TTGlyph name="aacute" xMin="78" yMin="-21" xMax="974" yMax="1451">
      <contour>
        <pt x="565" y="476" on="1"/>
        <pt x="435" y="476" on="0"/>
        <pt x="340" y="402" on="1"/>
        <pt x="271" y="348" on="0"/>
        <pt x="271" y="247" on="1"/>
        <pt x="271" y="233" on="1"/>
        <pt x="271" y="184" on="0"/>
        <pt x="337" y="99" on="0"/>
        <pt x="401" y="99" on="1"/>
        <pt x="421" y="99" on="1"/>
        <pt x="519" y="99" on="0"/>
        <pt x="645" y="212" on="0"/>
        <pt x="645" y="279" on="1"/>
        <pt x="647" y="293" on="0"/>
        <pt x="647" y="299" on="1"/>
        <pt x="648" y="312" on="1"/>
        <pt x="648" y="325" on="1"/>
        <pt x="649" y="344" on="1"/>
        <pt x="649" y="383" on="1"/>
        <pt x="650" y="409" on="1"/>
        <pt x="650" y="415" on="1"/>
        <pt x="650" y="479" on="0"/>
        <pt x="616" y="479" on="1"/>
        <pt x="597" y="479" on="1"/>
        <pt x="579" y="476" on="0"/>
      </contour>
      <contour>
        <pt x="386" y="1106" on="1"/>
        <pt x="386" y="1116" on="1"/>
        <pt x="386" y="1160" on="0"/>
        <pt x="571" y="1398" on="1"/>
        <pt x="612" y="1451" on="0"/>
        <pt x="675" y="1451" on="1"/>
        <pt x="686" y="1451" on="1"/>
        <pt x="722" y="1451" on="0"/>
        <pt x="773" y="1411" on="0"/>
        <pt x="773" y="1393" on="1"/>
        <pt x="773" y="1383" on="1"/>
        <pt x="773" y="1351" on="0"/>
        <pt x="662" y="1240" on="1"/>
        <pt x="498" y="1076" on="0"/>
        <pt x="431" y="1076" on="1"/>
        <pt x="421" y="1076" on="1"/>
        <pt x="386" y="1076" on="0"/>
      </contour>
      <contour>
        <pt x="478" y="956" on="1"/>
        <pt x="504" y="956" on="1"/>
        <pt x="701" y="956" on="0"/>
        <pt x="782" y="831" on="1"/>
        <pt x="834" y="750" on="0"/>
        <pt x="834" y="186" on="0"/>
        <pt x="868" y="116" on="0"/>
        <pt x="974" y="89" on="0"/>
        <pt x="974" y="60" on="1"/>
        <pt x="974" y="47" on="0"/>
        <pt x="957" y="32" on="1"/>
        <pt x="907" y="-11" on="0"/>
        <pt x="793" y="-11" on="1"/>
        <pt x="743" y="-11" on="0"/>
        <pt x="652" y="80" on="0"/>
        <pt x="641" y="80" on="0"/>
        <pt x="423" y="-21" on="0"/>
        <pt x="359" y="-21" on="1"/>
        <pt x="312" y="-21" on="1"/>
        <pt x="213" y="-21" on="0"/>
        <pt x="78" y="114" on="0"/>
        <pt x="78" y="212" on="1"/>
        <pt x="78" y="237" on="1"/>
        <pt x="78" y="347" on="0"/>
        <pt x="187" y="424" on="1"/>
        <pt x="269" y="482" on="0"/>
        <pt x="423" y="511" on="1"/>
        <pt x="470" y="519" on="1"/>
        <pt x="556" y="536" on="0"/>
        <pt x="579" y="546" on="1"/>
        <pt x="636" y="571" on="0"/>
        <pt x="636" y="749" on="0"/>
        <pt x="546" y="853" on="0"/>
        <pt x="379" y="853" on="0"/>
        <pt x="263" y="671" on="0"/>
        <pt x="195" y="671" on="1"/>
        <pt x="177" y="671" on="0"/>
        <pt x="133" y="713" on="0"/>
        <pt x="133" y="759" on="1"/>
        <pt x="133" y="836" on="0"/>
        <pt x="341" y="956" on="0"/>
      </contour>
    </TTGlyph>
    <TTGlyph name="acircumflex" xMin="75" yMin="-22" xMax="978" yMax="1444">
      <contour>
        <pt x="265" y="252" on="1"/>
        <pt x="265" y="239" on="1"/>
        <pt x="267" y="225" on="0"/>
        <pt x="267" y="219" on="1"/>
        <pt x="267" y="177" on="0"/>
        <pt x="348" y="105" on="0"/>
        <pt x="402" y="105" on="1"/>
        <pt x="421" y="105" on="1"/>
        <pt x="537" y="105" on="0"/>
        <pt x="612" y="189" on="1"/>
        <pt x="648" y="230" on="0"/>
        <pt x="648" y="355" on="1"/>
        <pt x="648" y="374" on="1"/>
        <pt x="649" y="393" on="1"/>
        <pt x="649" y="470" on="0"/>
        <pt x="616" y="470" on="1"/>
        <pt x="591" y="470" on="1"/>
        <pt x="585" y="469" on="1"/>
        <pt x="532" y="464" on="1"/>
        <pt x="409" y="464" on="0"/>
        <pt x="325" y="389" on="1"/>
        <pt x="265" y="336" on="0"/>
      </contour>
      <contour>
        <pt x="483" y="1444" on="1"/>
        <pt x="499" y="1444" on="1"/>
        <pt x="539" y="1444" on="0"/>
        <pt x="586" y="1388" on="1"/>
        <pt x="782" y="1156" on="0"/>
        <pt x="782" y="1108" on="1"/>
        <pt x="782" y="1079" on="0"/>
        <pt x="738" y="1079" on="1"/>
        <pt x="731" y="1079" on="1"/>
        <pt x="701" y="1079" on="0"/>
        <pt x="496" y="1268" on="0"/>
        <pt x="486" y="1268" on="0"/>
        <pt x="271" y="1086" on="0"/>
        <pt x="252" y="1086" on="1"/>
        <pt x="211" y="1086" on="0"/>
        <pt x="211" y="1113" on="1"/>
        <pt x="211" y="1121" on="0"/>
        <pt x="353" y="1319" on="0"/>
        <pt x="368" y="1343" on="1"/>
        <pt x="433" y="1444" on="0"/>
      </contour>
      <contour>
        <pt x="476" y="964" on="1"/>
        <pt x="502" y="964" on="1"/>
        <pt x="705" y="964" on="0"/>
        <pt x="784" y="839" on="1"/>
        <pt x="836" y="758" on="0"/>
        <pt x="836" y="188" on="0"/>
        <pt x="872" y="114" on="0"/>
        <pt x="978" y="92" on="0"/>
        <pt x="978" y="61" on="1"/>
        <pt x="978" y="40" on="0"/>
        <pt x="886" y="-12" on="0"/>
        <pt x="796" y="-12" on="1"/>
        <pt x="749" y="-12" on="0"/>
        <pt x="654" y="79" on="0"/>
        <pt x="639" y="79" on="0"/>
        <pt x="421" y="-22" on="0"/>
        <pt x="225" y="-22" on="0"/>
        <pt x="150" y="40" on="1"/>
        <pt x="75" y="100" on="0"/>
        <pt x="75" y="220" on="1"/>
        <pt x="75" y="432" on="0"/>
        <pt x="379" y="506" on="1"/>
        <pt x="596" y="558" on="0"/>
        <pt x="601" y="561" on="1"/>
        <pt x="641" y="587" on="0"/>
        <pt x="641" y="756" on="0"/>
        <pt x="546" y="861" on="0"/>
        <pt x="378" y="861" on="0"/>
        <pt x="258" y="676" on="0"/>
        <pt x="190" y="676" on="1"/>
        <pt x="173" y="676" on="0"/>
        <pt x="128" y="719" on="0"/>
        <pt x="128" y="767" on="1"/>
        <pt x="128" y="846" on="0"/>
        <pt x="339" y="964" on="0"/>
      </contour>
    </TTGlyph>
    <TTGlyph name="acute" xMin="204" yMin="1124" xMax="588" yMax="1490">
      <contour>
        <pt x="253" y="1124" on="1"/>
        <pt x="237" y="1124" on="1"/>
        <pt x="204" y="1124" on="0"/>
        <pt x="204" y="1153" on="1"/>
        <pt x="205" y="1157" on="1"/>
        <pt x="205" y="1162" on="1"/>
        <pt x="205" y="1219" on="0"/>
        <pt x="391" y="1432" on="1"/>
        <pt x="442" y="1490" on="0"/>
        <pt x="499" y="1490" on="1"/>
        <pt x="504" y="1490" on="1"/>
        <pt x="588" y="1490" on="0"/>
        <pt x="588" y="1435" on="1"/>
        <pt x="588" y="1419" on="1"/>
        <pt x="588" y="1378" on="0"/>
        <pt x="461" y="1279" on="1"/>
        <pt x="262" y="1124" on="0"/>
      </contour>
    </TTGlyph>
    <TTGlyph name="adieresis" xMin="83" yMin="-27" xMax="972" yMax="1364">
      <contour>
        <pt x="570" y="470" on="1"/>
        <pt x="433" y="470" on="0"/>
        <pt x="266" y="340" on="0"/>
        <pt x="266" y="257" on="1"/>
        <pt x="266" y="237" on="1"/>
        <pt x="266" y="182" on="0"/>
        <pt x="337" y="101" on="0"/>
        <pt x="398" y="101" on="1"/>
        <pt x="417" y="101" on="1"/>
        <pt x="491" y="101" on="0"/>
        <pt x="636" y="203" on="0"/>
        <pt x="636" y="264" on="1"/>
        <pt x="638" y="276" on="1"/>
        <pt x="640" y="301" on="1"/>
        <pt x="640" y="314" on="1"/>
        <pt x="641" y="326" on="1"/>
        <pt x="641" y="351" on="1"/>
        <pt x="642" y="370" on="1"/>
        <pt x="642" y="426" on="1"/>
        <pt x="642" y="472" on="0"/>
        <pt x="619" y="472" on="1"/>
        <pt x="589" y="472" on="1"/>
        <pt x="575" y="470" on="0"/>
      </contour>
      <contour>
        <pt x="334" y="1361" on="0"/>
        <pt x="365" y="1361" on="0"/>
        <pt x="421" y="1305" on="0"/>
        <pt x="421" y="1269" on="1"/>
        <pt x="421" y="1239" on="1"/>
        <pt x="421" y="1203" on="0"/>
        <pt x="360" y="1142" on="0"/>
        <pt x="322" y="1142" on="1"/>
        <pt x="296" y="1142" on="1"/>
        <pt x="284" y="1145" on="0"/>
        <pt x="256" y="1145" on="0"/>
        <pt x="203" y="1198" on="0"/>
        <pt x="203" y="1223" on="1"/>
        <pt x="201" y="1229" on="0"/>
        <pt x="201" y="1233" on="1"/>
        <pt x="199" y="1252" on="1"/>
        <pt x="199" y="1259" on="1"/>
        <pt x="203" y="1284" on="1"/>
        <pt x="203" y="1306" on="0"/>
        <pt x="258" y="1361" on="0"/>
        <pt x="285" y="1361" on="1"/>
        <pt x="303" y="1364" on="1"/>
        <pt x="325" y="1364" on="1"/>
      </contour>
      <contour>
        <pt x="790" y="1231" on="1"/>
        <pt x="790" y="1231" on="0"/>
        <pt x="788" y="1213" on="1"/>
        <pt x="788" y="1188" on="0"/>
        <pt x="730" y="1130" on="0"/>
        <pt x="682" y="1130" on="1"/>
        <pt x="678" y="1130" on="1"/>
        <pt x="675" y="1131" on="1"/>
        <pt x="667" y="1131" on="1"/>
        <pt x="653" y="1133" on="1"/>
        <pt x="628" y="1133" on="0"/>
        <pt x="572" y="1189" on="0"/>
        <pt x="572" y="1228" on="1"/>
        <pt x="572" y="1250" on="1"/>
        <pt x="572" y="1290" on="0"/>
        <pt x="629" y="1347" on="0"/>
        <pt x="656" y="1347" on="1"/>
        <pt x="674" y="1350" on="1"/>
        <pt x="692" y="1350" on="1"/>
        <pt x="704" y="1347" on="0"/>
        <pt x="736" y="1347" on="0"/>
        <pt x="788" y="1295" on="0"/>
        <pt x="788" y="1267" on="1"/>
        <pt x="791" y="1245" on="1"/>
        <pt x="791" y="1234" on="1"/>
      </contour>
      <contour>
        <pt x="500" y="968" on="1"/>
        <pt x="709" y="968" on="0"/>
        <pt x="788" y="842" on="1"/>
        <pt x="835" y="766" on="0"/>
        <pt x="835" y="187" on="0"/>
        <pt x="866" y="117" on="0"/>
        <pt x="972" y="91" on="0"/>
        <pt x="972" y="60" on="1"/>
        <pt x="972" y="39" on="0"/>
        <pt x="883" y="-16" on="0"/>
        <pt x="747" y="-16" on="0"/>
        <pt x="716" y="11" on="1"/>
        <pt x="708" y="18" on="0"/>
        <pt x="659" y="76" on="0"/>
        <pt x="633" y="76" on="0"/>
        <pt x="546" y="32" on="0"/>
        <pt x="515" y="17" on="1"/>
        <pt x="420" y="-27" on="0"/>
        <pt x="215" y="-27" on="0"/>
        <pt x="83" y="109" on="0"/>
        <pt x="83" y="225" on="1"/>
        <pt x="83" y="428" on="0"/>
        <pt x="386" y="507" on="1"/>
        <pt x="606" y="564" on="0"/>
        <pt x="607" y="565" on="1"/>
        <pt x="647" y="592" on="0"/>
        <pt x="647" y="763" on="0"/>
        <pt x="548" y="869" on="0"/>
        <pt x="379" y="869" on="0"/>
        <pt x="257" y="683" on="0"/>
        <pt x="186" y="683" on="1"/>
        <pt x="169" y="683" on="0"/>
        <pt x="123" y="726" on="0"/>
        <pt x="123" y="773" on="1"/>
        <pt x="123" y="852" on="0"/>
        <pt x="339" y="968" on="0"/>
      </contour>
    </TTGlyph>
    <TTGlyph name="ae" xMin="83" yMin="-9" xMax="1452" yMax="969">
      <contour>
        <pt x="616" y="479" on="1"/>
        <pt x="574" y="473" on="0"/>
        <pt x="559" y="473" on="1"/>
        <pt x="531" y="469" on="1"/>
        <pt x="510" y="466" on="0"/>
        <pt x="504" y="466" on="1"/>
        <pt x="428" y="466" on="0"/>
        <pt x="336" y="405" on="1"/>
        <pt x="285" y="371" on="0"/>
        <pt x="285" y="304" on="1"/>
        <pt x="285" y="266" on="1"/>
        <pt x="285" y="202" on="0"/>
        <pt x="347" y="131" on="0"/>
        <pt x="428" y="131" on="1"/>
        <pt x="442" y="131" on="1"/>
        <pt x="516" y="131" on="0"/>
        <pt x="678" y="219" on="0"/>
        <pt x="678" y="270" on="1"/>
        <pt x="678" y="294" on="1"/>
        <pt x="677" y="300" on="1"/>
        <pt x="675" y="325" on="1"/>
        <pt x="674" y="331" on="1"/>
        <pt x="674" y="379" on="1"/>
        <pt x="675" y="392" on="1"/>
        <pt x="675" y="479" on="0"/>
        <pt x="648" y="479" on="1"/>
      </contour>
      <contour>
        <pt x="815" y="597" on="1"/>
        <pt x="815" y="584" on="1"/>
        <pt x="815" y="543" on="0"/>
        <pt x="884" y="543" on="1"/>
        <pt x="927" y="543" on="1"/>
        <pt x="934" y="544" on="1"/>
        <pt x="1055" y="551" on="1"/>
        <pt x="1062" y="552" on="1"/>
        <pt x="1100" y="555" on="1"/>
        <pt x="1118" y="558" on="0"/>
        <pt x="1131" y="558" on="1"/>
        <pt x="1232" y="558" on="0"/>
        <pt x="1232" y="622" on="1"/>
        <pt x="1232" y="641" on="1"/>
        <pt x="1229" y="659" on="0"/>
        <pt x="1229" y="673" on="1"/>
        <pt x="1229" y="739" on="0"/>
        <pt x="1124" y="857" on="0"/>
        <pt x="1050" y="857" on="1"/>
        <pt x="1031" y="857" on="1"/>
        <pt x="935" y="857" on="0"/>
        <pt x="815" y="702" on="0"/>
      </contour>
      <contour>
        <pt x="847" y="406" on="1"/>
        <pt x="847" y="275" on="0"/>
        <pt x="989" y="111" on="0"/>
        <pt x="1114" y="111" on="1"/>
        <pt x="1191" y="111" on="0"/>
        <pt x="1402" y="202" on="0"/>
        <pt x="1403" y="202" on="1"/>
        <pt x="1431" y="202" on="0"/>
        <pt x="1431" y="173" on="1"/>
        <pt x="1431" y="109" on="0"/>
        <pt x="1315" y="50" on="1"/>
        <pt x="1200" y="-9" on="0"/>
        <pt x="1092" y="-9" on="1"/>
        <pt x="913" y="-9" on="0"/>
        <pt x="792" y="82" on="1"/>
        <pt x="723" y="135" on="0"/>
        <pt x="687" y="135" on="0"/>
        <pt x="626" y="90" on="1"/>
        <pt x="495" y="-7" on="0"/>
        <pt x="228" y="-7" on="0"/>
        <pt x="83" y="120" on="0"/>
        <pt x="83" y="237" on="1"/>
        <pt x="83" y="436" on="0"/>
        <pt x="362" y="508" on="1"/>
        <pt x="399" y="518" on="0"/>
        <pt x="561" y="546" on="0"/>
        <pt x="589" y="560" on="1"/>
        <pt x="644" y="588" on="0"/>
        <pt x="644" y="648" on="1"/>
        <pt x="644" y="751" on="0"/>
        <pt x="562" y="871" on="0"/>
        <pt x="415" y="871" on="0"/>
        <pt x="342" y="819" on="0"/>
        <pt x="272" y="692" on="0"/>
        <pt x="224" y="692" on="1"/>
        <pt x="144" y="692" on="0"/>
        <pt x="144" y="854" on="0"/>
        <pt x="348" y="965" on="0"/>
        <pt x="572" y="965" on="0"/>
        <pt x="643" y="937" on="1"/>
        <pt x="647" y="935" on="0"/>
        <pt x="752" y="881" on="0"/>
        <pt x="782" y="881" on="0"/>
        <pt x="997" y="969" on="0"/>
        <pt x="1075" y="969" on="1"/>
        <pt x="1110" y="969" on="1"/>
        <pt x="1252" y="969" on="0"/>
        <pt x="1452" y="769" on="0"/>
        <pt x="1452" y="630" on="1"/>
        <pt x="1452" y="554" on="0"/>
        <pt x="1373" y="511" on="0"/>
        <pt x="946" y="486" on="0"/>
        <pt x="914" y="479" on="1"/>
        <pt x="847" y="464" on="0"/>
      </contour>
    </TTGlyph>
    <TTGlyph name="agrave" xMin="82" yMin="-27" xMax="971" yMax="1441">
      <contour>
        <pt x="552" y="467" on="1"/>
        <pt x="421" y="467" on="0"/>
        <pt x="269" y="349" on="0"/>
        <pt x="269" y="275" on="1"/>
        <pt x="269" y="248" on="1"/>
        <pt x="269" y="190" on="0"/>
        <pt x="347" y="102" on="0"/>
        <pt x="415" y="102" on="1"/>
        <pt x="434" y="102" on="1"/>
        <pt x="525" y="102" on="0"/>
        <pt x="599" y="168" on="1"/>
        <pt x="645" y="209" on="0"/>
        <pt x="645" y="285" on="1"/>
        <pt x="645" y="406" on="1"/>
        <pt x="645" y="470" on="0"/>
        <pt x="610" y="470" on="1"/>
        <pt x="585" y="470" on="1"/>
        <pt x="567" y="467" on="0"/>
      </contour>
      <contour>
        <pt x="576" y="1077" on="1"/>
        <pt x="565" y="1077" on="1"/>
        <pt x="531" y="1077" on="0"/>
        <pt x="232" y="1343" on="0"/>
        <pt x="232" y="1381" on="1"/>
        <pt x="233" y="1386" on="1"/>
        <pt x="233" y="1441" on="0"/>
        <pt x="308" y="1441" on="1"/>
        <pt x="330" y="1441" on="1"/>
        <pt x="385" y="1441" on="0"/>
        <pt x="424" y="1391" on="1"/>
        <pt x="612" y="1149" on="0"/>
        <pt x="612" y="1112" on="1"/>
        <pt x="612" y="1103" on="1"/>
        <pt x="612" y="1077" on="0"/>
      </contour>
      <contour>
        <pt x="971" y="73" on="1"/>
        <pt x="971" y="58" on="1"/>
        <pt x="971" y="38" on="0"/>
        <pt x="883" y="-16" on="0"/>
        <pt x="790" y="-16" on="1"/>
        <pt x="740" y="-16" on="0"/>
        <pt x="653" y="75" on="0"/>
        <pt x="634" y="75" on="0"/>
        <pt x="554" y="35" on="0"/>
        <pt x="420" y="-27" on="0"/>
        <pt x="212" y="-27" on="0"/>
        <pt x="82" y="111" on="0"/>
        <pt x="82" y="335" on="0"/>
        <pt x="250" y="474" on="0"/>
        <pt x="387" y="507" on="1"/>
        <pt x="597" y="557" on="0"/>
        <pt x="608" y="565" on="1"/>
        <pt x="646" y="592" on="0"/>
        <pt x="646" y="764" on="0"/>
        <pt x="549" y="868" on="0"/>
        <pt x="413" y="868" on="0"/>
        <pt x="346" y="820" on="0"/>
        <pt x="262" y="682" on="0"/>
        <pt x="214" y="682" on="1"/>
        <pt x="123" y="682" on="0"/>
        <pt x="123" y="772" on="1"/>
        <pt x="123" y="854" on="0"/>
        <pt x="221" y="904" on="1"/>
        <pt x="344" y="967" on="0"/>
        <pt x="476" y="967" on="1"/>
        <pt x="502" y="967" on="1"/>
        <pt x="692" y="967" on="0"/>
        <pt x="775" y="859" on="1"/>
        <pt x="837" y="778" on="0"/>
        <pt x="837" y="542" on="1"/>
        <pt x="833" y="328" on="1"/>
        <pt x="833" y="186" on="0"/>
        <pt x="865" y="120" on="0"/>
        <pt x="899" y="108" on="1"/>
        <pt x="971" y="83" on="0"/>
      </contour>
    </TTGlyph>
    <TTGlyph name="ampersand" xMin="95" yMin="-13" xMax="1332" yMax="1360">
      <contour>
        <pt x="464" y="1124" on="1"/>
        <pt x="464" y="1103" on="1"/>
        <pt x="464" y="1039" on="0"/>
        <pt x="534" y="911" on="1"/>
        <pt x="576" y="834" on="0"/>
        <pt x="612" y="834" on="1"/>
        <pt x="641" y="834" on="0"/>
        <pt x="748" y="971" on="0"/>
        <pt x="748" y="1022" on="1"/>
        <pt x="750" y="1034" on="0"/>
        <pt x="750" y="1040" on="1"/>
        <pt x="752" y="1072" on="1"/>
        <pt x="752" y="1100" on="1"/>
        <pt x="752" y="1179" on="0"/>
        <pt x="675" y="1300" on="0"/>
        <pt x="614" y="1300" on="1"/>
        <pt x="603" y="1300" on="1"/>
        <pt x="545" y="1300" on="0"/>
        <pt x="495" y="1229" on="1"/>
        <pt x="464" y="1185" on="0"/>
      </contour>
      <contour>
        <pt x="281" y="408" on="1"/>
        <pt x="281" y="371" on="1"/>
        <pt x="281" y="260" on="0"/>
        <pt x="452" y="102" on="0"/>
        <pt x="554" y="102" on="1"/>
        <pt x="608" y="102" on="1"/>
        <pt x="671" y="102" on="0"/>
        <pt x="835" y="190" on="0"/>
        <pt x="835" y="228" on="1"/>
        <pt x="835" y="235" on="1"/>
        <pt x="835" y="253" on="0"/>
        <pt x="477" y="671" on="0"/>
        <pt x="456" y="671" on="1"/>
        <pt x="400" y="671" on="0"/>
        <pt x="281" y="486" on="0"/>
      </contour>
      <contour>
        <pt x="1047" y="695" on="1"/>
        <pt x="1047" y="767" on="0"/>
        <pt x="1201" y="767" on="1"/>
        <pt x="1289" y="767" on="0"/>
        <pt x="1289" y="731" on="1"/>
        <pt x="1289" y="710" on="0"/>
        <pt x="1206" y="605" on="0"/>
        <pt x="1130" y="414" on="0"/>
        <pt x="1130" y="249" on="0"/>
        <pt x="1191" y="176" on="1"/>
        <pt x="1222" y="139" on="0"/>
        <pt x="1332" y="81" on="0"/>
        <pt x="1332" y="53" on="0"/>
        <pt x="1320" y="46" on="1"/>
        <pt x="1262" y="10" on="0"/>
        <pt x="1091" y="10" on="0"/>
        <pt x="937" y="80" on="0"/>
        <pt x="881" y="80" on="1"/>
        <pt x="865" y="80" on="0"/>
        <pt x="615" y="-13" on="0"/>
        <pt x="497" y="-13" on="1"/>
        <pt x="324" y="-13" on="0"/>
        <pt x="95" y="197" on="0"/>
        <pt x="95" y="514" on="0"/>
        <pt x="250" y="650" on="1"/>
        <pt x="358" y="745" on="0"/>
        <pt x="358" y="804" on="0"/>
        <pt x="276" y="993" on="0"/>
        <pt x="276" y="1072" on="1"/>
        <pt x="276" y="1186" on="0"/>
        <pt x="454" y="1360" on="0"/>
        <pt x="726" y="1360" on="0"/>
        <pt x="882" y="1214" on="0"/>
        <pt x="882" y="1014" on="0"/>
        <pt x="748" y="821" on="0"/>
        <pt x="748" y="645" on="0"/>
        <pt x="831" y="557" on="1"/>
        <pt x="880" y="505" on="0"/>
        <pt x="958" y="505" on="1"/>
        <pt x="978" y="505" on="0"/>
        <pt x="1000" y="532" on="1"/>
        <pt x="1047" y="590" on="0"/>
      </contour>
    </TTGlyph>
</ttFont>
